<svg id="d0c3d57b-4079-4f97-b5a8-57e07ea57230" data-name="Layer 1" xmlns="http://www.w3.org/2000/svg" xmlns:xlink="http://www.w3.org/1999/xlink" viewBox="0 0 117.36 109.42"><defs><clipPath id="b668c56c-f7d2-4d49-9790-43e8681d7ff3" transform="translate(-2958.95 -149.08)"><circle cx="3017.1" cy="203.79" r="54.71" fill="#ededed"></circle></clipPath></defs><title>how_it_works_2</title><circle cx="58.15" cy="54.71" r="54.71" fill="#ededed"></circle><g clip-path="url(#b668c56c-f7d2-4d49-9790-43e8681d7ff3)"><path d="M2976.59,177.75l42.18-12.28a2.33,2.33,0,0,1,2.87,1.58l5.75,19.75a2.32,2.32,0,0,1-1.58,2.87l-42.18,12.28a2.32,2.32,0,0,1-2.87-1.58L2975,180.62a2.32,2.32,0,0,1,1.58-2.87" transform="translate(-2958.95 -149.08)" fill="#94a161"></path><path d="M2976.11,176.08l42.18-12.28a2.33,2.33,0,0,1,2.87,1.58l5.75,19.75a2.32,2.32,0,0,1-1.58,2.87l-42.18,12.28a2.32,2.32,0,0,1-2.87-1.58L2974.53,179a2.32,2.32,0,0,1,1.58-2.87" transform="translate(-2958.95 -149.08)" fill="#a7b36b"></path><path d="M2976,175.55l42.18-12.28a2.32,2.32,0,0,1,2.87,1.58l5.75,19.75a2.32,2.32,0,0,1-1.58,2.87L2983,199.74a2.32,2.32,0,0,1-2.87-1.58l-5.75-19.75a2.32,2.32,0,0,1,1.58-2.87" transform="translate(-2958.95 -149.08)" fill="#94a161"></path><path d="M2975.47,173.88l42.18-12.28a2.32,2.32,0,0,1,2.87,1.58l5.75,19.75a2.32,2.32,0,0,1-1.58,2.87l-42.18,12.28a2.32,2.32,0,0,1-2.87-1.58l-5.75-19.75a2.32,2.32,0,0,1,1.58-2.87" transform="translate(-2958.95 -149.08)" fill="#a7b36b"></path><path d="M2975.34,173.45l42.18-12.28a2.32,2.32,0,0,1,2.87,1.58l5.75,19.75a2.32,2.32,0,0,1-1.58,2.87l-42.18,12.28a2.32,2.32,0,0,1-2.87-1.58l-5.75-19.75a2.32,2.32,0,0,1,1.58-2.87" transform="translate(-2958.95 -149.08)" fill="#94a161"></path><path d="M2974.86,171.79L3017,159.5a2.32,2.32,0,0,1,2.87,1.58l5.75,19.75a2.32,2.32,0,0,1-1.58,2.87L2981.9,196a2.32,2.32,0,0,1-2.87-1.58l-5.75-19.75a2.32,2.32,0,0,1,1.58-2.87" transform="translate(-2958.95 -149.08)" fill="#a7b36b"></path><path d="M2974.73,171.36l42.18-12.28a2.32,2.32,0,0,1,2.87,1.58l5.75,19.75a2.32,2.32,0,0,1-1.58,2.87l-42.18,12.28a2.32,2.32,0,0,1-2.87-1.58l-5.75-19.75a2.32,2.32,0,0,1,1.58-2.87" transform="translate(-2958.95 -149.08)" fill="#94a161"></path><path d="M2974.25,169.69l42.18-12.28a2.33,2.33,0,0,1,2.87,1.58l5.75,19.75a2.32,2.32,0,0,1-1.58,2.87l-42.18,12.28a2.32,2.32,0,0,1-2.87-1.58l-5.75-19.75a2.32,2.32,0,0,1,1.58-2.87" transform="translate(-2958.95 -149.08)" fill="#a7b36b"></path><path d="M2974.12,169.26L3016.3,157a2.32,2.32,0,0,1,2.87,1.58l5.75,19.75a2.32,2.32,0,0,1-1.58,2.87l-42.18,12.28a2.32,2.32,0,0,1-2.87-1.58l-5.75-19.75a2.32,2.32,0,0,1,1.58-2.87" transform="translate(-2958.95 -149.08)" fill="#94a161"></path><path d="M2973.64,167.6l42.18-12.28a2.32,2.32,0,0,1,2.87,1.58l5.75,19.75a2.32,2.32,0,0,1-1.58,2.87l-42.18,12.28a2.32,2.32,0,0,1-2.87-1.58l-5.75-19.75a2.32,2.32,0,0,1,1.58-2.87" transform="translate(-2958.95 -149.08)" fill="#a7b36b"></path><polygon points="51.99 9.49 58.92 13.3 61.85 23.38 58.05 30.31 26.61 39.46 19.68 35.66 16.75 25.57 20.55 18.65 51.99 9.49" fill="#94a161"></polygon><path d="M2987.45,176.7a11.25,11.25,0,1,1,13.94,7.65,11.25,11.25,0,0,1-13.94-7.65" transform="translate(-2958.95 -149.08)" fill="#a7b36b"></path><path d="M2990.26,175.88a8.51,8.51,0,1,1,10.55,5.79,8.51,8.51,0,0,1-10.55-5.79" transform="translate(-2958.95 -149.08)" fill="#bcc773"></path><path d="M3051.46,181.94a5.14,5.14,0,1,1-6.86-2.4" transform="translate(-2958.95 -149.08)" fill="#e2cf74"></path><path d="M3051.85,180.8a5.14,5.14,0,1,1-6.86-2.4,5.14,5.14,0,0,1,6.86,2.4" transform="translate(-2958.95 -149.08)" fill="#ecdc62"></path><path d="M3052.27,179.62a5.14,5.14,0,1,1-6.86-2.4,5.14,5.14,0,0,1,6.86,2.4" transform="translate(-2958.95 -149.08)" fill="#e2cf74"></path><path d="M3052.67,178.48a5.14,5.14,0,1,1-6.86-2.4,5.14,5.14,0,0,1,6.86,2.4" transform="translate(-2958.95 -149.08)" fill="#ecdc62"></path><path d="M3053.08,177.3a5.14,5.14,0,1,1-6.86-2.4,5.14,5.14,0,0,1,6.86,2.4" transform="translate(-2958.95 -149.08)" fill="#e2cf74"></path><path d="M3053.48,176.16a5.14,5.14,0,1,1-6.86-2.4,5.14,5.14,0,0,1,6.86,2.4" transform="translate(-2958.95 -149.08)" fill="#ecdc62"></path><path d="M3053.88,175a5.14,5.14,0,1,1-6.86-2.4,5.14,5.14,0,0,1,6.86,2.4" transform="translate(-2958.95 -149.08)" fill="#e2cf74"></path><path d="M3054.27,173.9a5.14,5.14,0,1,1-6.86-2.4,5.14,5.14,0,0,1,6.86,2.4" transform="translate(-2958.95 -149.08)" fill="#ecdc62"></path><path d="M3055.09,171.58a5.14,5.14,0,1,1-6.86-2.4,5.14,5.14,0,0,1,6.86,2.4" transform="translate(-2958.95 -149.08)" fill="#ecdc62"></path><path d="M3054.89,172.57a5.14,5.14,0,1,1-6.86-2.4,5.14,5.14,0,0,1,6.86,2.4" transform="translate(-2958.95 -149.08)" fill="#e2cf74"></path><path d="M3055.29,171.26a5.14,5.14,0,1,1-6.86-2.4,5.14,5.14,0,0,1,6.86,2.4" transform="translate(-2958.95 -149.08)" fill="#ecdc62"></path><path d="M3054.16,171.8A3.89,3.89,0,1,1,3049,170a3.89,3.89,0,0,1,5.19,1.82" transform="translate(-2958.95 -149.08)" fill="#e2cf74"></path><path d="M3042.74,181.79a5.14,5.14,0,1,1-6.86-2.4,5.14,5.14,0,0,1,6.86,2.4" transform="translate(-2958.95 -149.08)" fill="#e2cf74"></path><path d="M3043.14,180.65a5.14,5.14,0,1,1-6.86-2.4,5.14,5.14,0,0,1,6.86,2.4" transform="translate(-2958.95 -149.08)" fill="#ecdc62"></path><path d="M3043.55,179.47a5.14,5.14,0,1,1-6.86-2.4,5.14,5.14,0,0,1,6.86,2.4" transform="translate(-2958.95 -149.08)" fill="#e2cf74"></path><path d="M3043.95,178.34a5.14,5.14,0,1,1-6.86-2.4,5.14,5.14,0,0,1,6.86,2.4" transform="translate(-2958.95 -149.08)" fill="#ecdc62"></path><path d="M3044.36,177.16a5.14,5.14,0,1,1-6.86-2.4,5.14,5.14,0,0,1,6.86,2.4" transform="translate(-2958.95 -149.08)" fill="#e2cf74"></path><path d="M3044.76,176a5.14,5.14,0,1,1-6.86-2.4,5.14,5.14,0,0,1,6.86,2.4" transform="translate(-2958.95 -149.08)" fill="#ecdc62"></path><path d="M3043.63,176.56a3.89,3.89,0,1,1-5.19-1.82,3.89,3.89,0,0,1,5.19,1.82" transform="translate(-2958.95 -149.08)" fill="#e2cf74"></path><rect y="43.9" width="117.36" height="25.01" fill="#fff"></rect><line x1="15.85" y1="49.66" x2="32.03" y2="49.66" fill="none" stroke="#6c90ba" stroke-miterlimit="10" stroke-width="2.95"></line><line x1="34.3" y1="49.66" x2="45.64" y2="49.66" fill="none" stroke="#6c90ba" stroke-miterlimit="10" stroke-width="2.95"></line><line x1="15.85" y1="54.38" x2="50.86" y2="54.38" fill="none" stroke="#a7b36b" stroke-miterlimit="10" stroke-width="3.07"></line><line x1="54.39" y1="54.38" x2="56.86" y2="54.38" fill="none" stroke="#e1875c" stroke-miterlimit="10" stroke-width="3.07"></line><line x1="58.77" y1="54.38" x2="61.24" y2="54.38" fill="none" stroke="#e1875c" stroke-miterlimit="10" stroke-width="3.07"></line><line x1="63.58" y1="54.38" x2="66.05" y2="54.38" fill="none" stroke="#e1875c" stroke-miterlimit="10" stroke-width="3.07"></line><line x1="67.95" y1="54.38" x2="70.43" y2="54.38" fill="none" stroke="#e1875c" stroke-miterlimit="10" stroke-width="3.07"></line><line x1="15.85" y1="59.1" x2="33.67" y2="59.1" fill="none" stroke="#9b9b9b" stroke-miterlimit="10" stroke-width="3.46"></line><line x1="36.77" y1="59.1" x2="54.6" y2="59.1" fill="none" stroke="#9b9b9b" stroke-miterlimit="10" stroke-width="3.46"></line><line x1="57.48" y1="59.1" x2="71.67" y2="59.1" fill="none" stroke="#9b9b9b" stroke-miterlimit="10" stroke-width="3.46"></line><line x1="15.85" y1="63.82" x2="27.42" y2="63.82" fill="none" stroke="#6c90ba" stroke-miterlimit="10" stroke-width="2.95"></line><line x1="30.26" y1="63.82" x2="41.33" y2="63.82" fill="none" stroke="#6c90ba" stroke-miterlimit="10" stroke-width="2.95"></line><line x1="51.99" y1="63.82" x2="62.24" y2="63.82" fill="none" stroke="#6c90ba" stroke-miterlimit="10" stroke-width="2.95"></line><text transform="translate(79.62 57.87)" font-size="13.51" fill="#919191" font-family="Arial" style="isolation:isolate">Ads</text><path d="M3036.09,219.18l32.36,15.73a1.9,1.9,0,0,1,.88,2.54L3062,252.6a1.9,1.9,0,0,1-2.54.88l-32.36-15.73a1.9,1.9,0,0,1-.88-2.54l7.36-15.15a1.9,1.9,0,0,1,2.54-.88" transform="translate(-2958.95 -149.08)" fill="#94a161"></path><path d="M3036.71,217.91l32.36,15.73a1.9,1.9,0,0,1,.88,2.54l-7.36,15.15a1.9,1.9,0,0,1-2.54.88l-32.36-15.73a1.9,1.9,0,0,1-.88-2.54l7.36-15.15a1.9,1.9,0,0,1,2.54-.88" transform="translate(-2958.95 -149.08)" fill="#a7b36b"></path><path d="M3036.87,217.58l32.36,15.73a1.9,1.9,0,0,1,.88,2.54L3062.74,251a1.9,1.9,0,0,1-2.54.88l-32.36-15.73a1.9,1.9,0,0,1-.88-2.54l7.36-15.15a1.9,1.9,0,0,1,2.54-.88" transform="translate(-2958.95 -149.08)" fill="#94a161"></path><path d="M3037.5,216.3L3069.85,232a1.9,1.9,0,0,1,.88,2.54l-7.36,15.15a1.9,1.9,0,0,1-2.54.88l-32.36-15.73a1.9,1.9,0,0,1-.88-2.54l7.36-15.15a1.9,1.9,0,0,1,2.54-.88" transform="translate(-2958.95 -149.08)" fill="#a7b36b"></path><path d="M3037.65,216L3070,231.7a1.9,1.9,0,0,1,.88,2.54l-7.36,15.15a1.9,1.9,0,0,1-2.54.88l-32.36-15.73a1.9,1.9,0,0,1-.88-2.54l7.36-15.15a1.9,1.9,0,0,1,2.54-.88" transform="translate(-2958.95 -149.08)" fill="#94a161"></path><path d="M3038.28,214.69l32.36,15.73a1.9,1.9,0,0,1,.88,2.54l-7.36,15.15a1.9,1.9,0,0,1-2.54.88l-32.36-15.73a1.9,1.9,0,0,1-.88-2.54l7.36-15.15a1.9,1.9,0,0,1,2.54-.88" transform="translate(-2958.95 -149.08)" fill="#a7b36b"></path><path d="M3038.44,214.36l32.36,15.73a1.9,1.9,0,0,1,.88,2.54l-7.36,15.15a1.9,1.9,0,0,1-2.54.88l-32.36-15.73a1.9,1.9,0,0,1-.88-2.54l7.36-15.15a1.9,1.9,0,0,1,2.54-.88" transform="translate(-2958.95 -149.08)" fill="#94a161"></path><path d="M3039.06,213.09l32.36,15.73a1.9,1.9,0,0,1,.88,2.54l-7.36,15.15a1.9,1.9,0,0,1-2.54.88L3030,231.65a1.9,1.9,0,0,1-.88-2.54l7.36-15.15a1.9,1.9,0,0,1,2.54-.88" transform="translate(-2958.95 -149.08)" fill="#a7b36b"></path><polygon points="107.71 79.03 109.83 85.15 106.07 92.88 99.95 95 75.84 83.28 73.72 77.16 77.48 69.42 83.6 67.31 107.71 79.03" fill="#94a161"></polygon><path d="M3042.44,226.2a9.21,9.21,0,1,1,4.26,12.31,9.21,9.21,0,0,1-4.26-12.31" transform="translate(-2958.95 -149.08)" fill="#a7b36b"></path><path d="M3044.59,227.25a7,7,0,1,1,3.22,9.31,7,7,0,0,1-3.22-9.31" transform="translate(-2958.95 -149.08)" fill="#bcc773"></path><path d="M3003.33,229.94a5.53,5.53,0,1,1-7.19,3.06,5.53,5.53,0,0,1,7.19-3.06" transform="translate(-2958.95 -149.08)" fill="#e2cf74"></path><path d="M3002.83,228.74a5.53,5.53,0,1,1-7.19,3.06,5.53,5.53,0,0,1,7.19-3.06" transform="translate(-2958.95 -149.08)" fill="#ecdc62"></path><path d="M3002.3,227.51a5.53,5.53,0,1,1-7.19,3.06,5.53,5.53,0,0,1,7.19-3.06" transform="translate(-2958.95 -149.08)" fill="#e2cf74"></path><path d="M3001.79,226.31a5.53,5.53,0,1,1-7.19,3.06,5.53,5.53,0,0,1,7.19-3.06" transform="translate(-2958.95 -149.08)" fill="#ecdc62"></path><path d="M3001.27,225.08a5.53,5.53,0,1,1-7.19,3.06,5.53,5.53,0,0,1,7.19-3.06" transform="translate(-2958.95 -149.08)" fill="#e2cf74"></path><path d="M3000.76,223.88a5.53,5.53,0,1,1-7.19,3.06,5.53,5.53,0,0,1,7.19-3.06" transform="translate(-2958.95 -149.08)" fill="#ecdc62"></path><path d="M3000.25,222.7a5.53,5.53,0,1,1-7.19,3.06,5.53,5.53,0,0,1,7.19-3.06" transform="translate(-2958.95 -149.08)" fill="#e2cf74"></path><path d="M2999.74,221.51a5.53,5.53,0,1,1-7.19,3.06,5.53,5.53,0,0,1,7.19-3.06" transform="translate(-2958.95 -149.08)" fill="#ecdc62"></path><path d="M2989.17,229.7a5.53,5.53,0,1,1-7.19,3.06,5.53,5.53,0,0,1,7.19-3.06" transform="translate(-2958.95 -149.08)" fill="#e2cf74"></path><path d="M2988.66,228.51a5.53,5.53,0,1,1-7.19,3.06,5.53,5.53,0,0,1,7.19-3.06" transform="translate(-2958.95 -149.08)" fill="#ecdc62"></path><path d="M2988.16,229.76a4.18,4.18,0,1,1-5.44,2.32,4.18,4.18,0,0,1,5.44-2.32" transform="translate(-2958.95 -149.08)" fill="#e2cf74"></path><path d="M2999.2,222.7a4.18,4.18,0,1,1-5.44,2.32,4.18,4.18,0,0,1,5.44-2.32" transform="translate(-2958.95 -149.08)" fill="#e2cf74"></path></g></svg>
