<svg xmlns="http://www.w3.org/2000/svg" width="479" height="126" viewBox="0 0 479 126">
                            <g fill="#9B9B9B" fill-rule="evenodd">
                                <path d="M119.012 125.654c-8.35-1.221-15.653-4.775-21.23-10.33-4.652-4.633-7.669-9.728-9.892-16.71-3.471-10.9-3.472-24.913-.003-35.59 3.362-10.348 10.933-19.355 20.198-24.031 12.83-6.477 30.89-6.07 42.774.963 10.695 6.33 17.173 17.576 18.976 32.942.55 4.691.193 14.6-.674 18.691-3.547 16.742-13.879 28.438-29.016 32.845-1.631.475-4.16 1.031-5.62 1.235-3.09.432-12.522.423-15.513-.015zm12.493-6.722c2.44-.729 5.448-3.566 7.052-6.65 3.312-6.367 4.79-15.783 4.828-30.734.046-18.738-2.876-30.66-9.042-36.904-2.59-2.621-4.426-3.435-7.736-3.43-7.348.011-12.012 7.724-13.854 22.91-.847 6.981-.851 23.612-.008 29.715 2.61 18.89 9.349 27.903 18.76 25.093zM266.91 125.65c-3.416-.348-13.856-2.095-17.502-2.929l-2.523-.576.196-13.547c.474-32.614.534-50.419.227-67.734-.3-16.962-.388-18.755-1.039-21.264-.824-3.18-2.014-5.397-3.445-6.421-.555-.398-2.066-.962-3.356-1.254-4.288-.968-4.055-.813-4.17-2.78-.065-1.133.057-1.881.345-2.111C236.03 6.726 271.2-.019 272.32 0c.322.006.368 4.527.203 20.09-.117 11.045-.133 20.082-.034 20.082s1.384-.56 2.856-1.244c4.437-2.06 8.527-2.955 14.467-3.164 3.954-.138 5.787-.051 7.815.37 13.266 2.76 23.083 13.678 26.514 29.487.895 4.123 1.228 14.373.634 19.506-.507 4.376-1.952 10.271-3.455 14.097-5.674 14.437-17.847 23.855-33.996 26.303-3.72.563-15.402.634-20.412.123zm13.802-6.885c2.502-.478 4.445-1.479 6.532-3.366 5.23-4.727 9.162-14.487 10.708-26.58.63-4.926.545-16.149-.153-20.26-1.888-11.118-5.946-18.426-11.865-21.368-2.455-1.22-2.834-1.306-5.747-1.306-2.083 0-3.875.224-5.398.675l-2.281.676-.168 12.655c-.216 16.21.308 56.794.749 57.958.28.743.59.901 1.984 1.011 3.282.26 3.825.25 5.64-.095zM365.916 125.479c-17.085-3.098-29.303-15.28-33.295-33.195-.513-2.304-.74-4.882-.87-9.87-.203-7.892.435-12.79 2.461-18.876 3.89-11.686 10.86-19.967 20.984-24.93 10.687-5.238 25.298-5.582 34.755-.816 10.649 5.365 16.914 16.078 18.504 31.637.214 2.095.338 4.588.276 5.54l-.114 1.731-25.483.09-25.483.088.097 3.027c.225 7.013 1.725 13.217 4.498 18.609 1.261 2.451 2.265 3.788 4.703 6.262 5.507 5.591 10.986 7.755 19.629 7.755 6.266 0 10.772-1.257 15.486-4.32 1.32-.859 2.657-1.56 2.972-1.56.72 0 2.376 2.143 2.376 3.074 0 1.527-4.941 6.446-9.76 9.72-3.947 2.68-10.207 5.108-15.634 6.062-3.801.67-12.34.654-16.102-.028zm10.812-56.438l5.991-.21-.216-4.279c-.76-15.089-4.433-23.335-10.39-23.328-6.473.007-11.646 8.375-13.797 22.32-.265 1.713-.484 3.746-.487 4.516l-.006 1.4 6.457-.104c3.551-.059 9.153-.2 12.448-.315zM434.789 125.815c-6.136-.662-15.9-2.81-19.15-4.216l-1.589-.686-.216-7.91c-.12-4.35-.257-10.168-.305-12.926l-.09-5.016.953-.46c.523-.251 1.58-.487 2.347-.523l1.396-.065 1.189 2.943c4.64 11.481 10.08 17.672 17.188 19.555 2.711.719 7.795.725 9.802.012 5.622-1.995 8.705-6.276 8.732-12.123.031-6.925-3.754-10.252-18.056-15.869-8.86-3.48-11.952-5.27-15.632-9.058-3.97-4.087-5.876-8.737-6.233-15.215-.432-7.827 2.004-14.426 7.403-20.049 5.433-5.658 12.486-8.725 22.095-9.607 8.46-.776 21.448 1.028 28.253 3.925l1.242.529.221 7.05c.122 3.877.248 9.075.28 11.55l.059 4.502-1.668.622c-2.635.984-2.809.861-4.275-3.045-4.11-10.95-8.886-16.13-16.327-17.713-4.534-.965-8.322.072-11.076 3.032-2.148 2.308-2.986 4.359-3.189 7.802-.22 3.73.443 5.747 2.71 8.24 2.794 3.075 7.372 5.728 16.49 9.56 11.17 4.692 16.499 8.676 19.396 14.499 1.881 3.781 2.414 6.802 2.225 12.616-.142 4.362-.28 5.259-1.268 8.188-3.219 9.55-10.483 15.836-21.707 18.784-3.801.998-4.344 1.05-11.903 1.133-4.356.048-8.54.02-9.297-.061z"></path>
                                <path d="M.458 123.734c-.287-.116-.43-.98-.43-2.577 0-2.869-.182-2.74 5.337-3.77 4.233-.79 5.748-1.597 7.617-4.061 3.625-4.779 4.408-13.979 4.416-51.86.008-35.575-.674-43.06-4.422-48.558C11.312 10.47 8.51 9.144 3.815 8.58L.199 8.144l-.1-2.838L0 2.467l1.133-.203c.623-.111 22.514-.158 48.646-.104l47.513.098.222 1.385c.123.762.324 8.575.447 17.363l.224 15.978-2.45.748c-3.687 1.126-3.665 1.14-5.324-3.274-4.074-10.84-8.747-17.086-15.14-20.24-4.41-2.176-6.448-2.439-18.9-2.439H45.532l-.187 1.818c-.35 3.409-.903 25.337-.9 35.663l.004 10.301 3.186-.018c1.752-.01 5.206-.14 7.677-.288 3.713-.223 4.817-.422 6.37-1.145 3.818-1.777 6.415-5.687 8.006-12.055l.822-3.287 2.81-.1 2.81-.102v41.606l-2.81-.1-2.813-.101-.798-3.29c-1.5-6.18-4.385-10.604-7.952-12.19-1.647-.733-5.722-1.15-13.606-1.39l-3.702-.114v7.816c0 8.516.466 20.037 1.063 26.29.832 8.717 3.048 13.534 7.026 15.277.76.333 3.164.873 5.342 1.201 2.178.328 4.231.737 4.562.91.841.436.89 4.95.059 5.271-.652.252-61.424.233-62.044-.018zM170.213 123.668c-.314-.2-.417-1-.345-2.68l.104-2.392 1.205-.257c.663-.142 2.087-.425 3.164-.627 3.335-.626 5.25-2.446 6.33-6.01.878-2.903 1.265-12.193 1.285-30.847.024-22.813-.448-28.201-2.742-31.255-1.244-1.656-2.14-2.126-5.158-2.709a367.021 367.021 0 0 1-3.482-.684c-.69-.145-.774-.37-.774-2.068 0-1.65.103-1.948.774-2.226 1.03-.425 35.146-7.282 36.236-7.282h.85l-.167 5.107a1554.66 1554.66 0 0 1-.326 9.09l-.159 3.981 1.236-2.24c3.957-7.174 8.393-11.628 14.293-14.346 3.24-1.493 5.4-1.938 9.402-1.938 4.745 0 9.49 1.557 9.49 3.114 0 1.047-8.362 23.26-8.823 23.437-.225.087-1.857-.54-3.628-1.395-3.692-1.782-7.155-2.652-10.518-2.645-4.187.009-8.865 1.56-10.711 3.551-.79.852-.794.903-.99 13.625-.195 12.598.223 27.965.927 34.145.6 5.266 1.992 7.858 4.866 9.065.959.403 7.024 1.238 9.004 1.24.15 0 .227 1.208.172 2.684l-.1 2.683-25.484.083c-14.016.046-25.685-.046-25.931-.204z"></path>
                            </g>
                        </svg>
