<svg xmlns="http://www.w3.org/2000/svg" width="469" height="84" viewBox="0 0 469 84">
                            <g fill="#9B9B9B" fill-rule="nonzero">
                                <path d="M30.327 20.334H20.69l.054-10.303L6.48 12.157v7.96L0 21.096v6.325h6.697l-.055 27.75c.047.998 1.648 10.003 11.38 9.431C29.06 63.955 30 62.696 30.98 62.041c-.078.08 0-5.397 0-5.397l-5.99.164s-3.375-.218-3.92-3.98c-.02.002-.108-25.297-.108-25.297l9.365.054v-7.25zM51.057.667l-19.26 2.767.027 3.68 5.118 2.29.054 48.166-4.845 1.909.054 3.952 23.63.027v-3.925l-4.764-2.072.027-28.486s2.696-1.2 6.425-1.2c3.73 0 5.445 2.4 5.445 3.872v25.896l-4.356 1.935v3.98h23.575v-3.816l-4.846-2.372V28.076s.11-9.268-10.617-8.805c-6.526.04-11.148 2.099-15.694 5.697 0-.013 0-24.274.028-24.301zm71.84 42.373c.547-9.504-.445-24.656-19.596-23.747-18.767.89-21.137 15.265-21.021 24.556 1.078 15.012 8.81 20.593 23.331 20.818 11.473-.386 15.63-6.438 15.63-6.438v-4.067s-5.39 1.619-11.049 1.58C96.795 55.65 96.948 43.04 96.948 43.04h25.95zM96.91 37.99s-.08-6.126 1.14-10.016c.974-3.104 2.943-4.13 5.212-4.132 3.782-.006 4.727 2.117 5.152 4.725.612 3.754.51 8.841.47 8.883l-11.974.54zM159.475 54.462h-17.147s-2.567-.274-2.676-2.91c-.11-2.635 1.747-3.293 1.747-3.293s3.66 1.098 7.482 1.098 18.84-1.592 18.84-14.657c0-5.935-4.641-9.332-4.641-9.332l8.304 2.237-.14-8.576-11.987 2.223s-6.225-2.278-10.649-2.278c-2.976 0-18.322 1.186-18.882 14.729-.395 9.561 7.633 13.129 7.578 13.129-.054 0-7.645 4.72-7.7 10.595-.052 5.655 6.372 7.391 6.85 7.512.02.001.031.004.03.008l-.03-.008c-.617-.018-10.455 1.84-10.454 8.791 0 6.643 10.922 9.881 22.499 9.936 11.577.055 24.301-3.239 24.301-17.017 0-13.778-13.325-12.187-13.325-12.187zM148.5 24.19c5.325-.028 5.352 5.516 5.38 7.85v4.144s.709 7.466-4.916 7.493c-5.624.028-5.46-4.337-5.46-7.493v-4.886s-.328-7.081 4.996-7.108zm.028 54.207c-7.919 0-10.758-3.238-10.758-6.367 0-3.13 1.938-4.42 1.938-4.42l17.175-.027s3.413.384 3.413 3.404c0 4.64-3.85 7.41-11.768 7.41zm43.55-59.12l-19.332 3.019v3.788l4.97 2.415v24.428s.258 11.996 11.96 12.131c9.501.11 14.252-6.532 14.252-6.532v6.422l18.731-2.25v-3.458l-4.786-2.778V19.386l-19.242 3.02v3.623l5.079 2.58v26.074s-1.31 1.098-5.515 1.427c-4.205.33-6.117-3.677-6.117-3.677V19.275zm34.533 3.131s9.23-3.377 16.836-3.377c7.607 0 18.612 2.601 18.612 12.11v26.357l4.711 2.484v3.144s-3.359 1.824-8.301 1.824c-4.943 0-9.23-2.523-9.23-6.327-1.074.02-1.465 6.25-13.051 6.25-13.515 0-12.473-12.033-12.473-12.266 0-.233-.388-8.982 9.461-10.869 9.73-1.862 14.249-2.6 14.249-2.6l-.048-8.85s-.802-5.357-5.397-5.318c-4.595.039-4.557.078-4.557.078l-3.243 8.888h-7.607l.038-11.528zm21.18 33.168V43.621s-9.692-.874-9.711 6.928c-.015 5.874 3.658 6.56 5.328 6.56 1.912-.123 3.181-.8 4.383-1.534zm38.75-36.7l-18.882 2.989v3.959l4.865 2.329v29.383l-4.518 2.33v3.725h24.869v-3.57l-5.947-2.407.039-24.26s3.784-1.514 7.606-1.514c3.823 0 5.716.427 5.716.427V19.573s-8.093-2.548-13.824 8.811l.076-9.509zm37.417-14.478v3.842l4.75 2.29v10.403s-3.32-1.591-7.337-1.591c-4.016 0-20.427.62-20.89 23.29-.464 22.668 17.067 22.357 16.913 22.357-.154 0 8.032.233 11.739-4.58-.02 0-.039 4.56-.039 4.56l18.555-2.27v-3.687l-4.46-2.29-.04-55.351-19.19 3.027zm4.73 22.474v29.461s-1.53.777-4.382.777c-4.638 0-8.562-3.173-8.534-13.392.025-8.927 1.32-15.94 5.205-17.777 3.883-1.836 7.532.685 7.712.931zM368.794 8.6c0 4.379-3.536 7.932-7.891 7.932-4.356 0-7.891-3.553-7.891-7.932 0-4.379 3.535-7.932 7.89-7.932 4.356 0 7.892 3.553 7.892 7.932zm-.328 10.457l-19.605 2.8v3.787l5.133 2.526V57.59l-4.696 2.141v4.008h23.591v-3.843l-4.478-2.196.055-38.645zm8.95 3.303s9.229-3.377 16.836-3.377c7.607 0 18.612 2.6 18.612 12.11v26.356l4.711 2.485v3.143s-3.36 1.825-8.302 1.825-9.23-2.523-9.23-6.327c-1.073.02-1.464 6.25-13.05 6.25-13.516 0-12.473-12.034-12.473-12.267 0-.232-.388-8.982 9.46-10.868 9.731-1.863 14.25-2.6 14.25-2.6l-.048-8.85s-.802-5.357-5.397-5.318c-4.596.039-4.557.077-4.557.077l-3.243 8.889h-7.607l.037-11.528zm21.18 33.168V43.572s-9.693-.874-9.712 6.928c-.014 5.873 3.658 6.56 5.33 6.56 1.91-.123 3.18-.8 4.382-1.533zm38.95-36.58l-19.277 3.073v3.678l5.188 2.47v29.643l-4.75 1.921v4.117h23.59v-4.062l-4.368-2.086V29.047s2.348-1.098 5.788-1.098c3.44 0 6.116 1.537 6.116 4.94v24.812l-4.84 2.391-.02 3.647H469v-3.897l-4.696-1.976V30.364s.327-10.978-10.758-10.978c-11.086 0-15.946 5.873-15.946 5.873l-.055-6.313z"></path>
                            </g>
                        </svg>
