<svg xmlns="http://www.w3.org/2000/svg" viewBox="0 0 109.42 109.42"><title>how_it_works_3</title><g data-name="Layer 1" style="isolation:isolate"><path d="M38.23 78.5c-.88 0-1.75-.1-2.62-.13a1.22 1.22 0 0 0 .3.72 2.13 2.13 0 0 1 .74 1 3.13 3.13 0 0 1 0 1.14 6.25 6.25 0 0 1 .77-1.43 3.34 3.34 0 0 1 1-.87 9 9 0 0 1 1.2-.46c-.46-.04-.99.04-1.39.03zM72.29 79.97a1.07 1.07 0 0 1-.47 1 .81.81 0 0 0-.14 1.09 8.2 8.2 0 0 1 1.55-.67s.66-.2 1.26-.45a2.53 2.53 0 0 0 .62-.41 6.39 6.39 0 0 0-1.91-.51c-.31-.05-.61-.05-.91-.05zM33.9 78.39a7.88 7.88 0 0 0-2.35.63 3.14 3.14 0 0 0 .77.5c.74.31 1.55.55 1.55.55a10.06 10.06 0 0 1 1.9.83 1 1 0 0 0-.17-1.33 1.31 1.31 0 0 1-.58-1.21 6.86 6.86 0 0 0-1.12.03zM67.89 80.85a4.52 4.52 0 0 1 2 .81 2.52 2.52 0 0 0-1.44-1.25 1.57 1.57 0 0 1-.34-.23c-.27.14-.46.37-.73.51a3.19 3.19 0 0 0 .51.16zM68.38 64.79a11.66 11.66 0 0 0-6.66 5.79c3.44-2.63 6.58-3.17 9.33-3.77a14.79 14.79 0 0 0 2.27-.67c-1.24-.67-2.06-1.79-3.3-2.42a7.32 7.32 0 0 1-1.64 1.07zM39.7 78.89a3.08 3.08 0 0 0-1.76 1.53 5.54 5.54 0 0 1 2.47-1 3.92 3.92 0 0 0 .61-.18c-.33-.18-.56-.46-.89-.63a1.93 1.93 0 0 1-.43.28zM46.48 62.88c-4.49.39-5.63 1.32-8.9 2.38a12 12 0 0 0 2.91 1.87c2.78 1.17 5.85 2.09 5.85 2.09 2.63 1 5.85 2.14 7.18 3.13-.07-.07 2-2.8-.65-5-2.27-1.89-2.34-3.71-2.2-4.58-1.44-.05-2.79-.01-4.19.11zM62.76 63.3c-3.34-.08-6.65-.4-10-.52a4.36 4.36 0 0 0 1.21 2.73 8 8 0 0 1 2.78 3.82c.49 1.3.13 3.14.08 4.32a23.61 23.61 0 0 1 2.89-5.39 12.61 12.61 0 0 1 3.77-3.3 34 34 0 0 1 4.54-1.76c-1.7-.16-3.69.14-5.27.1zM68.54 80.07a7.3 7.3 0 0 1 1 .38 2.72 2.72 0 0 1 .81.71 5.1 5.1 0 0 1 .62 1.16 2.55 2.55 0 0 1 0-.93 1.73 1.73 0 0 1 .6-.82 1 1 0 0 0 .25-.58c-.71 0-1.42.09-2.14.11-.34 0-.77-.06-1.14-.03z" fill="#e0e08c"></path><path d="M54.71 0A54.72 54.72 0 0 0 5.2 78a20 20 0 0 0 1.45-1.86c.3-.42 1-1.75 1.56-1.74a.57.57 0 0 1 .41.33c.41.63 1 1.14 1.41 1.73s1.1 1.48 1.62 2.25q.52-.64 1-1.31c.3-.42 1-1.75 1.56-1.74a.57.57 0 0 1 .4.34c.41.63 1 1.14 1.41 1.73s.93 1.27 1.38 1.92c2.66-.12 5.64-.43 7.86.82a29.62 29.62 0 0 0 6.88 2.47h3.35a2.17 2.17 0 0 0-.64-1.67 14.51 14.51 0 0 0-3-1.37 2.54 2.54 0 0 1-1-.74 4.75 4.75 0 0 1-2.39-.44 5.24 5.24 0 0 1-1.15-1 10.15 10.15 0 0 1-1.63-.76 1.89 1.89 0 0 1-.55-1 1.63 1.63 0 0 1 .26-1.48 3.81 3.81 0 0 1 2.44-1.38c1-.3 1.51-1.23 2.54-1.5a25.83 25.83 0 0 1 4.35-.33 11.89 11.89 0 0 1 3.71.18c.87.26 1.12.9 2.14 1.07s1.7 0 2.69.18a2.81 2.81 0 0 1 2.3 1.5 7.84 7.84 0 0 0 1.46 1.17.73.73 0 0 1 0 1.18c-.34.35-1 .51-1.37.83s-.19.84-.74 1.14a3.89 3.89 0 0 1-1 .13c-.81.2-1.35.79-2.17.77a5.69 5.69 0 0 1-1.43.64 5.16 5.16 0 0 0-2.46 1.55 5.67 5.67 0 0 0-.92 1.32h15.54v-2.25c.2-4.91-2.44-6.95-2.44-6.95-2.65-2.25-7.06-3.24-11.21-5.16a9.71 9.71 0 0 1-3.84-2.75 18 18 0 0 1-9-1.7c-1.93-.85-3-2.63-4.35-3.71-1.52-1.22-4.38-1.08-6.15-2.86a7.13 7.13 0 0 1-2.17-4 6.24 6.24 0 0 1 1-5.45c2.31-3.28 5.09-4 9.22-5.21 3.91-1.15 5.72-4.64 9.6-5.67 5-1.34 11.27-.83 16.45-1.25 4.3-.23 9.81-.56 14 .67 3.28 1 4.24 3.39 8.08 4s6.42.09 10.17.68c4.11.64 6.54 2 8.68 5.65 1.33 2.27 4.44 3.07 5.53 4.43 1.62 2 1.18 3.54-.15 4.49-1.26 1.37-4 2-5.25 3.19s-.74 3.18-2.82 4.3c-1.1.59-2.55.21-3.7.49-3 .74-5.1 3-8.21 2.91a21.53 21.53 0 0 1-5.38 2.41 19.49 19.49 0 0 0-9.29 5.85 20.3 20.3 0 0 0-4.64 7.86h13.63l-.25-.3a4.2 4.2 0 0 0-2-1.26 4.63 4.63 0 0 1-1.16-.52 6.87 6.87 0 0 1-1.77-.62 3.17 3.17 0 0 1-.8-.11 2.8 2.8 0 0 1-.61-.93c-.28-.26-.84-.39-1.12-.68a.6.6 0 0 1 0-1 6.4 6.4 0 0 0 1.19-1 2.29 2.29 0 0 1 1.87-1.22c.81-.13 1.39 0 2.19-.15s1-.66 1.74-.87a9.69 9.69 0 0 1 3-.15 21.05 21.05 0 0 1 3.55.27c.84.22 1.23 1 2.07 1.22a3.1 3.1 0 0 1 2 1.12 1.58 1.58 0 0 1 .23.53 1.1 1.1 0 0 1 0 .61 1.54 1.54 0 0 1-.46.86 8.27 8.27 0 0 1-1.33.62 4.26 4.26 0 0 1-.94.8 3.87 3.87 0 0 1-1.94.36 2.07 2.07 0 0 1-.83.6 11.82 11.82 0 0 0-2.42 1.11 1.44 1.44 0 0 0-.39.59h5.07c.43-.28.86-.56 1.3-.82a5.58 5.58 0 0 1 1.59-.7 4.7 4.7 0 0 1 .85-.08c1.13-1.5 2.29-3 3.53-4.33a28.07 28.07 0 0 0 2.07-2.65c.42-.59 1.38-2.49 2.22-2.48a.82.82 0 0 1 .58.48c.58.9 1.36 1.62 2 2.47 1 1.35 2 2.75 3 4.17a5 5 0 0 1 2.61.9 18.87 18.87 0 0 0 5.11 2.44A54.7 54.7 0 0 0 54.71 0zm30.93 30.44c0 .08-7 .07-7.79.11-1.83.09-3.64-.09-5.45-.14-2.14-.06-4.28 0-6.42 0a46 46 0 0 1-6.64.09c-.89-.11-1.36-.47-.36-1a7.47 7.47 0 0 1 2.71-.58c1.07-.12 2.17-.15 3.24-.27a11 11 0 0 0 2.3-.44 6.17 6.17 0 0 1 1.64-.46 9.19 9.19 0 0 0 .94 0 4.34 4.34 0 0 0 1.12-.45 9.52 9.52 0 0 1 2.51-.65 4.84 4.84 0 0 1 2.91.13c.82.4 1.47 1.29 2.39 1.25.31 0 .6-.14.91-.13.76 0 1.28.76 1.92 1.18 1.16.77 2.73.42 4.05.87q.03.26.02.49z" fill="#e0e08c"></path><path d="M85.66 79.93a7.41 7.41 0 0 1 3.91-.82c1.42 0 3.08-.26 4.63-.12-.95-1.43-1.93-2.82-3-4.17-.65-.85-1.43-1.56-2-2.47a.82.82 0 0 0-.58-.48c-.83 0-1.79 1.88-2.22 2.48A28.07 28.07 0 0 1 84.33 77c-1.25 1.37-2.4 2.83-3.53 4.33h.67a10.79 10.79 0 0 0 4.19-1.4z" fill="#ccc"></path><path d="M15.69 79.67h1.71c-.45-.65-.91-1.29-1.38-1.92s-1-1.1-1.41-1.73a.57.57 0 0 0-.4-.34c-.59 0-1.26 1.32-1.56 1.74s-.65.88-1 1.31c.28.4.54.82.81 1.24a14.48 14.48 0 0 1 3.23-.3z" fill="#8e8e8e"></path><path d="M11.65 78.69c-.52-.76-1.06-1.52-1.62-2.25s-1-1.1-1.41-1.73a.57.57 0 0 0-.41-.33c-.59 0-1.26 1.32-1.56 1.74a20 20 0 0 1-1.45 1.86q.86 1.83 1.86 3.58a21.53 21.53 0 0 0 2.91-.88l.55-.2a11.72 11.72 0 0 1 1.95-.56c-.24-.4-.54-.82-.82-1.23z" fill="#ccc"></path><path d="M25.23 80.45c-2.22-1.25-5.2-.94-7.86-.82h-1.71a14.48 14.48 0 0 0-3.23.26 11.72 11.72 0 0 0-1.95.56l-.55.2a21.53 21.53 0 0 1-2.91.88c.26.45.51.91.78 1.35h24.31a29.62 29.62 0 0 1-6.88-2.43zM96.82 79.89a5 5 0 0 0-2.61-.9c-1.55-.14-3.21.15-4.63.12a7.41 7.41 0 0 0-3.91.82 10.79 10.79 0 0 1-4.14 1.38h-.67a4.7 4.7 0 0 0-.85.08 5.58 5.58 0 0 0-1.59.7c-.44.26-.87.54-1.3.82h24.48l.34-.6a18.87 18.87 0 0 1-5.12-2.42z" fill="#b2b2b2"></path><path d="M70.91 84.07a4.21 4.21 0 0 0-.66-1.14H56.64c-.12.37-.23.75-.34 1.14s-.21.81-.31 1.23l2.92.27a73.15 73.15 0 0 1 12.08-1.29zM97.31 84.07h-.3.31zM11.33 85.21a3.88 3.88 0 0 0 .82-.05h-1.14zM36.9 82.93a6.06 6.06 0 0 0-.41 1.14c0 .14-.07.27-.1.42s0 .17 0 .25q1.71-.06 3.44-.08c4.16 0 8.37.06 12.56.33v-1-1.14H36.85z" fill="#aab74f"></path><path d="M35.49 82.93H7.83l.18.29c.17.29.36.56.54.85l.54.83.2.32c.19.28.39.55.58.82l.62.87c.44-.06.87-.11 1.26-.15l4.54-.41 3.76-.34 7.81-.71c2.49-.23 5-.38 7.58-.48v-.95-.75c.06-.09.05-.14.05-.19zM96.66 82.93H72.03a2.24 2.24 0 0 0-.14.91V84.26H75.24c.81 0 1.63 0 2.45.08l1.1.05c1.27.07 2.55.17 3.83.29a135.89 135.89 0 0 1 13.91 2.08l.32.06 1.86.4c.75-1 1.45-2.06 2.13-3.12l.1-.15c.21-.33.42-.65.62-1h-4.92zm.34 1.14h.3-.31z" fill="#aab74f"></path><path d="M75.23 84.21zM39.79 84.7q-1.73 0-3.44.08-.06.31-.12.67h.33a12.16 12.16 0 0 1 1.6.13c.5.07.85.14 1.42.23a.3.3 0 0 1 .29.27c.07.31-.18.44-.46.46-.57.06-2.49.54-3.49.57a11.24 11.24 0 0 1-1.92 0c-.56-.08-.93-.32-1.46-.39-.29 0-1.14-.11-1.18-.5s.68-.36 1-.39c.5-.07 1-.07 1.53-.18a8.49 8.49 0 0 1 1.12-.13h.47v-.65c-2.56.1-5.09.25-7.58.48l-7.81.71-3.76.34-4.54.41c-.39 0-.82.08-1.26.15a55 55 0 0 0 5.75 6.7 109.45 109.45 0 0 1 36-6.27c0-.79.06-1.55.1-2.31-4.22-.32-8.43-.43-12.59-.38zM39.82 84.7zM96.87 86.79l-.32-.06a135.89 135.89 0 0 0-13.91-2.08c-1.28-.12-2.56-.22-3.83-.29l-1.1-.05c-.82 0-1.64-.07-2.45-.08H71.91v1.51h.39a6.91 6.91 0 0 1 .92.11c.41.09.84.09 1.25.15.23 0 .81.06.78.32a1.1 1.1 0 0 1-1 .41c-.44.06-.73.26-1.19.32a9.16 9.16 0 0 1-1.57 0c-.81 0-2.38-.42-2.85-.46-.23 0-.43-.12-.38-.38a.25.25 0 0 1 .24-.22l1.16-.19a9.9 9.9 0 0 1 1.31-.1h.27a9.23 9.23 0 0 0-.33-1.47 73.15 73.15 0 0 0-12.08 1.29l-2.92-.27c-.08.33-.16.67-.23 1s-.15.71-.22 1.08h1.08a127.48 127.48 0 0 1 13.83 1.54c2 .33 4.17.6 6.29.94l.57.1a47.46 47.46 0 0 1 6.21 1.38q4.47 1.38 8.87 3a55 55 0 0 0 6.35-7.18z" fill="#ccca71"></path><path d="M83.51 91.39a47.46 47.46 0 0 0-6.21-1.38l-.57-.1c-2.12-.34-4.25-.61-6.29-.94a127.48 127.48 0 0 0-13.83-1.54h-1.08c-.13.67-.25 1.39-.36 2.14h1.25a45.92 45.92 0 0 1 6.06.48c1.88.27 3.21.51 5.36.88a1.14 1.14 0 0 1 1.1 1c.26 1.19-.67 1.64-1.75 1.75-2.16.21-9.43 2-13.19 2.15a42.49 42.49 0 0 1-7.27-.13c-.28 0-.54-.09-.8-.14-1.7-.38-3-1.1-4.72-1.34-1.08-.13-4.31-.4-4.44-1.88-.13-1.21 2.56-1.35 3.63-1.48 1.88-.27 3.9-.27 5.79-.67l.84-.13a31.39 31.39 0 0 1 3.41-.37l1.78-.06v-2.12-.13a109.45 109.45 0 0 0-36 6.27 54.67 54.67 0 0 0 76.14.76q-4.39-1.63-8.85-3.02z" fill="#e0e08c"></path><path d="M79.69 27.84c-.31 0-.6.12-.91.13-.91 0-1.57-.85-2.39-1.25a4.84 4.84 0 0 0-2.91-.13 9.52 9.52 0 0 0-2.51.65 4.34 4.34 0 0 1-1.12.45 9.19 9.19 0 0 1-.94 0 6.17 6.17 0 0 0-1.64.46 11 11 0 0 1-2.33.49c-1.08.12-2.17.15-3.24.27a7.47 7.47 0 0 0-2.71.58c-1 .56-.53.92.36 1a46 46 0 0 0 6.64-.09c2.14-.05 4.28-.1 6.42 0 1.81.05 3.63.23 5.45.14.82 0 7.78 0 7.79-.11s0-.36 0-.54c-1.32-.46-2.89-.11-4.05-.87-.64-.42-1.15-1.17-1.91-1.18z" fill="#fff"></path><path d="M47.03 90.02l-.84.13c-1.88.4-3.9.4-5.79.67-1.08.13-3.77.27-3.63 1.48.13 1.48 3.37 1.75 4.44 1.88 1.76.23 3 1 4.72 1.34a4.73 4.73 0 0 1-.73-2.54 4.18 4.18 0 0 1 1.83-2.96z" fill="#e0e08c"></path><path d="M54 95.8c3.77-.11 11-1.94 13.19-2.15 1.08-.11 2-.56 1.75-1.75a1.14 1.14 0 0 0-1.1-1c-2.15-.37-3.47-.61-5.36-.88a45.92 45.92 0 0 0-6.06-.48h-1.25c-.1.6-.19 1.22-.28 1.88h-2.64v-1.87l-1.78.06a31.39 31.39 0 0 0-3.41.37 4.18 4.18 0 0 0-1.83 3 4.73 4.73 0 0 0 .73 2.54c.25.06.52.11.8.14a42.49 42.49 0 0 0 7.24.14z" fill="#e0e08c"></path><path d="M68.94 91.9a1.14 1.14 0 0 0-1.1-1c-2.15-.37-3.47-.61-5.36-.88a45.92 45.92 0 0 0-6.06-.48h-1.25c-.1.6-.19 1.22-.28 1.88h-2.64v-1.87l-1.78.06a31.39 31.39 0 0 0-3.41.37l-.84.13c-1.88.4-3.9.4-5.79.67-1.08.13-3.77.27-3.63 1.48.13 1.48 3.37 1.75 4.44 1.88 1.76.23 3 1 4.72 1.34.25.06.52.11.8.14a42.49 42.49 0 0 0 7.27.13c3.77-.11 11-1.94 13.19-2.15 1.01-.06 2.01-.51 1.72-1.7z" fill="#e0e08c" style="mix-blend-mode:multiply"></path><path d="M52.23 87.33v.13l.34-.13h-.34z" fill="#875839"></path><path d="M74.13 66.51a4.37 4.37 0 0 1-.82-.36 14.79 14.79 0 0 1-2.27.67c-2.75.6-5.89 1.14-9.33 3.77a11.66 11.66 0 0 1 6.66-5.79A7.32 7.32 0 0 0 70 63.74a4.21 4.21 0 0 0-.46-.21 6.1 6.1 0 0 0-1.5-.31 34 34 0 0 0-4.54 1.76 12.61 12.61 0 0 0-3.77 3.3 23.61 23.61 0 0 0-2.89 5.39c0-1.19.41-3-.08-4.32a8 8 0 0 0-2.78-3.82 4.36 4.36 0 0 1-1.21-2.73h-2.11c-.13.86-.06 2.69 2.2 4.58 2.69 2.24.58 5 .65 5-1.33-1-4.56-2.16-7.18-3.13 0 0-3.07-.92-5.85-2.09a12 12 0 0 1-2.91-1.87l-.54.17a11.18 11.18 0 0 1-2 .39 9.71 9.71 0 0 0 3.84 2.75c4.15 1.92 8.55 2.91 11.21 5.16 0 0 2.64 2 2.44 6.95v4.39c0 .76-.07 1.52-.1 2.31h.34l-.34.13v3.99h2.64c.09-.66.19-1.28.28-1.88s.24-1.46.36-2.14c.07-.37.14-.73.22-1.08s.15-.69.23-1 .2-.84.31-1.23.22-.77.34-1.14a20.3 20.3 0 0 1 4.64-7.86 19.49 19.49 0 0 1 9.29-5.85 21.53 21.53 0 0 0 5.38-2.41 6.86 6.86 0 0 1-1.98-.43z" fill="#875839"></path><path d="M90.29 57.04a19.41 19.41 0 0 0-6.14 0c-2.32.45-4.11 2-6.33 2.4a53.5 53.5 0 0 1-15.68-.27c-1.92-.34-3.39-1.56-5.25-2-2.67-.57-6.49-.13-9.29-.29a28.4 28.4 0 0 0-11.21 1.08c-5.56 1.85-7.15-1.17-12.22-1.37-2.89-.11-7.7.91-10-1.59a4.4 4.4 0 0 1-.9-1.52 7.13 7.13 0 0 0 2.17 4c1.78 1.78 4.63 1.64 6.15 2.86 1.34 1.07 2.42 2.86 4.35 3.71a18 18 0 0 0 9 1.7 11.18 11.18 0 0 0 2-.39l.54-.17c3.28-1.05 4.42-2 8.9-2.38 1.4-.12 2.8-.16 4.19-.15h2.11c3.32.12 6.64.44 10 .52 1.58 0 3.57-.27 5.29-.1a6.1 6.1 0 0 1 1.5.31 4.21 4.21 0 0 1 .46.21c1.24.63 2.07 1.75 3.3 2.42a4.37 4.37 0 0 0 .82.36 6.86 6.86 0 0 0 1.81.3c3.11.09 5.16-2.17 8.21-2.91 1.15-.28 2.6.1 3.7-.49 2.08-1.12 1.43-3 2.82-4.3s4-1.81 5.25-3.19a8.45 8.45 0 0 1-5.55 1.25z" fill="#929933"></path><path d="M96.07 51.42c-1.09-1.36-4.2-2.16-5.53-4.43-2.13-3.65-4.57-5-8.68-5.65-3.75-.59-6.42 0-10.17-.68s-4.79-3.07-8.08-4c-4.19-1.24-9.7-.9-14-.67-5.18.42-11.4-.09-16.45 1.25-3.88 1-5.69 4.52-9.6 5.67-4.13 1.22-6.9 1.93-9.22 5.21a6.24 6.24 0 0 0-1 5.45 4.4 4.4 0 0 0 .9 1.52c2.27 2.5 7.07 1.48 10 1.59 5.07.19 6.66 3.22 12.22 1.37a28.4 28.4 0 0 1 11.21-1.08c2.8.16 6.62-.28 9.29.29 1.86.39 3.33 1.62 5.25 2a53.5 53.5 0 0 0 15.68.27c2.22-.38 4-2 6.33-2.4a19.41 19.41 0 0 1 6.14 0A8.45 8.45 0 0 0 96 56c1.23-1.05 1.7-2.56.07-4.58z" fill="#aab74f"></path><path d="M71.38 86.16c0-.14 0-.27-.06-.4h-.27a9.9 9.9 0 0 0-1.31.1l-1.16.19a.25.25 0 0 0-.24.22c-.06.26.14.35.38.38.47 0 2 .44 2.85.46a9.16 9.16 0 0 0 1.57 0c.46-.06.75-.26 1.19-.32a1.1 1.1 0 0 0 1-.41c0-.26-.55-.29-.78-.32-.41-.06-.84-.06-1.25-.15a6.91 6.91 0 0 0-.92-.11h-.39v.4h-.57z" fill="#ccca71"></path><path d="M71.38 86.16c0-.14 0-.27-.06-.4h-.27a9.9 9.9 0 0 0-1.31.1l-1.16.19a.25.25 0 0 0-.24.22c-.06.26.14.35.38.38.47 0 2 .44 2.85.46a9.16 9.16 0 0 0 1.57 0c.46-.06.75-.26 1.19-.32a1.1 1.1 0 0 0 1-.41c0-.26-.55-.29-.78-.32-.41-.06-.84-.06-1.25-.15a6.91 6.91 0 0 0-.92-.11h-.39v.4h-.57z" fill="#e0e08c" style="mix-blend-mode:multiply"></path><path d="M75.23 80.55h-.12a2.53 2.53 0 0 1-.62.41c-.6.25-1.26.45-1.26.45a8.2 8.2 0 0 0-1.55.67.81.81 0 0 1 .14-1.09 1.07 1.07 0 0 0 .47-1h-.47a1 1 0 0 1-.25.58 1.73 1.73 0 0 0-.6.82 2.55 2.55 0 0 0 0 .93 5.1 5.1 0 0 0-.62-1.16 2.72 2.72 0 0 0-.81-.71 7.3 7.3 0 0 0-1-.38 1.32 1.32 0 0 0-.33.07h-.09a1.57 1.57 0 0 0 .34.23 2.52 2.52 0 0 1 1.44 1.25 4.52 4.52 0 0 0-2-.81 3.19 3.19 0 0 1-.49-.15.9.9 0 0 1-.17.08 1.45 1.45 0 0 1-.39.06 4.63 4.63 0 0 0 1.16.52 4.2 4.2 0 0 1 2 1.26l.25.3a4.21 4.21 0 0 1 .66 1.14l.07.22a9.23 9.23 0 0 1 .33 1.47c0 .13 0 .26.06.4h.57v-.4-1.51-.19-.23a2.24 2.24 0 0 1 .14-.91 1.44 1.44 0 0 1 .39-.59 11.82 11.82 0 0 1 2.42-1.11 2.07 2.07 0 0 0 .83-.6 2.42 2.42 0 0 1-.5-.02z" fill="#875839"></path><path d="M62.54 78.51zM80.36 77.36s0 .01 0 0zM80.15 78.31c-.49.54-1.53.32-2.15.34-1.09 0-1.44.69-2.64.29a6.12 6.12 0 0 0-2.42-.23 15.11 15.11 0 0 0-2 .06c-.4.09-.72.35-1.13.42a11.54 11.54 0 0 1-3.38.06c-.48-.08-.87-.42-1.37-.52a4.19 4.19 0 0 0-1.32 0 1.85 1.85 0 0 1-1.2-.23c.28.29.84.41 1.12.68a2.8 2.8 0 0 0 .61.93 3.17 3.17 0 0 0 .8.11 6.87 6.87 0 0 0 1.77.62 1.45 1.45 0 0 0 .39-.06.9.9 0 0 0 .17-.08c.27-.15.46-.38.73-.51h.09a1.32 1.32 0 0 1 .33-.07h1.14c.72 0 1.43-.08 2.14-.11h1.38a6.39 6.39 0 0 1 1.91.51h.12a2.42 2.42 0 0 0 .44.08 3.87 3.87 0 0 0 1.94-.36 4.26 4.26 0 0 0 .94-.8 8.27 8.27 0 0 0 1.33-.62 1.54 1.54 0 0 0 .46-.86.93.93 0 0 1-.2.35z" fill="#929933"></path><path d="M80.34 77.99a1.1 1.1 0 0 0 0-.61 2.3 2.3 0 0 1 0 .61zM62.54 78.51z" fill="#aab74f"></path><path d="M80.35 77.34a1.58 1.58 0 0 0-.23-.53 3.1 3.1 0 0 0-2-1.12c-.84-.25-1.23-1-2.07-1.22a21.05 21.05 0 0 0-3.55-.27 9.69 9.69 0 0 0-3 .15c-.71.21-.92.73-1.74.87s-1.39 0-2.19.15a2.29 2.29 0 0 0-1.87 1.22 6.4 6.4 0 0 1-1.19 1 .6.6 0 0 0 0 1 1.85 1.85 0 0 0 1.2.23 4.19 4.19 0 0 1 1.32 0c.5.1.89.44 1.37.52a11.54 11.54 0 0 0 3.38-.06c.41-.07.73-.34 1.13-.42a15.11 15.11 0 0 1 2-.06 6.12 6.12 0 0 1 2.42.23c1.2.4 1.54-.25 2.64-.29.62 0 1.66.2 2.15-.34a.93.93 0 0 0 .18-.32 2.3 2.3 0 0 0 0-.61z" fill="#aab74f"></path><path d="M35.43 85.95v-.49h-.47a8.49 8.49 0 0 0-1.12.13c-.5.11-1 .11-1.53.18-.28 0-1 .07-1 .39s.89.46 1.18.5c.53.07.9.32 1.46.39a11.24 11.24 0 0 0 1.92 0c1 0 2.92-.51 3.49-.57.29 0 .53-.15.46-.46a.3.3 0 0 0-.29-.27c-.57-.1-.92-.16-1.42-.23a12.16 12.16 0 0 0-1.6-.13h-.28c0 .16-.05.32-.08.5h-.7z" fill="#ccca71"></path><path d="M35.43 85.95v-.49h-.47a8.49 8.49 0 0 0-1.12.13c-.5.11-1 .11-1.53.18-.28 0-1 .07-1 .39s.89.46 1.18.5c.53.07.9.32 1.46.39a11.24 11.24 0 0 0 1.92 0c1 0 2.92-.51 3.49-.57.29 0 .53-.15.46-.46a.3.3 0 0 0-.29-.27c-.57-.1-.92-.16-1.42-.23a12.16 12.16 0 0 0-1.6-.13h-.28c0 .16-.05.32-.08.5h-.7z" fill="#e0e08c" style="mix-blend-mode:multiply"></path><path d="M36.49 84.07h-.15.14zM41.23 79.34a1.11 1.11 0 0 1-.21-.1 3.92 3.92 0 0 1-.61.18 5.54 5.54 0 0 0-2.47 1 3.08 3.08 0 0 1 1.76-1.53 1.93 1.93 0 0 0 .42-.28l-.11-.06a1.62 1.62 0 0 0-.4-.08 9 9 0 0 0-1.2.46 3.34 3.34 0 0 0-1 .87 6.25 6.25 0 0 0-.77 1.43 3.13 3.13 0 0 0 0-1.14 2.13 2.13 0 0 0-.74-1 1.22 1.22 0 0 1-.3-.72h-.57a1.31 1.31 0 0 0 .58 1.21 1 1 0 0 1 .17 1.33 10.06 10.06 0 0 0-1.9-.83s-.81-.24-1.55-.55a3.14 3.14 0 0 1-.77-.5h-.15a3 3 0 0 1-.54.09 2.54 2.54 0 0 0 1 .74 14.51 14.51 0 0 1 3 1.37 2.17 2.17 0 0 1 .64 1.67v3.01h.7c0-.18.05-.33.08-.5s.08-.46.12-.67 0-.17 0-.25.07-.28.1-.42h-.14.15a6.06 6.06 0 0 1 .41-1.14 5.67 5.67 0 0 1 .92-1.32 5.16 5.16 0 0 1 2.46-1.55 5.69 5.69 0 0 0 1.43-.64 1.78 1.78 0 0 1-.51-.08z" fill="#875839"></path><path d="M47 76.53zM45.5 76.84a5.14 5.14 0 0 0-1.62 0c-.62.12-1.09.53-1.68.64a14.16 14.16 0 0 1-4.15-.07c-.51-.09-.9-.41-1.39-.52a18.55 18.55 0 0 0-2.46-.08 7.52 7.52 0 0 0-3 .29c-1.47.49-1.89-.31-3.23-.36-.76 0-2 .24-2.64-.42a1.16 1.16 0 0 1-.22-.36 1.89 1.89 0 0 0 .55 1 10.15 10.15 0 0 0 1.63.76 5.24 5.24 0 0 0 1.15 1 4.75 4.75 0 0 0 2.39.44 3 3 0 0 0 .54-.09h.15a7.88 7.88 0 0 1 2.35-.63H35.55c.87 0 1.74.11 2.62.13.42 0 .94-.07 1.4 0a1.62 1.62 0 0 1 .4.08l.11.06c.33.17.57.45.89.63a1.11 1.11 0 0 0 .21.1 1.78 1.78 0 0 0 .48.07c.82 0 1.37-.57 2.17-.77a3.89 3.89 0 0 0 1-.13c.55-.3.38-.79.74-1.14s1-.48 1.37-.83a2.26 2.26 0 0 1-1.44.2z" fill="#929933"></path><path d="M46.98 76.55zM47.03 75.35a7.84 7.84 0 0 1-1.46-1.17 2.81 2.81 0 0 0-2.3-1.5c-1-.15-1.7 0-2.69-.18s-1.27-.81-2.14-1.07a11.89 11.89 0 0 0-3.71-.18 25.83 25.83 0 0 0-4.35.33c-1 .27-1.51 1.2-2.54 1.5a3.81 3.81 0 0 0-2.44 1.38 1.63 1.63 0 0 0-.26 1.48 1.16 1.16 0 0 0 .22.36c.6.66 1.87.39 2.64.42 1.34.05 1.76.85 3.23.36a7.52 7.52 0 0 1 3-.29 18.55 18.55 0 0 1 2.46.08c.49.1.88.43 1.39.52a14.16 14.16 0 0 0 4.15.07c.59-.1 1.06-.52 1.68-.64a5.14 5.14 0 0 1 1.62 0 2.26 2.26 0 0 0 1.47-.28.73.73 0 0 0 .03-1.19z" fill="#aab74f"></path></g></svg>
