<svg id="6b4c236a-4c03-4653-8470-bdfbe2b986f6" data-name="Layer 1" xmlns="http://www.w3.org/2000/svg" xmlns:xlink="http://www.w3.org/1999/xlink" viewBox="0 0 108.36 108.9"><defs><clipPath id="35c696c6-2d1e-4e3e-842b-de79257fb741" transform="translate(-2835.21 -149.32)"><circle cx="2889.39" cy="203.5" r="54.18" fill="#9ae6e8"></circle></clipPath><clipPath id="9f66d315-15c8-448a-8d11-917d2695845d" transform="translate(-2835.21 -149.32)"><rect x="2861.99" y="229.49" width="55.08" height="4.46" fill="none"></rect></clipPath></defs><title>how_it_works_1</title><circle cx="54.18" cy="54.18" r="54.18" fill="#9ae6e8"></circle><g clip-path="url(#35c696c6-2d1e-4e3e-842b-de79257fb741)"><rect x="3.54" y="78.58" width="100.25" height="30.32" fill="#5bc4bf"></rect><path d="M2904.92,253.91H2851a3.36,3.36,0,0,1-3.36-3.36V243.9a3.36,3.36,0,0,1,3.36-3.36h53.9a3.36,3.36,0,0,1,3.36,3.36v6.65a3.36,3.36,0,0,1-3.36,3.36" transform="translate(-2835.21 -149.32)" fill="#e2e2e1"></path><path d="M2904.92,251.46H2851a3.36,3.36,0,0,1-3.36-3.36v-6.65a3.36,3.36,0,0,1,3.36-3.36h53.9a3.36,3.36,0,0,1,3.36,3.36v6.65a3.36,3.36,0,0,1-3.36,3.36" transform="translate(-2835.21 -149.32)" fill="#f2f2f2"></path><path d="M2853,242.53h-2.25a0.61,0.61,0,0,1-.69-0.47v-1.52a0.61,0.61,0,0,1,.69-0.47H2853a0.61,0.61,0,0,1,.69.47v1.52a0.61,0.61,0,0,1-.69.47" transform="translate(-2835.21 -149.32)" fill="#e2e2e1"></path><path d="M2857.76,242.53h-2.25a0.61,0.61,0,0,1-.69-0.47v-1.52a0.61,0.61,0,0,1,.69-0.47h2.25a0.61,0.61,0,0,1,.69.47v1.52a0.61,0.61,0,0,1-.69.47" transform="translate(-2835.21 -149.32)" fill="#e2e2e1"></path><path d="M2862.49,242.53h-2.25a0.61,0.61,0,0,1-.69-0.47v-1.52a0.61,0.61,0,0,1,.69-0.47h2.25a0.61,0.61,0,0,1,.69.47v1.52a0.61,0.61,0,0,1-.69.47" transform="translate(-2835.21 -149.32)" fill="#e2e2e1"></path><path d="M2867.23,242.53H2865a0.61,0.61,0,0,1-.69-0.47v-1.52a0.61,0.61,0,0,1,.69-0.47h2.25a0.61,0.61,0,0,1,.69.47v1.52a0.61,0.61,0,0,1-.69.47" transform="translate(-2835.21 -149.32)" fill="#e2e2e1"></path><path d="M2872,242.53h-2.25a0.61,0.61,0,0,1-.69-0.47v-1.52a0.61,0.61,0,0,1,.69-0.47H2872a0.61,0.61,0,0,1,.69.47v1.52a0.62,0.62,0,0,1-.69.47" transform="translate(-2835.21 -149.32)" fill="#e2e2e1"></path><path d="M2876.7,242.53h-2.25a0.61,0.61,0,0,1-.69-0.47v-1.52a0.61,0.61,0,0,1,.69-0.47h2.25a0.61,0.61,0,0,1,.69.47v1.52a0.61,0.61,0,0,1-.69.47" transform="translate(-2835.21 -149.32)" fill="#e2e2e1"></path><path d="M2881.43,242.53h-2.25a0.61,0.61,0,0,1-.69-0.47v-1.52a0.61,0.61,0,0,1,.69-0.47h2.25a0.61,0.61,0,0,1,.69.47v1.52a0.61,0.61,0,0,1-.69.47" transform="translate(-2835.21 -149.32)" fill="#e2e2e1"></path><path d="M2886.17,242.53h-2.25a0.61,0.61,0,0,1-.69-0.47v-1.52a0.61,0.61,0,0,1,.69-0.47h2.25a0.61,0.61,0,0,1,.69.47v1.52a0.61,0.61,0,0,1-.69.47" transform="translate(-2835.21 -149.32)" fill="#e2e2e1"></path><path d="M2890.9,242.53h-2.25a0.61,0.61,0,0,1-.69-0.47v-1.52a0.61,0.61,0,0,1,.69-0.47h2.25a0.61,0.61,0,0,1,.69.47v1.52a0.61,0.61,0,0,1-.69.47" transform="translate(-2835.21 -149.32)" fill="#e2e2e1"></path><path d="M2895.64,242.53h-2.25a0.61,0.61,0,0,1-.69-0.47v-1.52a0.61,0.61,0,0,1,.69-0.47h2.25a0.61,0.61,0,0,1,.69.47v1.52a0.61,0.61,0,0,1-.69.47" transform="translate(-2835.21 -149.32)" fill="#e2e2e1"></path><path d="M2900.37,242.53h-2.25a0.61,0.61,0,0,1-.69-0.47v-1.52a0.61,0.61,0,0,1,.69-0.47h2.25a0.61,0.61,0,0,1,.69.47v1.52a0.61,0.61,0,0,1-.69.47" transform="translate(-2835.21 -149.32)" fill="#e2e2e1"></path><path d="M2905.11,242.53h-2.25a0.61,0.61,0,0,1-.69-0.47v-1.52a0.61,0.61,0,0,1,.69-0.47h2.25a0.61,0.61,0,0,1,.69.47v1.52a0.61,0.61,0,0,1-.69.47" transform="translate(-2835.21 -149.32)" fill="#e2e2e1"></path><path d="M2862.49,249.77h-2.25a0.61,0.61,0,0,1-.69-0.47v-1.52a0.61,0.61,0,0,1,.69-0.47h2.25a0.61,0.61,0,0,1,.69.47v1.52a0.61,0.61,0,0,1-.69.47" transform="translate(-2835.21 -149.32)" fill="#e2e2e1"></path><path d="M2857.87,249.77h-2.25a0.61,0.61,0,0,1-.69-0.47v-1.52a0.61,0.61,0,0,1,.69-0.47h2.25a0.61,0.61,0,0,1,.69.47v1.52a0.61,0.61,0,0,1-.69.47" transform="translate(-2835.21 -149.32)" fill="#e2e2e1"></path><path d="M2867.23,249.77H2865a0.61,0.61,0,0,1-.69-0.47v-1.52a0.61,0.61,0,0,1,.69-0.47h2.25a0.61,0.61,0,0,1,.69.47v1.52a0.61,0.61,0,0,1-.69.47" transform="translate(-2835.21 -149.32)" fill="#e2e2e1"></path><path d="M2872,249.77h-2.25a0.61,0.61,0,0,1-.69-0.47v-1.52a0.61,0.61,0,0,1,.69-0.47H2872a0.61,0.61,0,0,1,.69.47v1.52a0.62,0.62,0,0,1-.69.47" transform="translate(-2835.21 -149.32)" fill="#e2e2e1"></path><path d="M2876.7,249.77h-2.25a0.61,0.61,0,0,1-.69-0.47v-1.52a0.61,0.61,0,0,1,.69-0.47h2.25a0.61,0.61,0,0,1,.69.47v1.52a0.61,0.61,0,0,1-.69.47" transform="translate(-2835.21 -149.32)" fill="#e2e2e1"></path><path d="M2881.43,249.77h-2.25a0.61,0.61,0,0,1-.69-0.47v-1.52a0.61,0.61,0,0,1,.69-0.47h2.25a0.61,0.61,0,0,1,.69.47v1.52a0.61,0.61,0,0,1-.69.47" transform="translate(-2835.21 -149.32)" fill="#e2e2e1"></path><path d="M2886.17,249.77h-2.25a0.61,0.61,0,0,1-.69-0.47v-1.52a0.61,0.61,0,0,1,.69-0.47h2.25a0.61,0.61,0,0,1,.69.47v1.52a0.61,0.61,0,0,1-.69.47" transform="translate(-2835.21 -149.32)" fill="#e2e2e1"></path><path d="M2890.9,249.77h-2.25a0.61,0.61,0,0,1-.69-0.47v-1.52a0.61,0.61,0,0,1,.69-0.47h2.25a0.61,0.61,0,0,1,.69.47v1.52a0.61,0.61,0,0,1-.69.47" transform="translate(-2835.21 -149.32)" fill="#e2e2e1"></path><path d="M2895.64,249.77h-2.25a0.61,0.61,0,0,1-.69-0.47v-1.52a0.61,0.61,0,0,1,.69-0.47h2.25a0.61,0.61,0,0,1,.69.47v1.52a0.61,0.61,0,0,1-.69.47" transform="translate(-2835.21 -149.32)" fill="#e2e2e1"></path><path d="M2900.37,249.77h-2.25a0.61,0.61,0,0,1-.69-0.47v-1.52a0.61,0.61,0,0,1,.69-0.47h2.25a0.61,0.61,0,0,1,.69.47v1.52a0.61,0.61,0,0,1-.69.47" transform="translate(-2835.21 -149.32)" fill="#e2e2e1"></path><path d="M2905.11,249.77h-2.25a0.61,0.61,0,0,1-.69-0.47v-1.52a0.61,0.61,0,0,1,.69-0.47h2.25a0.61,0.61,0,0,1,.69.47v1.52a0.61,0.61,0,0,1-.69.47" transform="translate(-2835.21 -149.32)" fill="#e2e2e1"></path><path d="M2855.39,246.15h-2.25a0.61,0.61,0,0,1-.69-0.47v-1.52a0.61,0.61,0,0,1,.69-0.47h2.25a0.61,0.61,0,0,1,.69.47v1.52a0.61,0.61,0,0,1-.69.47" transform="translate(-2835.21 -149.32)" fill="#e2e2e1"></path><path d="M2860.13,246.15h-2.25a0.61,0.61,0,0,1-.69-0.47v-1.52a0.61,0.61,0,0,1,.69-0.47h2.25a0.61,0.61,0,0,1,.69.47v1.52a0.61,0.61,0,0,1-.69.47" transform="translate(-2835.21 -149.32)" fill="#e2e2e1"></path><path d="M2864.86,246.15h-2.25a0.61,0.61,0,0,1-.69-0.47v-1.52a0.61,0.61,0,0,1,.69-0.47h2.25a0.61,0.61,0,0,1,.69.47v1.52a0.62,0.62,0,0,1-.69.47" transform="translate(-2835.21 -149.32)" fill="#e2e2e1"></path><path d="M2869.6,246.15h-2.25a0.61,0.61,0,0,1-.69-0.47v-1.52a0.61,0.61,0,0,1,.69-0.47h2.25a0.61,0.61,0,0,1,.69.47v1.52a0.61,0.61,0,0,1-.69.47" transform="translate(-2835.21 -149.32)" fill="#e2e2e1"></path><path d="M2874.33,246.15h-2.25a0.61,0.61,0,0,1-.69-0.47v-1.52a0.61,0.61,0,0,1,.69-0.47h2.25a0.61,0.61,0,0,1,.69.47v1.52a0.61,0.61,0,0,1-.69.47" transform="translate(-2835.21 -149.32)" fill="#e2e2e1"></path><path d="M2879.07,246.15h-2.25a0.61,0.61,0,0,1-.69-0.47v-1.52a0.61,0.61,0,0,1,.69-0.47h2.25a0.61,0.61,0,0,1,.69.47v1.52a0.61,0.61,0,0,1-.69.47" transform="translate(-2835.21 -149.32)" fill="#e2e2e1"></path><path d="M2883.8,246.15h-2.25a0.61,0.61,0,0,1-.69-0.47v-1.52a0.61,0.61,0,0,1,.69-0.47h2.25a0.61,0.61,0,0,1,.69.47v1.52a0.61,0.61,0,0,1-.69.47" transform="translate(-2835.21 -149.32)" fill="#e2e2e1"></path><path d="M2888.54,246.15h-2.25a0.61,0.61,0,0,1-.69-0.47v-1.52a0.61,0.61,0,0,1,.69-0.47h2.25a0.61,0.61,0,0,1,.69.47v1.52a0.62,0.62,0,0,1-.69.47" transform="translate(-2835.21 -149.32)" fill="#e2e2e1"></path><path d="M2893.27,246.15H2891a0.61,0.61,0,0,1-.69-0.47v-1.52a0.61,0.61,0,0,1,.69-0.47h2.25a0.61,0.61,0,0,1,.69.47v1.52a0.61,0.61,0,0,1-.69.47" transform="translate(-2835.21 -149.32)" fill="#e2e2e1"></path><path d="M2898,246.15h-2.25a0.61,0.61,0,0,1-.69-0.47v-1.52a0.61,0.61,0,0,1,.69-0.47H2898a0.61,0.61,0,0,1,.69.47v1.52a0.61,0.61,0,0,1-.69.47" transform="translate(-2835.21 -149.32)" fill="#e2e2e1"></path><path d="M2902.74,246.15h-2.25a0.61,0.61,0,0,1-.69-0.47v-1.52a0.61,0.61,0,0,1,.69-0.47h2.25a0.61,0.61,0,0,1,.69.47v1.52a0.61,0.61,0,0,1-.69.47" transform="translate(-2835.21 -149.32)" fill="#e2e2e1"></path><path d="M2915.85,243.6h-0.69v-5.95a1,1,0,0,0-.82-1.14h-49.58a1.89,1.89,0,0,1,0-3.69h9.5v0.69h-9.5a1,1,0,0,0-.82,1.14,1,1,0,0,0,.82,1.17h49.58a1.7,1.7,0,0,1,1.51,1.83v5.95Z" transform="translate(-2835.21 -149.32)" fill="#f4f4f4"></path><g opacity="0.1"><g clip-path="url(#9f66d315-15c8-448a-8d11-917d2695845d)"><path d="M2917.08,231.4a2.55,2.55,0,0,1-2.55,2.55h-50a2.55,2.55,0,0,1-2.55-2.55V232a2.55,2.55,0,0,1,2.55-2.55h50a2.55,2.55,0,0,1,2.55,2.55V231.4h0Z" transform="translate(-2835.21 -149.32)"></path></g></g><rect x="46.24" y="69.29" width="16.13" height="14.29" fill="#e2e2e1"></rect><rect x="37.49" y="82.05" width="33.64" height="2.82" fill="#f4f4f4"></rect><path d="M2923.87,223.2a2.55,2.55,0,0,1-2.55,2.55h-63.61a2.55,2.55,0,0,1-2.55-2.55V181a2.55,2.55,0,0,1,2.55-2.55h63.61a2.55,2.55,0,0,1,2.55,2.55V223.2h0Z" transform="translate(-2835.21 -149.32)" fill="#f4f4f4"></path><path d="M2923.87,213.27V172.91a2.55,2.55,0,0,0-2.55-2.55h-63.61a2.55,2.55,0,0,0-2.55,2.55v42.21a2.54,2.54,0,0,0,0,.41v3h68.67v-5.28h0Z" transform="translate(-2835.21 -149.32)" fill="#575757"></path><rect x="23.62" y="25.25" width="61.37" height="39.95" fill="#fff"></rect><g id="2d7e9371-1660-4927-aeb0-2cbc34887e54" data-name="Layer 4"><path d="M2895.52,200.28a1.08,1.08,0,0,0-1.14-.25,1.61,1.61,0,0,0,.59,1.08,2,2,0,0,0,1.34.43A1.67,1.67,0,0,0,2895.52,200.28Zm-11.42,3a2.28,2.28,0,0,0-.3,1.7s0.62,0.17,1.4-.84a2.35,2.35,0,0,0,.46-2A2.69,2.69,0,0,0,2884.1,203.24Zm-2.4-2.32a1.61,1.61,0,0,0-.59,1.08,1.08,1.08,0,0,0,1.14-.25,1.67,1.67,0,0,0,.78-1.26A1.92,1.92,0,0,0,2881.7,200.92Zm7.06,2a2.15,2.15,0,0,0-.7,1.49,2.56,2.56,0,0,0,.6,1.76,2.2,2.2,0,0,0,.73-1.83C2889.35,203.14,2888.76,203,2888.76,203Zm4.15,0a1.6,1.6,0,0,0,.21,1.21,2,2,0,0,0,1.13.83,1.66,1.66,0,0,0-.33-1.43A1.07,1.07,0,0,0,2892.91,202.94Zm2.61-14.07a1.67,1.67,0,0,0,.78-1.26,1.92,1.92,0,0,0-1.34.43,1.61,1.61,0,0,0-.59,1.08A1.08,1.08,0,0,0,2895.52,188.86Zm-13.39,1a1.67,1.67,0,0,0-.78-1.26,1.08,1.08,0,0,0-1.14-.25,1.61,1.61,0,0,0,.59,1.08A1.9,1.9,0,0,0,2882.13,189.87Zm2.53-2.77a1.66,1.66,0,0,0-.33-1.43,1.06,1.06,0,0,0-1-.6,1.6,1.6,0,0,0,.21,1.21A1.91,1.91,0,0,0,2884.66,187.1Zm8.62-.89a2.28,2.28,0,0,0,.46-2,2.71,2.71,0,0,0-1.56,1.14,2.18,2.18,0,0,0-.29,1.69S2892.5,187.23,2893.27,186.21Zm-4.66-.89a2.05,2.05,0,0,0-.68-1.69,2.39,2.39,0,0,0-.56,1.62,2,2,0,0,0,.65,1.37A1.27,1.27,0,0,0,2888.62,185.32Z" transform="translate(-2835.21 -149.32)" fill="#36abb7"></path><path d="M2888.82,188.75a5.9,5.9,0,1,0,5.9,5.9A5.9,5.9,0,0,0,2888.82,188.75Zm0,11.11a5.22,5.22,0,1,1,5.2-5.22A5.2,5.2,0,0,1,2888.82,199.87Z" transform="translate(-2835.21 -149.32)" fill="#db7e58"></path><path d="M2888.89,190.37a4.32,4.32,0,1,0,4.31,4.32A4.33,4.33,0,0,0,2888.89,190.37Z" transform="translate(-2835.21 -149.32)" fill="#36abb7"></path><path d="M2875.53,200.45l-1.75-7.3,3.13-.75,0.27,1.11-2,.49,0.48,2,1.48-.35,0.27,1.11-1.48.35,0.48,2,2-.49,0.27,1.11Z" transform="translate(-2835.21 -149.32)" fill="#4b4a4b"></path><path d="M2880.94,199.39a1.73,1.73,0,0,1-1.34-.3,1.78,1.78,0,0,1-.73-1.16l-0.68-4a1.73,1.73,0,0,1,.3-1.34,1.76,1.76,0,0,1,1.16-.73,1.76,1.76,0,0,1,2.05,1.46l0.14,0.84-1.16.19-0.14-.87a0.63,0.63,0,0,0-.27-0.43,0.59,0.59,0,0,0-.49-0.11,0.57,0.57,0,0,0-.41.27,0.66,0.66,0,0,0-.11.49l0.72,4.07a0.6,0.6,0,0,0,.25.41,0.63,0.63,0,0,0,.48.11,0.67,0.67,0,0,0,.43-0.25,0.57,0.57,0,0,0,.11-0.48l-0.17-1,1.16-.19,0.17,1a1.73,1.73,0,0,1-.3,1.34A1.82,1.82,0,0,1,2880.94,199.39Z" transform="translate(-2835.21 -149.32)" fill="#4b4a4b"></path><path d="M2898.84,197.53a2,2,0,0,1-.6,1.26,1.57,1.57,0,0,1-.84.41,1.73,1.73,0,0,1-.64,0,1.76,1.76,0,0,1-1-.49,1.84,1.84,0,0,1-.46-0.81,2.68,2.68,0,0,1-.08-1.08l1.08,0.08a1.57,1.57,0,0,0,.21,1,0.6,0.6,0,0,0,.43.29,0.7,0.7,0,0,0,.64-0.27,0.83,0.83,0,0,0,.19-0.48,1.38,1.38,0,0,0-.29-1c-0.19-.24-0.48-0.6-0.84-1.1a4.27,4.27,0,0,1-.64-1.08,2.47,2.47,0,0,1-.1-1.08,1.84,1.84,0,0,1,.92-1.43,1.74,1.74,0,0,1,1.08-.16,1.93,1.93,0,0,1,1,.43,1.5,1.5,0,0,1,.45.67,2.05,2.05,0,0,1,.11.89l-1.1,0a1.22,1.22,0,0,0-.16-0.75,0.54,0.54,0,0,0-.41-0.25,0.5,0.5,0,0,0-.51.21,1,1,0,0,0-.21.52,1.68,1.68,0,0,0,.29,1.1,6,6,0,0,0,.43.56,4.89,4.89,0,0,1,.45.54,3.78,3.78,0,0,1,.51.91,2,2,0,0,1,.11.38A3,3,0,0,1,2898.84,197.53Z" transform="translate(-2835.21 -149.32)" fill="#4b4a4b"></path><path d="M2900.18,199.74l-1.11-.22,1.51-7.35,1.11,0.22Z" transform="translate(-2835.21 -149.32)" fill="#4b4a4b"></path><path d="M2902.54,198.51l-0.7,1.61-1.14-.29,3.1-6.93,1.51,0.38-0.65,7.57-1.14-.3,0.17-1.73Zm1.59-3.78-1.14,2.75,0.81,0.21Z" transform="translate(-2835.21 -149.32)" fill="#4b4a4b"></path></g><g id="38d3ddf7-d2c9-4411-9b22-fe610c6bfa10" data-name="Layer 3"><path d="M2893.1,195.56a0.2,0.2,0,0,0,0,.1s0-.1,0-0.16h0A0.17,0.17,0,0,0,2893.1,195.56Z" transform="translate(-2835.21 -149.32)" fill="#d3da31"></path><path d="M2890.13,196.35a0.53,0.53,0,0,0-.27.43,0.25,0.25,0,0,0,.11.11,0.4,0.4,0,0,0,.24-0.52Z" transform="translate(-2835.21 -149.32)" fill="#d3da31"></path><path d="M2888.06,190.87l-0.25-.08a1.78,1.78,0,0,1-.7,0,5.15,5.15,0,0,0-.51.27,0.35,0.35,0,0,1,.08.13,0.56,0.56,0,0,0-.1.35,0.23,0.23,0,0,0,.11.16,1.13,1.13,0,0,0,.48-0.16l0.49-.08C2887.85,191.36,2888.19,191.09,2888.06,190.87Z" transform="translate(-2835.21 -149.32)" fill="#d3da31"></path><path d="M2885.53,194.84l-0.24-.35a1.46,1.46,0,0,0-.68-0.45,4.34,4.34,0,0,0,0,.65,4.2,4.2,0,0,0,.51,2l0.14-.13,0.21-.33a3.29,3.29,0,0,0,.38-0.27l0.11-.3a0.63,0.63,0,0,0,.19-0.4A1.5,1.5,0,0,0,2885.53,194.84Z" transform="translate(-2835.21 -149.32)" fill="#d3da31"></path><path d="M2885.63,192.17a0.58,0.58,0,0,0,.33,0,0.72,0.72,0,0,0,0-.54,0.29,0.29,0,0,1,0-.11,4.28,4.28,0,0,0-.73.87l0.17,0A1.32,1.32,0,0,0,2885.63,192.17Z" transform="translate(-2835.21 -149.32)" fill="#d3da31"></path><path d="M2892,191.69a1.73,1.73,0,0,0-.29,0,11.37,11.37,0,0,1-1.35.14,4.5,4.5,0,0,0-1.07-.25,1.12,1.12,0,0,0-.54.33c-0.11.17,0,.29-0.17,0.38a1.36,1.36,0,0,1-.32-0.21,0.29,0.29,0,0,0-.22.13,4.11,4.11,0,0,0,.13.41,1.72,1.72,0,0,0-.32.25,1.58,1.58,0,0,1-.1.41c-0.14.13-.29,0.27-0.41,0.4a0.9,0.9,0,0,0,.06,1.08,2.06,2.06,0,0,0,.73.14,0.93,0.93,0,0,1,.27.62,1.65,1.65,0,0,1-.08.68c0,0.27.1,1,.48,1a1.2,1.2,0,0,0,.76-0.73,1.17,1.17,0,0,0,.27-0.29c0-.14,0-0.3,0-0.45a2.19,2.19,0,0,1,.56-0.52,1,1,0,0,0,.1-0.46,0,0,0,0,0,0,0l0.4-.22a2.77,2.77,0,0,1,.19-0.22l0.14,0c0.49,0.25.32,0.76,0.67,1l0.08,0a0.78,0.78,0,0,0,0-.22,0.49,0.49,0,0,1,.52-0.33,1.35,1.35,0,0,1,.33.54,2,2,0,0,1-.1.46,0.8,0.8,0,0,0,.16.4,2.67,2.67,0,0,0,.14-0.51,0.2,0.2,0,0,0,0-.1,0.23,0.23,0,0,0,0-.06h0A4.24,4.24,0,0,0,2892,191.69Zm-2.37,2a0.44,0.44,0,0,1-.25-0.08l-0.35,0s-0.57-.45-0.59-0.48a0.19,0.19,0,0,1,.11-0.11,1.55,1.55,0,0,1,.4.24l0.22,0,0.24,0.17a1.14,1.14,0,0,0,.3.06s0,0,0,0v0.08Z" transform="translate(-2835.21 -149.32)" fill="#d3da31"></path><path d="M2889,193.57l-0.59-.48S2889,193.57,2889,193.57Z" transform="translate(-2835.21 -149.32)" fill="#d3da31"></path></g><rect x="76.81" y="95.2" width="6.96" height="12.26" rx="3.34" ry="3.34" fill="#e2e2e1"></rect><rect x="76.81" y="93.94" width="6.96" height="12.26" rx="3.34" ry="3.34" fill="#f2f2f2"></rect></g></svg>
