<svg xmlns="http://www.w3.org/2000/svg" xmlns:xlink="http://www.w3.org/1999/xlink" width="120" height="120" viewBox="0 0 120 120">
    <defs>
        <circle id="a" cx="60" cy="60" r="60"/>
    </defs>
    <g fill="none" fill-rule="evenodd">
        <mask id="b" fill="#fff">
            <use xlink:href="#a"/>
        </mask>
        <use fill="#B9DADB" xlink:href="#a"/>
        <g mask="url(#b)">
            <g transform="translate(6 6.429)">
                <circle cx="54" cy="54" r="54" fill="#B9DADB"/>
                <g transform="translate(16.714 24)">
                    <path fill="#F9F9F9" fill-rule="nonzero" d="M74.904 44.9v4.162a2.783 2.783 0 0 1-2.775 2.775H2.774A2.783 2.783 0 0 1 0 49.062V44.9h74.904zm-36.065 3.238c0-.787-.601-1.388-1.387-1.388s-1.387.601-1.387 1.388c0 .786.6 1.387 1.387 1.387.786 0 1.387-.648 1.387-1.387z"/>
                    <path fill="#9B9B9B" fill-rule="nonzero" d="M74.904 3.125v42.083H0V3.125A2.783 2.783 0 0 1 2.774.35H72.13a2.753 2.753 0 0 1 2.775 2.775zm-3.237 38.846V3.588H3.237V41.97h68.43z"/>
                    <path fill="#777" fill-rule="nonzero" d="M24.879 56.472h24.968v3.7H24.879zM49.846 56.468H24.88c2.404 0 3.56-2.775 3.56-4.625h17.847c0 1.804 1.156 4.625 3.56 4.625z"/>
                    <ellipse cx="37.259" cy="48.023" fill="#777" fill-rule="nonzero" rx="1.387" ry="1.387"/>
                    <path fill="#D8D8D8" fill-rule="nonzero" d="M74.904 4.512a2.783 2.783 0 0 0-2.775-2.774H2.774A2.783 2.783 0 0 0 0 4.512V3.125A2.783 2.783 0 0 1 2.774.35H72.13a2.783 2.783 0 0 1 2.775 2.775v1.387z" opacity=".25"/>
                    <path fill="#4A4A4A" fill-rule="nonzero" d="M28.35 51.843h18.217v1.942H28.35z" opacity=".25"/>
                    <path fill="#D8D8D8" fill-rule="nonzero" d="M24.879 56.472h24.968v1.85H24.879z" opacity=".25"/>
                    <path stroke="#4A4A4A" stroke-linecap="round" stroke-linejoin="round" stroke-width="1.851" d="M72.13 52.145H2.773A2.783 2.783 0 0 1 0 49.37V3.125A2.783 2.783 0 0 1 2.774.35H72.13a2.783 2.783 0 0 1 2.775 2.775V49.37a2.783 2.783 0 0 1-2.775 2.775z"/>
                    <path fill="#FFF" stroke="#4A4A4A" stroke-linecap="round" stroke-linejoin="round" stroke-width="1.851" d="M3.429 4.286h68.43v38.383H3.429z"/>
                    <path stroke="#9B9B9B" stroke-linejoin="round" stroke-width=".686" d="M14.143 16.629h7.97M15.792 17.914h6.321"/>
                    <path stroke="#9B9B9B" stroke-linejoin="round" stroke-width="1.286" d="M28.137 8.914h18.428"/>
                    <path stroke="#9B9B9B" stroke-linejoin="round" stroke-width=".686" d="M14.143 29.486h7.97M15.792 30.771h6.321M52.714 16.629h7.97M52.714 17.914h6.322M52.714 29.486h7.97M52.714 30.771h6.322"/>
                    <ellipse cx="37.259" cy="48.023" stroke="#4A4A4A" stroke-linecap="round" stroke-linejoin="round" stroke-width=".926" rx="1.387" ry="1.387"/>
                    <path stroke="#4A4A4A" stroke-linecap="round" stroke-linejoin="round" stroke-width="1.851" d="M24.879 56.472h24.968v3.7H24.879zM24.879 56.853c2.404 0 3.56-2.774 3.56-4.624M49.653 56.853c-2.404 0-3.56-2.774-3.56-4.624"/>
                    <path fill="#5CA9B2" d="M37.499 12.028c3.203 0 6.408 1.222 8.852 3.666a12.463 12.463 0 0 1 3.037 4.924l-11.89 3.928V12.028z"/>
                    <path fill="#FF6C6C" d="M37.375 12.028a12.48 12.48 0 0 0-8.851 3.666c-3.934 3.934-4.703 9.835-2.305 14.537a12.51 12.51 0 0 0 2.305 3.167l8.851-8.852V12.028z"/>
                    <path fill="#B9DADB" d="M28.705 33.521c4.888 4.888 12.814 4.888 17.703 0l-8.852-8.852-8.851 8.852z"/>
                    <path fill="#FFF" d="M29.45 22.44v.283h-.171v.242h-.32v-.242h-.696v-.21l.372-.916h.326l-.322.843h.32v-.376h.32v.376h.17zm.595.25h.489v.275h-.976v-.163l.46-.531c.103-.12.17-.195.17-.278 0-.068-.047-.134-.16-.134-.104 0-.164.064-.174.172h-.324c.008-.281.201-.46.513-.46s.48.185.48.424c0 .131-.074.242-.237.425l-.241.27zm1.104-1.12c.233 0 .41.166.41.403 0 .24-.177.404-.41.404-.235 0-.414-.165-.414-.404 0-.237.179-.402.414-.402zm1.104.027l-.913 1.368h-.217l.913-1.368h.217zm-1.104.567c.1 0 .19-.076.19-.19a.187.187 0 0 0-.19-.192.186.186 0 0 0-.191.191c0 .115.086.191.191.191zm1.104.02c.235 0 .412.165.412.403 0 .239-.177.404-.412.404a.395.395 0 0 1-.412-.404c0-.238.179-.403.412-.403zm0 .596a.188.188 0 0 0 .191-.193.187.187 0 0 0-.19-.19.185.185 0 0 0-.19.19c0 .116.087.193.19.193zM40.993 18.842h.318v.275h-.987v-.275h.342v-.728l-.322.098v-.308l.446-.154h.203v1.092zm.966-.614c.307 0 .488.193.488.445 0 .281-.21.47-.518.47-.302 0-.503-.173-.533-.432h.32c.026.094.098.153.219.153.118 0 .203-.075.203-.19 0-.11-.089-.182-.228-.182h-.444v-.742h.917v.29h-.611l-.002.188h.189zm1.112-.505c.233 0 .41.165.41.403 0 .239-.177.404-.41.404-.235 0-.414-.165-.414-.404 0-.238.179-.403.414-.403zm1.104.027l-.913 1.367h-.217l.913-1.367h.217zm-1.104.567c.1 0 .189-.077.189-.191a.187.187 0 0 0-.19-.191.186.186 0 0 0-.19.19c0 .115.086.192.19.192zm1.104.02c.235 0 .412.165.412.402 0 .24-.177.404-.412.404a.395.395 0 0 1-.412-.404c0-.237.179-.402.412-.402zm0 .595a.188.188 0 0 0 .191-.193.187.187 0 0 0-.191-.189.185.185 0 0 0-.189.19c0 .116.086.192.189.192z"/>
                    <path fill="#BCC773" d="M49.388 20.822a12.517 12.517 0 0 1-3.037 12.78l-8.852-8.852 11.889-3.928z"/>
                    <path fill="#FFF" d="M44.334 27.086h.318v.276h-.988v-.276h.342v-.728l-.322.099v-.308l.447-.155h.203v1.092zm.322-1.092h.997v.191l-.525 1.177h-.37l.483-1.064h-.585v-.304zm1.566-.026c.234 0 .41.165.41.402 0 .24-.176.405-.41.405-.235 0-.414-.165-.414-.405 0-.237.179-.402.414-.402zm1.104.026l-.913 1.368h-.217l.913-1.368h.217zm-1.104.567c.1 0 .19-.076.19-.19a.187.187 0 0 0-.19-.192.186.186 0 0 0-.19.191c0 .115.086.191.19.191zm1.104.02c.236 0 .413.165.413.403 0 .239-.177.404-.413.404a.395.395 0 0 1-.412-.404c0-.238.18-.403.412-.403zm0 .596a.188.188 0 0 0 .191-.193.187.187 0 0 0-.19-.19.185.185 0 0 0-.19.19c0 .116.087.193.19.193zM35.376 32.583h.489v.275h-.975v-.163l.46-.53c.103-.121.17-.196.17-.278 0-.069-.047-.135-.16-.135-.104 0-.165.064-.175.173h-.324c.008-.282.202-.46.513-.46.312 0 .48.185.48.424 0 .13-.073.241-.236.424l-.242.27zm1.175-.684c.303.016.509.221.509.483 0 .285-.226.502-.553.502-.33 0-.552-.22-.552-.496 0-.113.047-.218.117-.332l.356-.565h.384l-.261.408zm-.044.714a.224.224 0 0 0 .233-.22.225.225 0 0 0-.233-.22.28.28 0 0 0-.161.046l-.008.014c-.049.068-.067.112-.067.163 0 .112.097.217.236.217zm1.027-1.148c.234 0 .41.164.41.402 0 .24-.176.404-.41.404-.235 0-.414-.165-.414-.404 0-.238.179-.402.414-.402zm1.104.026l-.913 1.367h-.217l.913-1.367h.217zm-1.104.567c.1 0 .19-.077.19-.191a.187.187 0 0 0-.19-.191.186.186 0 0 0-.19.19c0 .115.086.192.19.192zm1.104.02c.236 0 .413.165.413.402 0 .24-.177.404-.413.404a.395.395 0 0 1-.412-.404c0-.237.18-.402.412-.402zm0 .595a.188.188 0 0 0 .191-.193.187.187 0 0 0-.19-.189.185.185 0 0 0-.19.19c0 .116.087.192.19.192z"/>
                </g>
            </g>
        </g>
    </g>
</svg>
