<svg xmlns="http://www.w3.org/2000/svg" width="176" height="38" viewBox="0 0 176 38">
                            <g fill="#9B9B9B" fill-rule="evenodd" stroke="#9B9B9B">
                                <path d="M1.092 25.68h.528c.352 1.728.808 3.184 1.368 4.368.56 1.184 1.176 2.16 1.848 2.928.672.768 1.376 1.36 2.112 1.776.736.416 1.48.72 2.232.912.752.192 1.472.304 2.16.336.688.032 1.336.048 1.944.048 1.696 0 3.088-.256 4.176-.768s1.952-1.16 2.592-1.944a6.983 6.983 0 0 0 1.344-2.544c.256-.912.384-1.752.384-2.52 0-1.12-.208-2.08-.624-2.88a6.92 6.92 0 0 0-1.584-2.04 8.869 8.869 0 0 0-2.088-1.368 14.409 14.409 0 0 0-2.136-.816l-5.52-1.68c-2.592-.8-4.552-1.856-5.88-3.168-1.328-1.312-1.992-3.072-1.992-5.28 0-1.44.256-2.776.768-4.008a9.392 9.392 0 0 1 2.16-3.192c.928-.896 2.04-1.6 3.336-2.112C9.516 1.216 10.932.96 12.468.96c1.12 0 2.056.096 2.808.288.752.192 1.4.408 1.944.648l1.464.648a3.22 3.22 0 0 0 1.32.288c.416 0 .696-.056.84-.168.144-.112.344-.392.6-.84h.672v8.688h-.576a14.276 14.276 0 0 0-.984-3.336 10.297 10.297 0 0 0-1.8-2.832 8.429 8.429 0 0 0-2.664-1.968c-1.04-.496-2.248-.744-3.624-.744-.768 0-1.616.104-2.544.312a8.03 8.03 0 0 0-2.592 1.08A6.477 6.477 0 0 0 5.34 5.04c-.528.832-.792 1.888-.792 3.168 0 1.024.208 1.896.624 2.616.416.72.952 1.328 1.608 1.824a9.873 9.873 0 0 0 2.208 1.248c.816.336 1.64.632 2.472.888l5.808 1.824c.608.192 1.376.448 2.304.768.928.32 1.832.8 2.712 1.44.88.64 1.632 1.488 2.256 2.544.624 1.056.936 2.4.936 4.032 0 1.504-.28 2.936-.84 4.296a10.75 10.75 0 0 1-2.424 3.6c-1.056 1.04-2.336 1.872-3.84 2.496-1.504.624-3.2.936-5.088.936-.672 0-1.264-.008-1.776-.024a13.093 13.093 0 0 1-1.44-.12 39.102 39.102 0 0 1-1.344-.216c-.448-.08-.944-.2-1.488-.36a50.374 50.374 0 0 1-2.064-.672c-.736-.256-1.376-.384-1.92-.384-.48 0-.808.096-.984.288a2.501 2.501 0 0 0-.456.768h-.72V25.68zM42.268 7.434l-6.78 16.878h13.56l-6.78-16.878zm-16.1 27.894h4.224L44.352.96h1.152L58.56 35.328h4.272V36H48.048v-.672h5.328l-4.04-10.344H35.2l-4.04 10.344h5.328V36h-10.32v-.672zM67 35.328h5.328V2.496H67v-.672h15.456v.672h-5.328v32.832h8.544c2.816 0 5.024-.88 6.624-2.64 1.6-1.76 2.768-4.16 3.504-7.2h.528V36H67v-.672zM107.316 18.864c0 2.88.192 5.392.576 7.536.384 2.144 1.024 3.936 1.92 5.376.896 1.44 2.048 2.512 3.456 3.216 1.408.704 3.152 1.056 5.232 1.056 2.048 0 3.784-.352 5.208-1.056 1.424-.704 2.584-1.776 3.48-3.216.896-1.44 1.536-3.232 1.92-5.376.384-2.144.576-4.656.576-7.536 0-2.208-.144-4.344-.432-6.408-.288-2.064-.84-3.904-1.656-5.52-.816-1.616-1.952-2.904-3.408-3.864s-3.352-1.44-5.688-1.44-4.232.48-5.688 1.44c-1.456.96-2.592 2.248-3.408 3.864-.816 1.616-1.368 3.456-1.656 5.52a46.336 46.336 0 0 0-.432 6.408zm-6.52 0c0-2.56.504-4.928 1.512-7.104s2.304-4.064 3.888-5.664a18.16 18.16 0 0 1 5.352-3.768C113.532 1.416 116.516.96 118.5.96c2.112 0 5.168.456 7.168 1.368 2 .912 3.784 2.168 5.352 3.768 1.568 1.6 2.824 3.488 3.768 5.664.944 2.176 1.416 4.544 1.416 7.104 0 2.24-.432 4.432-1.296 6.576a19.072 19.072 0 0 1-3.552 5.712 18.003 18.003 0 0 1-5.304 4.032c-2.032 1.024-5.216 1.536-7.552 1.536-2.4 0-5.624-.496-7.672-1.488a17.13 17.13 0 0 1-5.304-3.96c-1.488-1.648-2.648-3.552-3.48-5.712a18.475 18.475 0 0 1-1.248-6.696zM138.68 35.328h5.328V2.496h-5.328v-.672h10.272l20.224 26.16.096-25.488h-5.328v-.672h11.376v.672h-5.328v34.176h-.96L144.824 4.464l-.096 30.864h5.328V36H138.68z"></path>
                            </g>
                        </svg>
