<svg xmlns="http://www.w3.org/2000/svg" width="484" height="141" viewBox="0 0 484 141">
                            <g fill="#9B9B9B" fill-rule="nonzero">
                                <path d="M249.602 139.975c-2.81-.678-5.473-2.955-6.97-5.961-.994-1.997-1.34-3.984-1.878-10.78-.988-12.477-2.049-13.693-11.953-13.695h-5.631V136.856h4.227c4.084 0 4.222.04 4.06 1.181l-.167 1.182h-14.93c-14.582 0-14.931-.024-14.931-1.05 0-.954.4-1.065 4.322-1.204l4.322-.152v-56.17h-4.208c-3.374 0-4.27-.166-4.529-.84-.177-.463.007-1.05.41-1.306.974-.619 30.906-.594 36.825.03 6.42.677 9.829 1.858 12.713 4.404 3.284 2.9 4.34 5.409 4.354 10.349.023 7.863-3.445 11.854-13.085 15.058-.5.166-.094.51 1.115.944 4.345 1.558 7.864 4.909 9.372 8.923.326.867.924 4.255 1.33 7.528.82 6.605 1.466 8.428 3.319 9.354 2.687 1.343 5.08-1.255 5.658-6.14.276-2.34.437-2.599 1.616-2.599 1.285 0 1.304.06 1.02 3.202-.41 4.544-2.182 7.744-5.125 9.263-2.705 1.396-8.01 1.943-11.256 1.16zm10.9-2.581c1.042-.716 1.787-1.41 1.655-1.541-.13-.132-.517.04-.858.382-.341.342-1.495.621-2.564.621-1.512 0-2.235-.346-3.252-1.557-1.359-1.62-1.555-2.43-2.479-10.255-.307-2.597-.979-5.67-1.493-6.83-1.434-3.232-5.016-6.384-8.653-7.616-4.364-1.478-4.798-1.392-3.274.648 1.758 2.353 1.878 2.915 2.4 11.276.622 9.961 2.055 13.326 6.593 15.475 3.131 1.482 9.348 1.168 11.925-.603zm-38.38-14.197v-14.71h6.514c3.583 0 7.096.222 7.806.493 1.07.408 1.336.318 1.556-.525.158-.604.718-1.018 1.38-1.018 1.915 0 7.441-2.103 9.799-3.73 7.817-5.393 6.851-17.35-1.752-21.691-2.357-1.19-7.84-2.413-10.635-2.373-2.41.035-2.39.145.122.7 2.53.56 5.037 3.279 5.961 6.467 1.247 4.3.846 12.693-.764 16.01-2.027 4.176-3.687 4.847-12.522 5.06l-7.465.181V79.594H211.17l-.036 29.156-.037 29.157H222.122v-14.71zm42.75 4.345c-.174-.174-.298.136-.275.69.025.612.15.736.316.317.152-.379.133-.832-.041-1.007zm-29.02-21.177c4.545-1.266 7.132-6.905 6.555-14.288-.694-8.88-4.412-11.715-14.849-11.324l-4.126.154-.14 13.003-.14 13.002 5.378-.003c2.958-.002 6.253-.247 7.322-.544zm92.616 32.825c-14.723-4.097-23.761-16.966-22.888-32.59.9-16.07 12.924-28.56 28.389-29.485 7.226-.432 12.886 1.365 17.727 5.627l1.707 1.503 1.94-3.114c1.327-2.127 2.276-3.113 2.997-3.113 1.032 0 1.053.273.915 11.951-.132 11.253-.198 11.952-1.115 11.952-.773 0-1.24-.921-2.256-4.447-.704-2.446-1.881-5.556-2.616-6.91-1.87-3.444-6.146-7.583-9.583-9.276-2.472-1.217-3.572-1.431-7.359-1.431-3.633 0-4.92.23-6.988 1.251-4.401 2.173-6.969 6.987-8.529 15.99-1.086 6.266-.746 21.604.583 26.34 1.854 6.602 4.484 10.369 8.591 12.3 2.529 1.189 3.595 1.374 7.653 1.333 5.373-.056 8.036-.863 12.142-3.682 3.192-2.19 5.91-6.013 7.529-10.586.996-2.814 1.345-3.283 2.443-3.283 1.172 0 1.25.146.914 1.707-1.773 8.245-6.785 14.502-13.86 17.303-3.8 1.504-13.983 1.87-18.336.66zm7.596-.768c-7.493-.601-11.056-2.786-13.776-8.448-4.935-10.278-4.758-33.43.334-43.645 1.527-3.063 2.436-4.193 4.464-5.553 3.31-2.218 2.308-2.168-2.657.132-9.268 4.294-15.76 13.1-17.443 23.66-.619 3.882-.395 6.972.871 12.024 3.262 13.016 15.448 22.365 28.993 22.243l3.929-.036-4.715-.377zm22.152-53.67l-.15-5.349-1.996 3.248c-2.2 3.58-3.453 4.09-4.838 1.97-.459-.702-1.466-1.69-2.239-2.194-.772-.505-.153.365 1.375 1.933 3.246 3.331 6.093 8.705 7.034 13.277l.665 3.233.149-5.384c.082-2.962.082-7.792 0-10.734zm-20.973-6.585c-.793-.12-2.09-.12-2.882 0-.792.12-.144.219 1.441.219s2.233-.099 1.44-.22zm129.634 59.083c-1.113-1.517-9.169-12.687-17.903-24.822-8.735-12.136-16.091-22.297-16.347-22.58-.272-.302-.404 8.835-.318 21.979l.148 22.494 1.47 1.268c1.166 1.006 2.061 1.267 4.338 1.267 2.147 0 2.95.212 3.19.841.177.463-.007 1.053-.41 1.312-.401.259-5.21.412-10.684.341-9.879-.129-9.955-.138-10.12-1.312-.159-1.113.015-1.182 2.982-1.182 2.575 0 3.42-.231 4.62-1.267l1.47-1.267.144-23.818c.132-21.95.07-23.96-.786-25.62-1.364-2.644-3.32-3.85-6.698-4.13-2.626-.219-2.914-.36-2.772-1.359.155-1.087.413-1.118 10.453-1.257l10.293-.142 1.539 1.981c.846 1.09 7.096 9.782 13.889 19.317 6.793 9.535 12.718 17.81 13.166 18.387.742.957.817-.536.832-16.703l.017-17.754-1.286-1.29c-1.085-1.088-1.787-1.29-4.49-1.29-3.022 0-3.194-.066-3.036-1.181.167-1.18.188-1.182 10.383-1.182 10.195 0 10.216.002 10.383 1.182.158 1.115-.014 1.182-3.036 1.182-2.703 0-3.404.201-4.49 1.289l-1.285 1.29v56.784h-1.817c-1.586 0-2.074-.35-3.84-2.758zm4.608-27.145l.262-28.503 1.237-1.004 1.236-1.004h-6.354l1.285 1.29 1.286 1.289v19.461c0 15.97-.126 19.462-.706 19.462-.388 0-7.357-9.338-15.488-20.751l-14.781-20.751-7.17.002-7.17.002 1.708 1.044c.939.574 2.18 1.814 2.756 2.756 1.017 1.659 1.045 2.492.912 26.756l-.137 25.043-1.27 1.355-1.27 1.355h6.128l-1.27-1.355-1.27-1.355-.147-23.903c-.137-22.371-.088-23.892.755-23.729.943.182 5.793 6.707 27.903 37.533 9.48 13.219 10.037 13.933 10.687 13.716.458-.153.684-7.54.878-28.709zM.361 139.145c-.198-.2-.361-.766-.361-1.259 0-.692.6-.954 2.636-1.15 4.776-.46 3.63 1.95 17.557-36.916 3.934-10.98 7.373-20.377 7.643-20.883.498-.934 2.835-1.244 3.9-.517.31.212 4.98 12.915 10.376 28.23 7.54 21.392 10.115 28.116 11.12 29.024.95.858 1.959 1.182 3.674 1.182 2.152 0 2.35.106 2.197 1.182l-.167 1.182H31.695l-.168-1.182c-.156-1.101.026-1.182 2.686-1.182 1.707 0 3.081-.275 3.42-.685.421-.508-.104-2.641-2.03-8.254-1.43-4.162-2.599-7.642-2.599-7.733 0-.09-3.83-.1-8.513-.02l-8.513.144-2.19 6.304c-1.206 3.467-2.208 6.82-2.227 7.449-.059 1.874 1.335 2.795 4.229 2.795 2.416 0 2.605.092 2.451 1.182-.165 1.165-.294 1.185-8.843 1.326-4.771.079-8.838-.02-9.037-.219zm11.033-1.805c-.684-.4-.92-1.228-.928-3.268l-.012-2.732-.97 2.143c-.534 1.178-1.621 2.656-2.417 3.283l-1.446 1.141 3.345-.016c2.528-.012 3.121-.147 2.428-.551zm40.553-.657c-1.028-1.097-4.082-9.375-17.09-46.32-3.841-10.911-3.776-10.77-4.959-10.77-.716 0-1.191.528-1.54 1.708-.276.94-1.427 4.217-2.556 7.283-1.678 4.558-1.893 5.533-1.176 5.345.7-.183 1.263.872 2.776 5.195 4.488 12.824 6.15 18.038 5.993 18.798-.092.445.109 1.046.447 1.335.727.623 5.448 14.757 5.448 16.313 0 .592-.282 1.36-.628 1.707-.49.49 1.045.63 6.901.63h7.53l-1.146-1.224zm-36.041-18.476c-.166-.434-.395-.788-.508-.788-.113 0-.206.354-.206.788 0 .433.229.788.508.788s.371-.355.206-.788zm15.931-1.445c-.127-.361-1.725-5.09-3.551-10.507-1.826-5.418-3.456-9.85-3.623-9.85-.29 0-7.375 19.81-7.375 20.62 0 .217 3.325.394 7.39.394 5.686 0 7.337-.152 7.16-.657zm28.244 22.382c-.198-.199-.36-.795-.36-1.324 0-.811.436-.965 2.75-.97 1.513-.005 3.291-.153 3.95-.33 2.683-.72 2.73-1.233 2.73-29.582V80.645H64.4c-4.628 0-4.747-.031-4.584-1.182.167-1.18.193-1.183 11.543-1.324l11.375-.142.71 1.455c.39.8 3.993 9.888 8.007 20.194 4.015 10.306 7.456 18.46 7.648 18.119.191-.34 3.342-9.128 7.002-19.527 3.66-10.399 6.894-19.207 7.19-19.574.408-.509 3.044-.634 11.07-.525 10.42.14 10.538.154 10.7 1.302.158 1.107-.035 1.167-4.19 1.313l-4.356.153-.135 27.975-.136 27.974h4.494c4.36 0 4.489.035 4.327 1.182l-.168 1.182h-29.86l-.168-1.182c-.162-1.146-.034-1.182 4.322-1.182h4.49l-.025-25.347c-.024-24.68-.049-25.286-.939-22.984-.503 1.3-4.676 13.305-9.274 26.678-8.02 23.328-8.41 24.309-9.608 24.166-1.136-.135-2.125-2.438-11.123-25.89C77.279 99.32 72.732 87.5 72.606 87.21c-.126-.289-.248 10.183-.27 23.27l-.042 23.796 1.286 1.29c1.085 1.088 1.787 1.29 4.49 1.29 3.022 0 3.194.066 3.036 1.181-.167 1.175-.236 1.183-10.416 1.325-5.637.078-10.41-.02-10.609-.22zm12.77-2.156c-.623-.506-1.35-1.865-1.618-3.021-.267-1.156-.49-13.035-.498-26.399-.012-23.247.03-24.297.952-24.297 1.054 0 1-.133 16.811 41.24 2.65 6.934 4.994 12.787 5.208 13.006.215.22 1.767-3.563 3.45-8.405 3.61-10.388 3.703-10.686 2.917-9.46-.324.505-.892.919-1.261.919-.548 0-9.114-20.886-15.567-37.956l-1.142-3.021H70.199v27.344c0 23.105-.12 27.577-.775 28.846-.426.827-1.074 1.624-1.44 1.771-.367.148.833.288 2.666.31 3.253.041 3.305.02 2.2-.877zm52.354-28.238V79.594h-5.5c-3.026 0-5.5.09-5.5.198 0 .11-.348 1.031-.772 2.049-.736 1.767-.724 1.837.262 1.579 1.018-.267 1.033.121 1.033 27.108v27.38h10.477V108.75zm15.216 29.973c-1.143-1.38-.05-1.867 4.199-1.867h4.16V80.645h-4.16c-4.249 0-5.342-.486-4.2-1.867.548-.66 4.257-.75 26.109-.634l25.47.137.143 10.469c.078 5.758-.06 10.67-.306 10.918-.896.898-2-.199-2.64-2.622-1.211-4.588-4.627-10.924-6.977-12.94-2.991-2.568-4.764-3.016-13.14-3.32l-7.202-.26v27.049l3.798-.247c2.089-.136 4.516-.62 5.395-1.078 1.98-1.031 4.397-5.342 4.872-8.69.288-2.027.56-2.499 1.524-2.636l1.174-.168v13.712c0 12.088-.099 13.75-.838 14.034-1.086.418-1.587-.448-1.993-3.443-.398-2.933-2.14-6.139-4.145-7.63-1.134-.843-2.441-1.142-5.632-1.287l-4.155-.19v27.024l7.203-.218c8.386-.252 10.682-1.005 14.171-4.647 2.416-2.521 5.274-7.708 6.65-12.066 1.047-3.317 2.076-4.698 2.89-3.88.345.345.488 4.6.398 11.798l-.142 11.257-25.995.137c-22.31.117-26.084.027-26.631-.634zm20.408-15.263v-14.447h4.9c4.237 0 5.139.163 6.678 1.203 2.09 1.411 4.002 4.645 4.626 7.828.301 1.531.452-1.477.468-9.294.022-10.924-.018-11.405-.723-8.78-.83 3.096-2.644 6.066-4.498 7.368-.867.61-2.716.92-6.338 1.066l-5.113.206V79.594H149.827v58.313H160.828V123.46zm31.394 4.597l-.038-9.85-.972 2.74c-2.922 8.241-7.744 14.495-12.366 16.039l-2.564.856 7.99.033 7.988.032-.038-9.85zm-1.01-39.27v-9.193l-7.465.017-7.465.017 2.786.965c1.532.53 3.585 1.742 4.561 2.691 2.082 2.023 4.987 7.395 6.314 11.676.515 1.662 1.012 3.02 1.103 3.02.092 0 .166-4.136.166-9.193zm78.415 50.354c-.197-.197-.358-.792-.358-1.321 0-.859.485-.964 4.453-.964h4.453V80.645h-4.49c-4.355 0-4.484-.036-4.321-1.182l.167-1.182H299.393l.167 1.182c.162 1.142.025 1.182-4.06 1.182h-4.227v56.211h4.227c4.085 0 4.222.04 4.06 1.182l-.167 1.182-14.704.14c-8.087.076-14.865-.022-15.061-.22zm20.196-30.39l.14-29.157h-10.74v58.313h10.46l.14-29.157zm69.914 30.394c-.199-.2-.362-.796-.362-1.325 0-.762.412-.965 1.965-.971 2.747-.011 4.392-.994 5.725-3.422.63-1.148 5.287-13.626 10.347-27.729 5.061-14.103 9.446-26.1 9.746-26.661.548-1.029 2.839-1.387 3.939-.617.303.212 1.885 4.168 3.515 8.791l9.815 27.844c7.605 21.574 7.728 21.801 11.854 21.801 2.153 0 2.35.106 2.197 1.182l-.167 1.182h-27.241l-.168-1.182c-.152-1.075.045-1.182 2.184-1.182 3.06 0 4.008-.4 4.008-1.694 0-.582-1.092-4.22-2.426-8.087l-2.427-7.03h-16.89l-2.246 6.699c-1.236 3.684-2.238 7.221-2.226 7.861.028 1.522 1.479 2.251 4.476 2.251 2.22 0 2.414.102 2.261 1.182-.165 1.165-.294 1.185-8.842 1.326-4.772.079-8.838-.02-9.037-.219zm11.033-1.805c-.687-.402-.917-1.22-.918-3.268v-2.732l-1.106 2.241c-.609 1.233-1.701 2.71-2.428 3.284l-1.321 1.042 3.345-.016c2.527-.012 3.12-.147 2.428-.551zm40.54-.67c-.735-.785-4.753-11.387-11-29.025-11.25-31.763-10.886-31.11-13.43-24.006-.806 2.254-2 5.548-2.652 7.32-1.134 3.082-1.142 3.21-.184 2.96.55-.145 1.001-.156 1.001-.024 0 .131 1.776 5.411 3.945 11.734 2.17 6.322 3.87 11.856 3.78 12.299-.092.442.114 1.04.458 1.33.7.588 5.438 14.885 5.438 16.41 0 .538-.283 1.262-.629 1.609-.489.49 1.045.63 6.902.63h7.53l-1.159-1.237zm-36.067-18.726c-.15-.578-.337-1.05-.413-1.05-.077 0-.263.472-.414 1.05-.171.657-.016 1.05.414 1.05s.585-.393.413-1.05zm15.968-1.182c-.128-.361-1.744-5.088-3.592-10.503-1.848-5.416-3.484-9.849-3.636-9.85-.275-.004-7.335 19.866-7.325 20.616.003.216 3.33.394 7.395.394 5.687 0 7.337-.152 7.158-.657zM19.996 62.486c-2.898-.782-8.003-3.846-9.154-5.494-.598-.857-.85-.653-2.666 2.16-1.294 2.004-2.36 3.106-3.005 3.106-.958 0-.995-.482-.86-11.427.133-10.74.2-11.426 1.117-11.426.773 0 1.24.922 2.258 4.457C9.904 51.567 13.849 56.82 19.2 59.194c8.726 3.871 17.995-.708 17.995-8.889 0-5.259-3.983-8.947-13.187-12.212C13.964 34.53 8.841 30.962 6.28 25.746c-1.108-2.257-1.291-3.366-1.296-7.88-.006-4.836.116-5.475 1.533-8.04 1.927-3.488 4.815-6.133 8.613-7.888C17.594.798 18.841.575 22.79.564c4.079-.012 5.149.186 7.937 1.47 1.772.815 3.879 2.17 4.682 3.01.802.84 1.613 1.527 1.802 1.527.188 0 .984-1.182 1.768-2.627.953-1.756 1.762-2.626 2.44-2.626.97 0 1.016.457 1.016 10.018 0 9.907-.013 10.016-1.11 9.85-.837-.127-1.331-.88-2.009-3.057-2.077-6.68-5.108-10.974-9.4-13.316C19.91-.647 9.326 7.259 15.005 15.95c1.895 2.9 4.015 4.156 13.095 7.754 9.405 3.727 13.131 6.435 15.82 11.498 1.28 2.407 1.396 3.133 1.396 8.668 0 5.084-.18 6.431-1.132 8.498C40.31 60.77 29.85 65.145 19.996 62.486zm6.329-.576c-.36-.146-.95-.146-1.31 0-.36.145-.066.265.655.265.72 0 1.015-.12.655-.265zM9.649 54.619c.604-.453.425-1.177-1.044-4.231-.975-2.027-2.111-5.09-2.526-6.808-.738-3.061-.754-2.918-.783 7.12l-.03 10.244 1.827-2.89c1.005-1.588 2.155-3.135 2.556-3.435zm28.448 3.091c5.437-4.068 7.878-13.077 5.367-19.807-2.135-5.723-6.758-9.392-16.549-13.134-6.678-2.553-9.58-4.122-11.853-6.412-3.994-4.023-4.02-10.322-.059-14.125l1.499-1.44-1.734.869c-2.884 1.444-5.75 4.414-7.274 7.538-3.172 6.502-1.076 15.148 4.725 19.491 3.382 2.532 5.634 3.65 11.67 5.795 6.555 2.33 10.624 4.691 12.651 7.342 1.565 2.047 1.703 2.538 1.703 6.092 0 4.557-.392 5.774-2.716 8.428-1.575 1.8-1.615 1.922-.428 1.306.72-.374 2.07-1.248 2.998-1.943zm-24.476-.379c0-.109-.413-.523-.917-.92-.831-.653-.85-.634-.198.2.684.874 1.115 1.152 1.115.72zM41.277 7.203l-.153-4.047-1.329 2.364c-1.025 1.823-1.628 2.362-2.635 2.353l-1.305-.012 1.63 2.43c.898 1.337 2.083 4.02 2.635 5.963l1.004 3.532.153-4.268c.083-2.348.083-6.09 0-8.315zM23.149 1.484c-.379-.152-.83-.133-1.004.042-.175.174.135.298.687.275.61-.025.735-.15.317-.317zm47.574 60.86c-4.814-1.605-7.437-3.233-11.052-6.862-5.956-5.979-8.836-13.698-8.839-23.694-.002-9.686 2.942-17.265 9.099-23.419C65.709 2.594 72.478-.08 80.139.385 85.1.687 88.693 2.208 91.7 5.28l2.275 2.325 2.005-3.18c1.39-2.206 2.282-3.126 2.912-3.005.827.16.907 1.19.907 11.726 0 11.256-.028 11.554-1.078 11.705-.938.135-1.195-.346-1.99-3.732-1.846-7.85-5.55-13.747-10.243-16.309-3.95-2.155-7.56-2.392-11.174-.733-4.493 2.063-7.516 7.005-9.128 14.922-1.15 5.648-1.146 19.95.007 25.617 1.49 7.316 4.627 12.561 8.908 14.892 2.56 1.394 9.296 1.232 12.649-.304 4.836-2.216 8.019-6.227 10.186-12.837.898-2.74 1.39-3.546 2.167-3.546 1.333 0 1.33 2.039-.005 5.934-2.184 6.365-5.613 10.394-10.976 12.897-2.58 1.204-3.723 1.391-9.23 1.514-4.969.11-6.891-.062-9.168-.821zm8.88-.58c-8.085-.682-12.375-5.506-14.747-16.58-1.006-4.697-.833-23.085.262-27.915 1.728-7.618 5.56-13.38 9.801-14.735 2.424-.774.43-.874-2.363-.118-8.598 2.326-15.847 9.615-18.94 19.045-1.954 5.957-2.07 14.495-.274 20.308 3.966 12.836 13.75 20.494 26.025 20.372l4.19-.042-3.954-.334zm18.885-49.53V3.19l-1.901 3.048c-1.457 2.335-2.132 2.987-2.888 2.789-.87-.228-.84-.085.25 1.217.682.811 1.922 3.62 2.758 6.244.835 2.623 1.578 4.774 1.65 4.781.072.007.131-4.058.131-9.033zM80.283 1.473c-.648-.125-1.709-.125-2.357 0-.648.125-.118.228 1.179.228 1.296 0 1.827-.103 1.178-.228zm372.807 61.1c-4.493-1.29-7.522-3.174-11.479-7.136-5.453-5.461-7.913-10.793-8.868-19.223C430.44 15.885 443.983-.626 462.128.388c4.882.273 8.873 2.048 11.726 5.215 1.11 1.231 2.083 1.918 2.274 1.604A535 535 0 0 0 478.033 4c.936-1.583 1.947-2.665 2.499-2.671.863-.01.917.804.785 11.941-.117 9.976-.265 11.952-.893 11.952-.5 0-1.214-1.61-2.12-4.772-3.087-10.779-7.927-16.41-14.93-17.373-7.287-1.002-13.063 4.71-15.223 15.053-1.185 5.671-1.544 15.58-.798 22 1.164 10.019 3.782 15.662 8.684 18.714 2.267 1.411 2.972 1.576 6.763 1.576 3.567 0 4.698-.23 7.198-1.46 4.723-2.326 7.864-6.45 9.895-12.987.702-2.261 1.156-2.928 2.085-3.068 1.133-.17 1.172-.062.842 2.364-.496 3.646-3.545 9.73-6.219 12.412-1.26 1.264-3.693 2.988-5.406 3.832-2.858 1.407-3.634 1.543-9.402 1.644-3.967.07-7.178-.146-8.703-.584zm8.441-.818c-2.16-.189-4.811-.77-5.89-1.292-3.876-1.873-6.803-6.53-8.614-13.702-1.343-5.319-1.343-24.626 0-29.945 1.84-7.289 4.682-11.741 8.884-13.92l2.215-1.15-1.833.263c-5.272.757-12.375 5.148-15.886 9.82-9.615 12.795-8.666 31.696 2.137 42.53 5.547 5.563 11.09 7.867 18.726 7.786l4.19-.045-3.929-.345zm18.842-49.273l-.017-9.325-1.894 3.021c-1.042 1.661-2.168 3.02-2.503 3.02-.352 0 .117 1.495 1.114 3.547.947 1.95 2 4.787 2.341 6.304.34 1.517.7 2.758.798 2.758.098 0 .171-4.196.161-9.325zM462.186 1.472c-.648-.125-1.709-.125-2.357 0-.648.125-.118.228 1.179.228 1.296 0 1.827-.103 1.178-.228zM104.868 61.084c.157-1.113.452-1.2 4.49-1.343l4.322-.153V3.987l-4.322-.153c-4.038-.142-4.333-.23-4.49-1.343l-.169-1.19 15.1.14c14.703.136 15.098.167 15.098 1.19 0 .953-.4 1.065-4.322 1.203l-4.322.153v55.601l4.322.153c3.922.138 4.322.25 4.322 1.203 0 1.023-.395 1.054-15.099 1.19l-15.099.14.169-1.19zm20.337-29.296V2.368h-10.477v58.839h10.477v-29.42zm15.287 29.287c.155-1.093.47-1.193 4.228-1.335l4.06-.153V3.988l-4.06-.153c-3.758-.142-4.073-.242-4.228-1.335l-.167-1.182h50.888v10.77c0 10.256-.047 10.769-1.002 10.769-.775 0-1.26-.803-2.143-3.546-2.624-8.154-5.326-12.095-9.686-14.131-2.33-1.088-3.4-1.226-9.564-1.23l-6.941-.006v26.267h3.536c4.89-.002 6.782-1.042 8.673-4.771.818-1.613 1.62-3.918 1.78-5.122.25-1.87.474-2.19 1.534-2.19h1.24V45.447h-1.31c-1.102 0-1.309-.246-1.309-1.556 0-2.378-1.928-7.022-3.538-8.52-1.866-1.735-4.32-2.532-7.803-2.532h-2.803v26.894l7.203-.182c6.776-.171 7.35-.269 9.69-1.648 3.922-2.312 7.118-7.035 9.85-14.557 1.1-3.03 1.686-3.979 2.536-4.108 1.096-.166 1.105-.072 1.105 11.426v11.595h-51.936l.167-1.183zm50.702-10.244l-.02-10.375-1.257 3.541c-2.845 8.017-6.469 13.132-10.857 15.325-2.56 1.279-3.182 1.36-10.491 1.36h-7.77l.03-14.579c.017-8.018.024-21.138.015-29.156l-.015-14.579H149.827v58.839h41.386l-.02-10.376zM177.53 31.656c-.04-8.094-.212-11.849-.473-10.297-.588 3.493-2.66 7.347-4.686 8.721-1.42.962-2.534 1.196-5.99 1.258l-4.244.075 4.208.37c2.314.204 4.672.622 5.239.93 2.876 1.562 5.484 6.377 5.484 10.125 0 .857.118 1.558.262 1.558.144 0 .234-5.733.2-12.74zm12.635-20.094V2.368l-8.513.066c-6.133.047-7.752.177-5.792.464 3.18.466 5.71 1.905 8.048 4.576 1.961 2.24 4.349 7.09 5.277 10.721.36 1.408.727 2.56.817 2.56.09 0 .163-4.137.163-9.193zm9 49.513c.146-1.033.551-1.216 3.23-1.455 2.198-.196 3.269-.557 3.797-1.282.608-.833.737-5.31.737-25.608V8.132l-1.784-1.952c-1.575-1.723-2.144-1.984-4.846-2.225-2.678-.24-3.083-.422-3.23-1.455l-.167-1.182H218.2l12.223 17.572c6.722 9.664 13.033 18.707 14.023 20.094l1.8 2.522-.144-17.967c-.11-13.826-.3-18.124-.82-18.645-.373-.373-2.023-.798-3.668-.945-2.606-.233-3.012-.42-3.158-1.45l-.167-1.181H257.294l-.167 1.182c-.146 1.03-.552 1.216-3.158 1.449-1.645.147-3.295.572-3.667.945-.533.534-.708 6.716-.821 29.02l-.144 28.344-1.952-.01-1.95-.01-17.55-24.74-17.55-24.74-.15 6.231c-.083 3.428-.083 13.477 0 22.332.14 14.975.22 16.177 1.148 17.205.746.826 1.623 1.105 3.472 1.105 2.49 0 4.083.973 3.402 2.078-.215.348-3.784.548-9.773.548h-9.435l.167-1.182zm13.144-.238c-.643-.124-1.645-.833-2.227-1.575-1.026-1.308-1.058-2.067-1.058-24.919 0-25.143-.003-25.117 2.452-22.387.584.65 5.656 7.683 11.27 15.629a10069.46 10069.46 0 0 0 13.2 18.65 2403.73 2403.73 0 0 1 6.764 9.565c2.279 3.24 4.134 5.37 4.688 5.384.862.021.916-1.643.916-27.777 0-15.29.154-28.201.34-28.69.188-.49 1.072-1.209 1.965-1.599 1.527-.666 1.357-.708-2.828-.696-3.39.01-4.152.134-3.191.519 2.64 1.059 2.632.995 2.65 21.662.015 16.827-.084 19.322-.76 19.175-.427-.094-2.254-2.322-4.06-4.951-1.806-2.63-8.23-11.908-14.274-20.62L217.166 2.368l-8.393.06c-5.276.039-7.645.206-6.38.451 1.275.247 2.715 1.095 3.93 2.313l1.916 1.922v25.362c0 23.132-.08 25.484-.904 26.746-.497.76-1.44 1.486-2.095 1.612-.656.127.93.23 3.523.23s4.19-.102 3.547-.227zm57.055.238c.156-1.102.46-1.192 4.49-1.334l4.321-.153V3.944l-2.226.012c-6.338.033-11.6 5.776-14.331 15.642-.78 2.814-1.078 3.284-2.002 3.152-1.057-.152-1.086-.433-1.086-10.663V1.58l26.063-.136 26.062-.136V12.05c0 10.558-.273 12.318-1.692 10.895-.304-.305-1.198-2.567-1.987-5.028-3.043-9.488-7.524-13.96-14.001-13.97l-1.703-.004v55.643l4.06.153c3.757.142 4.072.242 4.227 1.335l.168 1.183h-30.531l.168-1.183zm20.458-28.857c-.11-22.947-.001-29.077.524-29.411.365-.233-6.35-.426-14.921-.43l-15.585-.009.029 8.8.03 8.8 1.477-4.104c2.014-5.595 4.806-9.528 8.117-11.432 2.21-1.271 3.253-1.53 6.194-1.533l3.536-.005v58.313h10.74l-.14-28.989zm19.786-20.656V2.368l-9.3.075c-6.663.053-8.333.176-5.893.433 1.873.198 4.13.74 5.016 1.205 3.63 1.906 7.655 8.084 9.196 14.114.36 1.408.728 2.56.818 2.56.09 0 .163-4.137.163-9.193zm4.808 49.522c.156-1.104.462-1.202 4.228-1.344l4.06-.153V3.988l-4.06-.153c-3.766-.142-4.072-.24-4.228-1.344l-.169-1.19 15.1.14c14.702.136 15.098.167 15.098 1.19 0 .953-.4 1.065-4.322 1.203l-4.322.153v55.601l4.322.153c3.922.138 4.322.25 4.322 1.203 0 1.023-.396 1.054-15.099 1.19l-15.099.14.169-1.19zm20.337-29.296V2.368h-10.739v58.839h10.74v-29.42zm13.716 29.287c.155-1.093.47-1.193 4.227-1.335l4.06-.153V3.988l-4.06-.153c-3.757-.142-4.072-.242-4.227-1.335l-.168-1.182h48.793v10.77c0 10.268-.047 10.769-1.005 10.769-.752 0-1.23-.697-1.892-2.758-2.67-8.32-7.15-14.352-11.571-15.583-1.119-.311-4.45-.567-7.403-.569l-5.37-.003v25.742h2.323c5.803 0 9.004-3.325 10.523-10.93.28-1.4.568-1.707 1.478-1.577 1.125.16 1.13.228 1.13 13.82v13.66l-1.179.167c-.648.093-1.178.066-1.178-.06 0-.124-.238-1.482-.528-3.017-1.154-6.101-4.663-9.436-9.929-9.436h-2.64v27.274l4.06.153c3.757.142 4.072.242 4.227 1.335l.168 1.183H348.302l.168-1.183zm20.336-14.894V31.154l4.322.186c3.501.15 4.648.418 6.036 1.411 1.765 1.263 3.666 4.406 4.343 7.18.211.866.392-3.153.403-8.931.016-9.398-.054-10.276-.666-8.314-1.789 5.738-4.93 8.05-10.936 8.05h-3.502V2.369H357.805v58.839H368.806V46.18zm27.241-34.882V2.37l-8.25.065c-4.89.039-7.398.213-6.156.426 2.982.513 4.965 1.697 7.55 4.51 2.13 2.316 5.294 8.256 6.087 11.424.197.79.451 1.436.564 1.436.113 0 .205-4.019.205-8.93zm3.762 49.776c.155-1.093.47-1.193 4.227-1.335l4.06-.153V3.988l-4.06-.153c-3.757-.142-4.072-.242-4.227-1.335l-.167-1.182h30.006l-.167 1.182c-.155 1.093-.47 1.193-4.228 1.335l-4.06.153V59.587l4.06.153c3.758.142 4.073.242 4.228 1.335l.167 1.183h-30.006l.167-1.183zm20.31-29.287V2.368H409.144v58.839H420.12v-29.42z"></path>
                                <path d="M141.073 61.274c0-1.266.293-1.376 4.85-1.813l3.539-.339V4.462l-2.49-.062c-4.13-.102-5.617-.588-5.804-1.897L141 1.333h50.952l-.142 10.819c-.116 8.824-.276 10.818-.87 10.818-.917 0-1.206-.521-3.378-6.104-2.078-5.34-4.43-8.601-7.689-10.656-2.262-1.427-2.662-1.495-9.83-1.667l-7.474-.18V30.01h3.46c4.648 0 6.74-1.038 8.312-4.123.677-1.326 1.514-3.464 1.861-4.75.348-1.285.903-2.51 1.233-2.72 1.84-1.172 1.912-.666 1.912 13.454v13.852l-1.129-.167c-.893-.131-1.31-.828-2-3.342-.48-1.747-1.333-3.975-1.898-4.953-1.44-2.494-4.884-4.123-8.716-4.123h-3.035v26.329l6.423-.146c7.728-.175 9.994-.88 13.264-4.132 2.59-2.576 3.662-4.377 6.604-11.103 1.42-3.243 2.196-4.431 2.898-4.431.896 0 .969.75 1.1 11.34l.142 11.34h-25.963c-25.748 0-25.964-.01-25.964-1.06zM20.944 62.669c-3.31-.828-6.5-2.486-8.937-4.646l-1.905-1.688-1.117 1.559a43.71 43.71 0 0 1-2.548 3.142c-2.139 2.37-2.483 1.248-2.432-7.917.082-14.962.97-17.038 3.83-8.954 2.158 6.098 3.986 9.219 6.935 11.838 8.127 7.22 20.46 4.66 21.902-4.545.86-5.494-2.562-9.095-12.635-13.298-11.331-4.729-15.41-7.63-18.04-12.833-.9-1.78-1.093-3.126-1.093-7.62 0-4.977.128-5.695 1.464-8.171 1.699-3.15 5.001-6.263 8.476-7.99C16.92.514 18.103.333 22.775.333c5.985 0 7.803.613 12.21 4.113 1.148.912 2.158 1.376 2.354 1.083.189-.283.892-1.39 1.563-2.46.721-1.15 1.634-1.944 2.234-1.944.974 0 1.01.403.873 9.854-.162 11.203-.596 12.33-2.784 7.216C34.34 6.77 30.43 3.105 23.037 3.022c-7.727-.088-12.08 6.661-8.088 12.54 1.7 2.505 3.63 3.688 12.105 7.422 10.682 4.707 13.554 6.75 16.428 11.684 1.464 2.514 1.523 2.873 1.518 9.214-.005 5.88-.138 6.849-1.218 8.901-2.667 5.067-8.469 9.113-14.495 10.11-3.847.635-5.034.603-8.343-.224zM73.7 63.054c-6.552-1.016-13.73-6.035-17.823-12.46-4.232-6.647-5.983-17.822-4.16-26.563 1.941-9.317 8.2-17.607 16.196-21.454C71.468.867 72.521.614 76.998.396 83.632.072 86.659.948 90.91 4.42l3.186 2.602 1.801-2.71C97.92 1.267 99.151.67 99.634 2.497c.177.667.324 5.62.328 11.008.006 7.683-.154 10.016-.74 10.82-1.032 1.418-1.547.71-2.903-3.99-2.286-7.925-6.292-13.871-10.7-15.881-8.7-3.966-15.584.789-18.79 12.979-1.38 5.25-1.39 23.69-.015 28.722 2.526 9.243 7.263 14.293 13.408 14.293 8.16 0 13.313-3.877 16.942-12.746 1.434-3.505 2.153-4.672 2.88-4.672 1.377 0 1.263 2.346-.322 6.613-3.256 8.762-9.06 13.094-18.25 13.62-2.578.147-6.076.053-7.773-.21zM105.176 61.082c.097-.688.526-1.299.953-1.356.428-.058 2.352-.255 4.276-.44l3.499-.334V4.132l-2.721-.063c-4.187-.095-5.81-.578-5.981-1.783-.148-1.039.053-1.051 13.993-.854 7.834.111 14.573.43 15.106.714 1.625.867.215 1.513-4.003 1.834l-3.956.302V58.893l2.405.333c1.322.183 3.174.332 4.115.332.941 0 1.826.188 1.967.417.842 1.375-1.004 1.617-15.15 1.98L105 62.334l.176-1.251zM199.25 62.099c.146-1.048.638-1.328 3.243-1.85 1.689-.337 3.236-.886 3.439-1.219.514-.843 1.05-19.258 1.052-36.11l.002-14.142-1.443-1.638c-1.047-1.188-2.372-1.883-4.825-2.532-2.783-.737-3.412-1.106-3.55-2.085L197 1.333l10.586.144 10.586.143 13.788 19.974c7.583 10.985 13.855 19.905 13.937 19.822.296-.3-.58-35.748-.891-36.062-.175-.177-1.759-.58-3.52-.894-2.875-.514-3.204-.703-3.204-1.839V1.355h9.425c9.377 0 9.424.006 9.258 1.15-.171 1.18-1.18 1.668-4.68 2.26-1.072.181-2.051.706-2.238 1.199-.182.482-.478 13.568-.656 29.079l-.325 28.202h-3.798l-17.185-24.527c-14.754-21.057-17.249-24.368-17.634-23.407-.246.616-.322 10.484-.169 21.93.317 23.542.103 22.449 4.497 23.04 2.735.368 4.242 1.48 3.057 2.255-.372.244-4.745.524-9.717.62l-9.04.177.173-1.234zM270.034 61.16c.091-.644.518-1.22.948-1.277.43-.058 2.364-.255 4.298-.44l3.516-.335V4.213h-2.1c-2.833 0-5.569 1.225-7.954 3.56-2.581 2.527-4.087 5.179-5.858 10.316-1.738 5.041-2.138 5.58-3.138 4.22-.585-.798-.746-3.139-.746-10.865V1.595l22.4-.114 25.918-.131 3.516-.017.142 9.754c.133 9.195-.28 12.96-1.352 12.295-.237-.147-1.424-2.812-2.637-5.922s-2.992-6.743-3.953-8.072c-2.046-2.832-6.227-5.175-9.233-5.175h-1.981V59.116l2.995.329c1.648.18 3.464.374 4.038.43.643.063 1.105.553 1.208 1.28l.166 1.178h-30.36l.167-1.172zM315.203 61.16c.093-.646.522-1.222.955-1.279.432-.057 2.143-.254 3.802-.436l3.015-.333V4.27l-3.771-.35c-4.287-.4-3.94-.264-4.176-1.63-.178-1.023.091-1.04 13.978-.885 7.787.088 14.572.278 15.076.423.505.145.918.57.918.944 0 .692-3.225 1.347-6.628 1.347h-1.763v54.985l3.54.342c4.356.42 4.851.57 4.851 1.478 0 .573-2.012.79-9.833 1.064-5.408.19-12.15.344-14.982.345-5.034.002-5.145-.025-4.982-1.173zM349.211 62.003c-.79-.79.777-2.288 2.4-2.293.926-.004 2.567-.152 3.647-.33l1.963-.325V4.364l-3.765-.35c-2.071-.193-3.816-.403-3.878-.468-.061-.065-.193-.59-.292-1.165-.179-1.035.108-1.048 24.167-1.048H397.8l.154 9.163c.165 9.805-.096 12.756-1.1 12.434-.65-.208-.99-.83-4.554-8.328-3.93-8.27-6.439-9.954-15.313-10.287l-6.152-.23V29.345h2.487c4.849-.002 7.639-2.527 9.503-8.599.74-2.409 1.214-3.182 1.954-3.182.93 0 .978.67.978 13.614 0 12.946-.048 13.614-.978 13.614-.77 0-1.165-.742-1.852-3.47-1.487-5.907-4.697-8.835-9.684-8.835h-2.408v26.567l1.963.324c1.08.179 2.682.327 3.56.33 1.683.007 2.854.804 2.854 1.944 0 .542-3.011.68-14.835.68-8.16 0-14.984-.148-15.166-.33zM400 62.037c0-1.249 1.261-2.322 2.734-2.327.914-.004 2.535-.152 3.602-.33l1.94-.325V4.364l-3.728-.351c-3.509-.33-4.748-.942-4.367-2.156.104-.333 5.503-.524 14.819-.524s14.715.191 14.82.524c.38 1.214-.859 1.826-4.368 2.156l-3.728.35v54.692l1.94.324c1.067.179 2.65.327 3.517.33 1.662.007 2.819.804 2.819 1.944 0 .543-3.037.68-15 .68-8.25 0-15-.133-15-.296zM456.38 63.046c-10.278-1.238-20.357-11.69-22.614-23.451-2.448-12.759 1.038-24.614 9.502-32.31 5.28-4.803 10.86-6.952 18.054-6.952 5.527 0 9.214 1.303 12.81 4.528l2.636 2.363 1.873-2.918c3.615-5.636 4.277-3.757 3.737 10.6-.473 12.601-.833 12.927-4.008 3.621-2.951-8.65-6.325-12.875-11.747-14.71-2.979-1.01-4.55-1.06-7.3-.239-4.75 1.42-8.586 6.87-10.32 14.664-1.292 5.803-1.29 20.864.003 26.863 1.525 7.075 3.987 11.198 8.279 13.863 2.692 1.672 9.77 1.607 13.337-.122 3.77-1.827 7.325-6.034 9.367-11.084 1.56-3.862 3.23-5.958 3.894-4.889.521.842-.769 5.634-2.413 8.965-2.077 4.206-5.572 7.799-9.425 9.688-3.249 1.593-9.788 2.228-15.665 1.52zM.166 137.425c-.417-1.086-.23-1.207 2.722-1.758 1.785-.333 2.891-.899 3.671-1.876 1.43-1.793 4.186-8.819 13.2-33.657 4.01-11.05 7.456-20.51 7.66-21.02.496-1.247 2.148-2.072 3.372-1.684 1.178.374 1.819 1.973 11.017 27.504 10.938 30.362 11.087 30.687 14.107 30.687 2.114 0 3.085.51 3.085 1.621 0 .945-.609.988-13.84.988-13.23 0-13.84-.043-13.84-.988 0-1.194.98-1.621 3.716-1.621 1.33 0 2.167-.272 2.356-.765.29-.754-.703-4.241-3.314-11.642l-1.34-3.796-8.385.143-8.384.143L14 125.705c-1.082 3.301-1.976 6.64-1.985 7.419-.02 1.606 1.21 2.492 3.473 2.505 1.94.01 3.005.732 2.608 1.766-.473 1.232-17.457 1.26-17.93.03zm31.155-21.852c0-.768-4.651-14.49-5.96-17.586l-.748-1.767-.62 1.565c-1.738 4.401-6.25 17.3-6.25 17.87 0 .494 1.683.657 6.789.657 5.506 0 6.789-.14 6.789-.739zM60 138.342c0-1.24.99-1.627 4.165-1.627 3.91 0 4.472-.701 4.887-6.105.196-2.546.377-14.692.402-26.992l.046-22.364-4.612-.151c-3.807-.125-4.641-.304-4.78-1.023-.095-.491.248-.987.786-1.137.524-.145 5.805-.342 11.734-.437l10.78-.173L90.85 96.66c4.093 10.079 7.759 18.89 8.147 19.58.656 1.166 1.2-.096 7.77-18.045 3.887-10.615 7.067-19.367 7.067-19.45 0-.394 20.94-.075 21.583.329.405.254.591.84.413 1.3-.257.665-1.135.84-4.214.84h-3.89l-.348 16.885c-.192 9.288-.349 21.776-.35 27.752v10.864h3.651c4.335 0 5.321.302 5.321 1.627 0 .95-.64.991-15.306.991-14.665 0-15.305-.041-15.305-.99 0-1.326.986-1.628 5.32-1.628h3.652l-.052-21.337c-.029-11.735-.207-22.552-.396-24.037-.342-2.684-.391-2.564-8.476 20.42-9.281 26.387-9.747 27.572-10.84 27.572-.44 0-1.392-1.156-2.114-2.57-1.148-2.247-12.2-29.961-17.24-43.232l-1.785-4.699-.33 9.412c-.181 5.176-.36 15.461-.395 22.856l-.066 13.445 1.39 1.085c.946.738 2.17 1.088 3.827 1.093 2.846.01 4.038.599 3.584 1.772-.282.73-1.69.838-10.896.838-10.021 0-10.572-.051-10.572-.99zM140.301 138.553c-.533-.647-.404-.87.753-1.314.768-.294 2.79-.535 4.493-.535h3.097V80.963h-3.427c-3.995 0-5.852-.713-4.893-1.878.522-.633 4.643-.752 26.126-.752h25.506l-.008 10.123c-.004 5.568-.215 10.453-.469 10.857-.812 1.292-1.998.21-2.925-2.668-1.357-4.215-4.46-9.929-6.517-12.004-2.528-2.55-4.87-3.177-13.172-3.525l-7.175-.3v26.752l4.005-.385c2.625-.253 4.468-.73 5.349-1.383 1.688-1.253 4.057-5.546 4.496-8.148.286-1.697 1.407-3.017 2.562-3.017.167 0 .241 6.212.165 13.804-.135 13.352-.173 13.804-1.17 13.804-.82 0-1.157-.567-1.637-2.744-.786-3.569-2.268-6.395-4.057-7.741-1.094-.823-2.418-1.125-5.574-1.269l-4.14-.19v26.527l6.915-.265c3.803-.145 7.826-.547 8.94-.893 4.337-1.347 8.655-7.118 12.306-16.449 1.238-3.161 2.288-3.846 2.821-1.84.173.65.318 5.856.322 11.569l.007 10.385h-26.028c-22.37 0-26.118-.11-26.67-.78zM249.408 139.8c-1.845-.727-4.654-3.51-5.831-5.778-.661-1.274-1.336-4.798-2.02-10.545-.61-5.13-1.379-9.31-1.896-10.303-1.277-2.454-3.513-3.16-10.01-3.16h-5.555v26.706h3.385c4.07 0 5.052.318 5.052 1.635 0 .963-.545.994-15.16.86-13.063-.12-15.16-.248-15.16-.924 0-.596 1.049-.901 4.35-1.265l4.35-.48V81.214l-3.823-.008c-4.088-.008-5.472-.476-5.003-1.69.674-1.742 37.093-1.49 43.484.301 5.248 1.47 9.612 5.277 10.722 9.353.852 3.125.371 8.59-.987 11.232-.998 1.94-4.99 5.947-5.925 5.947-.201 0-1.641.568-3.201 1.262l-2.836 1.261 2.549 1.139c2.808 1.254 6.167 4.308 7.452 6.776.456.876 1.316 4.482 1.912 8.013 1.34 7.949 2.246 10.028 4.46 10.243 2.173.211 3.336-1.173 4.41-5.25.692-2.63 1.071-3.284 1.905-3.284.922 0 1.03.329.944 2.88-.18 5.331-2.993 9.345-7.304 10.423-2.803.7-8.471.694-10.264-.012zm-12.547-33.472c2.302-.635 4.75-3.345 5.617-6.222.331-1.097.6-3.97.597-6.385-.004-3.537-.253-4.919-1.28-7.11-1.84-3.923-4.117-4.977-11.422-5.287l-5.587-.238-.34 2.813c-.188 1.548-.343 7.35-.345 12.893l-.005 10.08 5.405-.003c2.973-.001 6.285-.245 7.36-.542zM270.074 138.338c0-1.331.994-1.634 5.363-1.634h3.68V81.005l-4.389-.153c-4.091-.142-4.4-.232-4.558-1.335l-.17-1.184h31l-.17 1.184c-.157 1.095-.477 1.194-4.292 1.336l-4.123.154v55.697h3.414c4.101 0 5.097.32 5.097 1.634 0 .954-.645.995-15.426.995-14.78 0-15.426-.041-15.426-.995zM327.268 138.495c-9.438-3.097-17.023-10.721-19.956-20.06-1.766-5.623-1.746-14.911.042-20.129 2.57-7.498 7.153-13.342 13.452-17.156 5.15-3.118 7.984-3.819 15.437-3.817 6.064.002 6.786.11 9.663 1.457 1.71.8 4.142 2.3 5.403 3.334 1.262 1.034 2.358 1.794 2.436 1.69.078-.105.64-1.02 1.25-2.034.608-1.015 1.69-2.394 2.405-3.065 1.289-1.21 1.303-1.212 1.868-.156.646 1.208.72 6.721.223 16.493-.437 8.551-1.17 8.77-3.86 1.15-2.17-6.153-4.305-9.461-7.97-12.36-3.917-3.095-5.779-3.74-10.894-3.776-4.779-.032-7.565.792-9.897 2.928-1.668 1.527-4 6.69-5.032 11.144-1.825 7.87-1.494 24.784.606 30.953 3.06 8.992 9.027 12.618 18.582 11.294 7.372-1.022 11.81-4.473 15.589-12.122 1.868-3.781 2.71-4.982 3.497-4.982 1.204 0 1.188 1.148-.073 5.08-1.894 5.904-8.042 12.472-13.217 14.122-1.06.338-5.23.696-9.268.797-6.065.15-7.852.014-10.286-.785zM360.167 137.156c.135-.954.592-1.234 2.413-1.477 4.28-.572 3.767.482 15.787-32.437 4.264-11.675 8.135-22.187 8.603-23.359.895-2.24 2.354-3.069 3.923-2.227 1.227.657 1.968 2.542 10.69 27.197 10.813 30.562 10.95 30.859 14.27 30.873 2.359.01 3.484.66 3.059 1.77-.283.738-1.935.837-13.95.837h-13.63l.166-1.177c.142-.998.564-1.216 2.778-1.438 2.33-.234 2.623-.403 2.717-1.57.058-.72-.882-4.25-2.089-7.847l-2.194-6.539-8.454-.144-8.454-.143-2.12 6.53c-1.167 3.59-2.121 7.002-2.121 7.58 0 1.295 1.464 2.13 3.751 2.14 2.2.01 3.165.621 2.738 1.735-.294.768-1.4.873-9.192.873H360l.167-1.177zm31.235-21.187c-.003-.589-6.087-17.693-6.656-18.711-.39-.7-.79-.09-1.936 2.964-1.371 3.65-5.505 15.654-5.505 15.984 0 .086 3.172.156 7.05.156 3.877 0 7.048-.177 7.047-.393zM468.646 137.952c-.784-.839-8.969-11.877-18.188-24.528-9.22-12.652-16.952-23.004-17.183-23.004-.231 0-.42 9.735-.42 21.634v21.634l1.705 1.032c.938.568 2.413 1.037 3.279 1.042 2.613.015 3.935.563 3.935 1.63 0 .947-.473.986-10.362.851-9.965-.136-10.363-.181-10.363-1.183 0-.895.404-1.065 2.848-1.203 1.812-.103 3.393-.547 4.348-1.222l1.5-1.061-.15-24.402-.15-24.4-1.313-1.393c-1.75-1.857-2.815-2.378-5.704-2.788-1.957-.278-2.428-.546-2.428-1.381 0-.982.512-1.058 9.927-1.456l9.927-.42 1.17 1.201c.643.662 7.272 9.64 14.732 19.952l13.563 18.75.139-17.145c.137-17.011.13-17.155-1.01-18.36-.917-.968-1.698-1.213-3.878-1.213-2.933 0-4.382-.884-3.266-1.992.841-.835 19.36-.861 20.2-.029 1.248 1.24.101 2.021-2.968 2.021-2.454 0-3.207.219-4.136 1.201-1.133 1.198-1.137 1.292-1.272 29.313l-.136 28.111-1.46.167c-1.072.122-1.84-.24-2.886-1.359z"></path>
                            </g>
                        </svg>
