<svg xmlns="http://www.w3.org/2000/svg" width="152" height="89" viewBox="0 0 152 89">
    <g fill="none" fill-rule="nonzero">
        <path fill="#9B9B9B" d="M0 0v52.172C0 72.53 16.547 89 37 89s37-16.47 37-36.828V0H0zM152 36.632C152 16.382 135.453 0 115 0H78v87h40.546V73.11C137.303 71.33 152 55.66 152 36.633z"></path>
        <path fill="#FFF" d="M91.549 23c4.28 0 6.652-2.473 6.652-5.603V7h-4.59v9.489c0 1.464-.618 2.271-2.01 2.271-1.393 0-2.012-.807-2.012-2.271V7H85v10.397c.052 3.08 2.32 5.603 6.549 5.603zm13.613-4.644h1.495c4.229 0 6.343-2.675 6.343-5.753C113 9.523 110.886 7 106.657 7h-6.084v15.697h4.59v-4.34zm0-7.42h.928c1.186 0 2.166.506 2.166 1.717s-.98 1.716-2.166 1.716h-.928v-3.432zM92.894 41l2.132-8.849L97.262 41h5.357L106 25h-4.837l-1.508 9.003h-.052L97.314 25h-4.368L90.5 34.003h-.052L89.045 25H84l3.329 16zM106 33c0 4.67 3.77 8 8.47 8 4.699 0 8.469-3.33 8.469-8s-3.77-8-8.47-8C109.77 25 106 28.379 106 33zm8.47-3.826c2.168 0 3.563 1.59 3.563 3.826 0 2.186-1.395 3.826-3.564 3.826s-3.563-1.64-3.563-3.826 1.394-3.826 3.563-3.826zm21.07 5.814c1.962-.945 2.944-2.386 2.944-4.572 0-2.733-2.273-5.118-6.198-5.118h-7.436v15.454h4.596v-5.118h1.498l2.892 5.167H139l-3.46-5.813zm-3.667-3.13h-2.375v-2.684h2.375c1.343 0 1.86.596 1.86 1.342 0 .745-.517 1.341-1.86 1.341zM108.41 49.865h-4.95V44H85v4.167h4.486V60h4.693V48.167h4.64V60h4.641v-5.916h4.95V60H113V44h-4.59zM121.205 48.682h-.102L118.693 44H113l5.795 9.878V60h4.564v-6.174L129 44h-5.282z"></path>
    </g>
</svg>