<svg width="150px" height="150px" viewBox="0 0 150 150" version="1.1" xmlns="http://www.w3.org/2000/svg" xmlns:xlink="http://www.w3.org/1999/xlink">
                                <!-- Generator: Sketch 50.2 (55047) - http://www.bohemiancoding.com/sketch -->
                                <title>fish icon_new</title>
                                <desc>Created with Sketch.</desc>
                                <defs>
                                    <polygon id="path-1" points="0 0.9343 149.9995 0.9343 149.9995 150.9343 0 150.9343"></polygon>
                                    <polygon id="path-3" points="0 0.6503 149.9995 0.6503 149.9995 145.9343 0 145.9343"></polygon>
                                    <polygon id="path-5" points="0 0.7713 149.9995 0.7713 149.9995 134.9343 0 134.9343"></polygon>
                                    <polygon id="path-7" points="0 0.149765217 149.9995 0.149765217 149.9995 106.9343 0 106.9343"></polygon>
                                    <polygon id="path-9" points="0 0.0134 149.895 0.0134 149.895 76.9344 0 76.9344"></polygon>
                                </defs>
                                <g id="fish-icon_new" stroke="none" stroke-width="1" fill="none" fill-rule="evenodd">
                                    <g id="Group-3" transform="translate(0.000000, -0.934000)">
                                        <mask id="mask-2" fill="white">
                                            <use xlink:href="#path-1"></use>
                                        </mask>
                                        <g id="Clip-2"></g>
                                        <path d="M149.9995,75.9343 C149.9995,34.5123 116.4215,0.9343 74.9995,0.9343 C33.5785,0.9343 -0.0005,34.5123 -0.0005,75.9343 C-0.0005,117.3553 33.5785,150.9343 74.9995,150.9343 C116.4215,150.9343 149.9995,117.3553 149.9995,75.9343" id="Fill-1" fill="#E3F6F6" mask="url(#mask-2)"></path>
                                    </g>
                                    <g id="Group-6" transform="translate(0.000000, 4.066000)">
                                        <mask id="mask-4" fill="white">
                                            <use xlink:href="#path-3"></use>
                                        </mask>
                                        <g id="Clip-5"></g>
                                        <path d="M149.9995,70.9343 C149.9995,39.9553 131.2165,13.3703 104.4195,1.9303 C99.7165,2.6643 94.9145,3.4653 92.9745,4.1123 C88.9195,5.4633 54.7925,1.0713 52.7655,1.0713 C52.2605,1.0713 50.7625,0.9013 48.7945,0.6503 C20.2985,11.2803 -0.0005,38.7323 -0.0005,70.9343 C-0.0005,112.3553 33.5785,145.9343 74.9995,145.9343 C116.4215,145.9343 149.9995,112.3553 149.9995,70.9343" id="Fill-4" fill="#CAECEB" mask="url(#mask-4)"></path>
                                    </g>
                                    <g id="Group-9" transform="translate(0.000000, 15.066000)">
                                        <mask id="mask-6" fill="white">
                                            <use xlink:href="#path-5"></use>
                                        </mask>
                                        <g id="Clip-8"></g>
                                        <path d="M149.9995,59.9343 C149.9995,37.9343 140.5275,18.1473 125.4385,4.4283 C120.6515,4.9963 112.5955,4.7983 107.8425,4.6003 C102.4365,4.3743 80.5855,0.7713 80.5855,0.7713 C80.5855,0.7713 45.4435,5.7263 43.1905,6.4023 C41.9815,6.7653 30.7885,7.5803 20.6715,8.2603 C7.8715,21.7133 -0.0005,39.8993 -0.0005,59.9343 C-0.0005,101.3553 33.5785,134.9343 74.9995,134.9343 C116.4215,134.9343 149.9995,101.3553 149.9995,59.9343" id="Fill-7" fill="#B3E5E3" mask="url(#mask-6)"></path>
                                    </g>
                                    <path d="M143.3687,44.1751 C141.1417,39.2451 138.4157,34.5921 135.2227,30.2991 C125.5857,31.1991 110.8777,32.3911 108.8557,31.4921 C105.8147,30.1411 79.1207,30.4791 75.7417,30.4791 C72.3627,30.4791 36.9687,26.2951 34.5177,27.4381 C29.4497,29.8031 61.5507,31.8301 64.2537,33.5201 C66.9567,35.2091 92.6367,37.5741 94.6637,37.5741 C96.2617,37.5741 127.4027,41.9751 143.3687,44.1751" id="Fill-10" fill="#9ADDDD"></path>
                                    <g id="Group-14" transform="translate(0.000000, 43.066000)">
                                        <mask id="mask-8" fill="white">
                                            <use xlink:href="#path-7"></use>
                                        </mask>
                                        <g id="Clip-13"></g>
                                        <path d="M149.9995,31.9343 C149.9995,21.5433 147.8855,11.6473 144.0645,2.6503 C136.3585,1.8553 122.3435,0.4503 120.5695,0.2533 C117.5285,-0.0857 89.5955,0.4783 86.1035,0.9293 C82.8515,1.3483 31.1395,2.2813 29.1115,2.7313 C27.4905,3.0913 12.3445,2.1563 6.3345,1.7663 C2.2715,10.9993 -0.0005,21.1993 -0.0005,31.9343 C-0.0005,73.3553 33.5785,106.9343 74.9995,106.9343 C116.4215,106.9343 149.9995,73.3553 149.9995,31.9343" id="Fill-12" fill="#97D7D5" mask="url(#mask-8)"></path>
                                    </g>
                                    <path d="M128.229,52.8928 C129.122,52.6948 137.617,53.2388 146.978,53.9288 C146.179,51.1948 145.244,48.5168 144.151,45.9198 C137.941,45.9648 122.193,46.1348 121.02,46.1348 C119.668,46.1348 99.169,47.7118 97.142,47.7118 C95.115,47.7118 74.166,47.9368 70.56,48.1628 C66.957,48.3878 52.54,52.6668 52.54,52.6668 C50.962,55.3708 59.748,52.8928 61.325,53.1188 C62.902,53.3428 80.248,53.3428 84.302,53.3428 C88.357,53.3428 126.202,53.3428 128.229,52.8928" id="Fill-15" fill="#7EC6C7"></path>
                                    <path d="M149.9995,75.0003 C149.9995,71.5193 149.7435,68.0993 149.2835,64.7423 C136.6905,66.7473 109.8415,71.0553 108.9935,71.4793 C107.8865,72.0323 62.1055,77.0173 55.0915,77.5703 C48.0765,78.1243 9.4955,79.0473 9.4955,79.0473 C9.4955,79.0473 4.9215,79.5643 0.1965,80.1623 C0.7675,88.5503 2.7005,96.5623 5.8055,103.9693 C5.8615,104.1023 5.9165,104.2363 5.9745,104.3693 C6.3185,105.1803 6.6875,105.9783 7.0605,106.7723 C7.2655,107.2083 7.4695,107.6453 7.6835,108.0753 C7.9315,108.5793 8.1905,109.0763 8.4505,109.5743 C8.8065,110.2533 9.1645,110.9313 9.5405,111.5983 C9.6855,111.8573 9.8365,112.1133 9.9845,112.3713 C10.4855,113.2363 10.9955,114.0953 11.5285,114.9373 C11.5765,115.0123 11.6255,115.0863 11.6735,115.1613 C15.5175,121.1883 20.1815,126.6253 25.5025,131.3223 C25.5805,131.3923 25.6595,131.4583 25.7385,131.5273 C26.4995,132.1923 27.2745,132.8423 28.0615,133.4773 C28.3535,133.7123 28.6495,133.9413 28.9455,134.1723 C29.5125,134.6163 30.0835,135.0543 30.6625,135.4813 C31.2695,135.9263 31.8825,136.3623 32.5015,136.7893 C32.7675,136.9743 33.0325,137.1603 33.3015,137.3413 C45.2265,145.3333 59.5665,150.0003 74.9995,150.0003 C116.4215,150.0003 149.9995,116.4213 149.9995,75.0003" id="Fill-17" fill="#82D4D3"></path>
                                    <g id="Group-21" transform="translate(0.000000, 73.066000)">
                                        <mask id="mask-10" fill="white">
                                            <use xlink:href="#path-9"></use>
                                        </mask>
                                        <g id="Clip-20"></g>
                                        <path d="M149.895,5.8884 C143.999,3.9784 141.859,4.2454 136.676,5.2824 C131.737,6.2704 102.816,13.1284 92.298,14.0674 C79.684,15.1944 54.455,11.3644 49.273,10.9134 C44.779,10.5234 16.384,3.9304 8.499,1.9034 C4.522,0.8794 1.88,0.3214 0.048,0.0134 C0.033,0.6544 -0.001,1.2894 -0.001,1.9344 C-0.001,43.3554 33.579,76.9344 74.999,76.9344 C115.095,76.9344 147.839,45.4714 149.895,5.8884" id="Fill-19" fill="#77CBCA" mask="url(#mask-10)"></path>
                                    </g>
                                    <path d="M74.9995,150.0003 C102.2005,150.0003 126.0195,135.5193 139.1675,113.8463 C130.7465,112.9793 114.7525,110.8793 106.9975,112.2503 C101.2535,113.2663 90.4965,112.8133 82.8375,111.7433 C73.2985,110.4103 56.1445,104.4793 49.0485,101.1003 C41.9515,97.7213 19.6505,85.2193 9.0075,82.6843 C5.0675,81.7463 2.2975,81.5073 0.3045,81.5723 C3.6355,119.9133 35.7945,150.0003 74.9995,150.0003" id="Fill-22" fill="#51A5AA"></path>
                                    <path d="M74.9995,150.0003 C103.4605,150.0003 128.2175,134.1463 140.9245,110.7903 C137.8035,110.3523 135.4925,109.7703 131.9445,110.0333 C125.5775,110.5063 118.9925,112.4193 106.7475,117.9083 C96.6245,122.4453 73.6875,124.4873 65.2675,123.4003 C54.7925,122.0493 36.2075,112.0813 23.8725,113.1843 C18.7985,113.6373 14.8945,114.6413 12.1515,115.9083 C25.5345,136.4273 48.6755,150.0003 74.9995,150.0003" id="Fill-24" fill="#47979E"></path>
                                    <path d="M118.6548,82.3889 C119.2038,82.5579 130.8828,80.0179 132.7198,79.5169 C133.6488,79.2629 139.1718,77.9629 142.4338,77.7429 C143.9958,77.6369 147.3168,78.4179 147.3768,78.1219 C147.4188,77.9109 143.8288,76.6449 140.9138,77.0249 C139.7828,77.1719 123.6388,80.6999 122.4988,81.0369 C121.7168,81.2689 118.1058,82.2199 118.6548,82.3889" id="Fill-26" fill="#8DDDDB"></path>
                                    <path d="M98.105,54.7425 C98.105,54.7425 100.301,59.1355 100.639,61.1625 C100.977,63.1895 101.146,69.1025 100.639,70.2855 C100.132,71.4685 97.598,62.1765 96.753,60.9935 C95.909,59.8105 96.584,66.3995 96.584,66.3995 L93.206,61.5005 L94.726,69.1025 L89.995,63.5275 L91.516,68.2585 L87.798,64.8795 L88.981,69.1025 L86.109,66.2305 L86.954,69.1025 L82.223,66.7375 L83.913,70.2855 L77.831,67.9205 L79.182,71.6375 L74.79,69.4405 L74.79,72.1435 L72.593,70.1165 L72.931,72.6505 L71.073,71.4685 L70.397,72.8195 L68.876,72.3125 L68.201,73.8335 L66.342,72.8195 L98.105,54.7425 Z" id="Fill-28" fill="#FFFFFF"></path>
                                    <path d="M64.9907,74.678 L67.3557,74.932 L68.1157,76.536 C68.1157,76.536 70.1437,75.439 70.1437,75.692 C70.1437,75.946 70.3967,78.395 70.3967,78.395 L73.6067,76.536 L73.3537,79.831 L77.4927,77.212 L76.2257,82.956 C76.2257,82.956 80.6187,78.564 80.6187,78.818 C80.6187,79.071 79.1817,84.9 79.1817,84.9 C79.1817,84.9 80.2807,84.562 81.1257,83.463 C81.9697,82.365 83.2367,80.507 83.2367,80.507 C83.2367,80.507 83.4877,81.693 83.1527,82.872 C82.8017,84.109 82.0537,86.166 82.0537,86.166 L87.5457,81.098 C87.5457,81.098 85.1797,88.025 85.4327,88.025 C85.6867,88.025 90.1637,84.308 90.1637,84.562 C90.1637,84.815 88.1367,90.475 88.1367,90.475 C88.1367,90.475 92.9517,86.251 93.1207,85.659 C93.2897,85.069 91.5997,90.728 91.3467,90.897 C91.0937,91.066 96.7537,82.365 96.7537,82.365 C96.7537,82.365 96.9357,84.731 96.4157,87.096 C96.1227,88.426 94.9787,92.586 94.9787,92.586 C94.9787,92.586 97.1047,90.92 98.7807,88.025 C99.4497,86.869 102.4447,79.282 103.3427,78.311 C103.8557,77.753 104.0697,83.527 103.8487,85.069 C103.3497,88.557 102.7307,92.72 101.3147,95.797 C100.6437,97.252 99.1187,100.528 99.1187,100.528 L97.0067,101.625 C97.0067,101.625 64.5677,75.861 64.6527,76.115 C64.7367,76.367 64.9907,74.678 64.9907,74.678" id="Fill-30" fill="#FFFFFF"></path>
                                    <path d="M27.4839,59.5384 L15.6579,50.9224 L24.6529,66.4284 L12.4889,84.6744 L25.2879,77.6154 C25.2879,77.6154 27.8579,89.5864 32.3829,95.8624 C36.8639,102.0754 44.4619,108.7294 57.3939,112.2344 C69.8849,115.6204 83.3169,113.6894 90.5019,109.5474 C97.7879,105.3474 100.1319,100.7624 100.1319,100.7624 L64.9909,74.7434 L99.6259,54.8084 C99.6259,54.8084 90.7549,40.2804 80.8719,36.7294 C69.4189,32.6154 59.5469,33.5394 50.7989,36.8984 C41.2839,40.5544 32.5279,48.4924 27.4839,59.5384" id="Fill-32" fill="#1C3040"></path>
                                    <path d="M47.5972,69.2708 C47.6112,69.2538 54.5162,70.1168 54.5162,70.1168 C54.5162,70.1168 53.5022,72.8198 51.1372,74.3398 C48.7722,75.8608 45.2232,76.7058 44.7162,76.7058 C44.2092,76.7058 46.9122,74.0018 46.9122,74.0018 C46.9122,74.0018 45.5612,74.1708 44.0402,74.1708 L39.9862,74.1708 C39.9862,74.1708 45.5432,71.7178 47.5972,69.2708" id="Fill-34" fill="#FF6C6C"></path>
                                    <path d="M91.854,52.0384 L85.771,50.5174 C85.771,50.5174 84.25,54.9114 87.292,55.4184 C90.333,55.9254 91.854,53.0534 91.854,52.0384" id="Fill-36" fill="#FFFFFF"></path>
                                    <path d="M90.5015,52.968 C90.5015,53.482 90.0855,53.898 89.5725,53.898 C89.0595,53.898 88.6435,53.482 88.6435,52.968 C88.6435,52.455 89.0595,52.038 89.5725,52.038 C90.0855,52.038 90.5015,52.455 90.5015,52.968" id="Fill-38" fill="#1A1A1A"></path>
                                    <path d="M33.6938,58.4231 C35.4808,60.2701 39.4138,61.2681 39.7598,57.6781 L38.8198,57.8981 C40.2258,60.9601 45.2088,59.7361 45.7198,56.6571 C45.3908,56.6901 45.0628,56.7231 44.7338,56.7551 C45.7248,59.4751 49.1588,57.9161 50.3618,56.1931 C50.7318,55.6631 49.8838,55.1321 49.5168,55.6581 C48.6378,57.1431 47.3678,57.4311 45.7068,56.5241 C45.5078,55.9791 44.8148,56.0571 44.7208,56.6221 C44.4128,58.4771 40.5938,59.3691 39.7008,57.4231 C39.4798,56.9421 38.8048,57.1851 38.7598,57.6431 C38.4858,60.4921 35.3058,58.6511 34.4248,57.7401 C33.9778,57.2781 33.2458,57.9591 33.6938,58.4231" id="Fill-40" fill="#A4D6E3"></path>
                                    <path d="M53.6353,55.8303 C55.0063,57.8693 58.3823,57.4383 59.3773,55.2603 C59.0723,55.2883 58.7663,55.3173 58.4603,55.3473 C59.6783,57.4173 62.9393,56.1773 63.9573,54.4853 C63.6543,54.4343 63.3513,54.3843 63.0483,54.3343 C63.7213,57.8083 69.8143,52.8323 70.7043,51.6763 C71.0983,51.1653 70.2483,50.6363 69.8593,51.1423 C69.5063,51.6003 64.3783,55.9463 64.0213,54.1013 C63.9393,53.6803 63.3293,53.5903 63.1123,53.9503 C62.7203,54.6013 60.1843,56.3063 59.3403,54.8733 C59.1053,54.4723 58.5983,54.5773 58.4233,54.9603 C57.1453,56.3513 55.8433,56.4823 54.5163,55.3553 C54.1603,54.8263 53.2763,55.2943 53.6353,55.8303" id="Fill-42" fill="#A4D6E3"></path>
                                    <path d="M50.0083,49.678 C52.1163,50.98 55.8963,51.393 56.9713,48.579 C56.6643,48.609 56.3593,48.638 56.0533,48.666 C57.3433,51.244 60.9533,48.732 61.6873,46.999 L60.7703,47.087 C62.4893,50.094 65.9143,47.522 67.3743,45.618 C67.1123,45.643 66.8483,45.667 66.5853,45.693 C68.5053,47.84 71.2683,45.883 72.4993,43.993 C72.2703,44.045 72.0393,44.097 71.8103,44.149 C74.1633,45.837 77.4503,43.671 78.8143,41.656 C79.1753,41.12 78.3283,40.588 77.9683,41.12 C76.9773,42.585 74.2873,44.698 72.3443,43.303 C72.1223,43.144 71.7953,43.242 71.6543,43.458 C70.8403,45.068 69.3943,45.584 67.3173,45.01 C67.0863,44.752 66.7183,44.837 66.5293,45.084 C65.7553,46.092 63.0373,49.037 61.6503,46.613 C61.4223,46.215 60.8973,46.312 60.7333,46.7 C59.9843,48.423 58.7183,48.92 56.9343,48.193 C56.7303,47.786 56.1623,47.897 56.0163,48.28 C55.1863,50.451 51.9853,49.723 50.5423,48.833 C49.9943,48.494 49.4603,49.34 50.0083,49.678" id="Fill-44" fill="#A4D6E3"></path>
                                    <path d="M55.1479,37.1809 C55.6299,38.4269 57.4449,39.2519 58.7349,39.1389 C60.2439,39.0069 61.2379,37.8139 61.7629,36.4999 C61.4579,36.5299 61.1509,36.5579 60.8449,36.5869 C61.9989,38.6329 64.1649,37.5589 65.5439,36.3669 C66.0329,35.9459 65.3489,35.2149 64.8619,35.6349 C64.1439,36.2549 62.5549,37.5839 61.7259,36.1139 C61.5039,35.7189 60.9649,35.8079 60.8089,36.2009 C60.3209,37.4189 59.3539,38.3099 57.9109,38.0549 C57.1949,37.9289 56.2969,37.3999 56.0279,36.7059 C55.7959,36.1089 54.9179,36.5859 55.1479,37.1809" id="Fill-46" fill="#A4D6E3"></path>
                                    <path d="M45.0854,44.0491 C46.7824,46.6711 50.5304,43.7751 51.3904,41.8401 C51.0834,41.8691 50.7774,41.8981 50.4724,41.9271 C51.0464,42.9091 51.9404,43.7641 53.1784,43.6851 C54.6194,43.5931 54.9844,42.2191 55.2894,41.0231 L54.3724,41.1111 C55.5564,44.1931 59.4264,42.0511 60.2044,39.8201 L59.2874,39.9071 C60.8224,42.5881 63.8134,41.3201 65.1044,39.1211 C64.8014,39.0701 64.4974,39.0211 64.1944,38.9701 C64.6024,42.0191 70.1824,40.2541 71.2664,38.4211 C71.5934,37.8661 70.7484,37.3311 70.4204,37.8861 C69.9494,38.6831 65.4534,40.8801 65.1674,38.7371 C65.1094,38.3061 64.4644,38.2361 64.2584,38.5861 C63.5304,39.8271 61.4504,41.6721 60.1674,39.4331 C59.9504,39.0551 59.3934,39.1121 59.2504,39.5211 C58.8454,40.6831 56.1454,42.9581 55.2534,40.6361 C55.0984,40.2321 54.4354,40.3321 54.3354,40.7241 C54.2464,42.1641 53.2524,42.4071 51.3534,41.4531 C51.1194,41.0541 50.6064,41.1541 50.4354,41.5401 C49.9994,42.5231 47.1634,45.4251 45.9664,43.5741 C45.6184,43.0381 44.7344,43.5071 45.0854,44.0491" id="Fill-48" fill="#A4D6E3"></path>
                                    <path d="M35.229,82.3831 C36.768,85.6041 39.333,84.8991 41.44,82.5111 C41.179,82.4691 40.918,82.4261 40.659,82.3831 C41.958,84.2121 45.399,85.5271 45.801,82.3091 C45.488,82.3821 45.174,82.4551 44.862,82.5291 C46.257,85.8471 50.126,84.8761 51.599,82.2111 C51.296,82.1601 50.994,82.1101 50.691,82.0601 C51.22,83.9861 53.318,84.1061 55.086,84.1061 C56.964,84.1061 57.879,83.1471 58.764,81.5461 C58.457,81.4511 58.15,81.3571 57.842,81.2621 C57.873,82.7001 59.569,83.0111 60.803,82.9621 C62.643,82.8911 62.993,80.5941 63.664,79.1591 C63.933,78.5831 63.09,78.0431 62.818,78.6251 C62.436,79.4421 62.126,80.5131 61.595,81.2391 C61.301,81.6411 58.873,82.7361 58.841,81.2961 C58.832,80.8341 58.174,80.5501 57.919,81.0121 C57.212,82.2901 56.829,82.8951 55.122,83.1061 C54.041,83.2391 52.019,83.1191 51.664,81.8271 C51.556,81.4371 50.972,81.2821 50.754,81.6761 C49.68,83.6181 46.84,84.6651 45.742,82.0541 C45.531,81.5521 44.857,81.8351 44.802,82.2741 C43.714,82.1531 42.626,82.0301 41.539,81.9081 C41.372,81.6731 40.995,81.5121 40.757,81.7801 C39.599,83.0921 37.126,84.0361 36.11,81.9091 C35.832,81.3281 34.952,81.8031 35.229,82.3831" id="Fill-50" fill="#A4D6E3"></path>
                                    <path d="M43.8989,88.6458 C45.6139,91.3248 49.2079,91.0398 50.2189,87.9228 C49.9139,87.9528 49.6069,87.9818 49.3009,88.0108 C50.0659,89.2948 51.3109,89.7618 52.7659,89.9238 C54.7309,90.1418 55.5289,89.5338 56.5939,87.9628 C56.3319,87.9878 56.0679,88.0118 55.8049,88.0368 C58.2159,90.6348 61.0109,88.8708 61.9799,86.0448 C62.1889,85.4348 61.2339,85.1368 61.0249,85.7458 C60.3979,87.5738 58.1839,89.1298 56.5369,87.3548 C56.3119,87.1128 55.9279,87.1648 55.7489,87.4288 C54.5849,89.1458 51.4619,89.6858 50.1819,87.5368 C49.9639,87.1698 49.4009,87.2048 49.2639,87.6248 C48.6299,89.7018 47.1349,89.8838 44.7789,88.1708 C44.4339,87.6328 43.5499,88.1018 43.8989,88.6458" id="Fill-52" fill="#A4D6E3"></path>
                                    <path d="M41.063,97.3694 C43.801,98.8944 46.737,98.3264 48.648,95.8374 L47.86,95.9104 C49.888,97.7284 53.721,98.7864 54.637,95.2714 C54.357,95.3364 54.076,95.3994 53.794,95.4634 C56.135,97.6404 58.607,96.2184 60.065,93.8284 C59.778,93.8184 59.49,93.8074 59.203,93.7984 C60.117,95.1034 61.738,95.6374 63.321,95.4604 C64.964,95.2764 65.669,94.2514 66.287,92.8084 C66.541,92.2174 65.584,91.9234 65.333,92.5104 C64.481,94.4964 61.459,95.2874 60.083,93.3234 C59.877,93.0304 59.434,92.9434 59.22,93.2934 C58.352,94.7164 56.79,96.8884 54.526,94.7814 C54.267,94.5404 53.785,94.5844 53.683,94.9734 C52.88,98.0534 49.799,96.3114 48.591,95.2284 C48.335,95.0004 48.01,95.0314 47.802,95.3034 C46.261,97.3084 43.812,97.7584 41.598,96.5234 C41.037,96.2114 40.501,97.0564 41.063,97.3694" id="Fill-54" fill="#A4D6E3"></path>
                                    <path d="M66.0308,101.0432 C67.7528,103.9362 71.4078,101.0402 72.5508,99.1332 C72.2878,99.1572 72.0248,99.1822 71.7618,99.2072 C72.9698,100.3162 74.6918,100.8972 76.3238,100.3972 C77.9818,99.8882 78.3118,98.5192 78.4178,96.9332 C78.2008,97.0862 77.9838,97.2392 77.7678,97.3932 C80.5478,98.3832 83.1478,96.9302 83.7008,94.0252 C83.8198,93.4002 82.8668,93.0962 82.7468,93.7272 C82.2838,96.1572 80.3158,97.2392 78.0668,96.4382 C77.7518,96.3252 77.4378,96.5862 77.4178,96.8972 C77.2248,99.7992 74.2288,100.1192 72.4938,98.5242 C72.2638,98.3142 71.8818,98.3052 71.7058,98.5992 C71.0678,99.6612 68.2458,102.8112 66.9108,100.5682 C66.5828,100.0172 65.6998,100.4872 66.0308,101.0432" id="Fill-56" fill="#A4D6E3"></path>
                                    <path d="M42.5171,65.1272 C44.9391,68.8542 48.4181,65.7032 49.5471,62.7482 C49.2421,62.7772 48.9351,62.8072 48.6291,62.8362 C49.2571,64.1382 50.5681,65.2732 52.1271,64.9962 C53.7781,64.7022 54.5351,62.7092 54.9051,61.2972 C54.5791,61.2412 54.2531,61.1862 53.9271,61.1302 C54.0731,62.7352 55.0871,63.9172 56.8111,63.8212 C58.6481,63.7202 59.7291,62.2612 60.3471,60.6742 C60.0221,60.6182 59.6961,60.5632 59.3711,60.5072 C59.2731,62.2522 60.6421,63.0762 62.3221,63.0202 C64.3901,62.9482 65.5541,61.2862 66.5251,59.6642 C66.8561,59.1112 66.0101,58.5762 65.6801,59.1292 C65.3571,59.6692 65.0501,60.2222 64.6201,60.6872 C64.3711,61.0932 64.0201,61.3792 63.5661,61.5462 C62.5161,62.4422 61.4511,62.1072 60.3701,60.5412 C60.4031,59.9552 59.5911,59.8662 59.3931,60.3742 C58.8961,62.3432 57.4071,62.6062 54.9271,61.1652 C54.8801,60.6512 54.1061,60.4012 53.9501,60.9972 C53.7551,61.7432 53.5771,62.7002 52.9641,63.2142 C51.8121,64.1812 50.2361,63.8672 49.5101,62.3612 C49.3121,61.9502 48.7381,62.0702 48.5921,62.4492 C48.0901,63.7632 45.9241,68.5412 43.3981,64.6522 C43.0501,64.1172 42.1651,64.5852 42.5171,65.1272" id="Fill-58" fill="#A4D6E3"></path>
                                    <polygon id="Fill-60" fill="#FF6C6C" points="123.9966 67.0755 125.4106 68.0475 126.2556 67.7715 123.0376 65.7285 122.4776 66.0745"></polygon>
                                    <path d="M125.6997,64.1751 C125.5737,64.3141 125.4197,64.4351 125.3017,64.5181 L128.1777,67.1591 L127.7137,67.2021 L125.3047,65.0481 C125.3047,65.0481 125.0307,64.8161 124.7567,64.5621 C124.2497,64.2671 123.9787,64.2091 123.8277,64.1181 C123.6157,63.9921 122.7287,64.0761 122.7287,64.0761 C122.7287,64.0761 121.7997,64.3721 122.2217,64.5831 C122.7147,64.8291 123.4467,65.3441 123.4467,65.3441 L123.4897,65.3441 L126.7207,67.5821 L127.1847,67.5191 L129.4287,67.1481 C129.3027,67.0481 126.7737,65.0751 125.6997,64.1751" id="Fill-62" fill="#FF6C6C"></path>
                                    <path d="M126.0161,62.7503 L127.5441,63.7803 L129.3181,65.1753 L131.0921,66.9903 L130.5851,66.9903 L129.1911,65.4703 L127.4591,64.1613 L125.9641,63.2183 C125.9371,63.4583 125.9121,63.6883 125.8971,63.8233 L128.0081,65.5553 L129.5721,66.7793 L129.7831,67.0753 L129.5201,67.1413 L132.4011,67.2023 C132.4011,67.2023 131.7251,66.1883 131.4721,65.8513 C131.2181,65.5133 128.8961,63.4423 128.3041,63.0213 C127.7131,62.5983 125.6011,61.5843 125.6011,61.5843 L125.8751,62.1123 C125.8751,62.1123 125.9171,62.4083 126.0161,62.7503" id="Fill-64" fill="#FF6C6C"></path>
                                    <path d="M120.8931,67.9759 L119.6881,69.0179 L121.0811,70.0949 L122.4331,69.1869 L122.9611,68.9129 C122.7591,68.8179 121.5581,68.2789 120.8931,67.9759" id="Fill-66" fill="#FF6C6C"></path>
                                    <polygon id="Fill-68" fill="#FF6C6C" points="121.314 67.6458 123.067 68.6378 123.383 68.8288 124.869 68.0918 123.025 66.9698 122.015 66.3598 120.638 67.3078 121.293 67.6458"></polygon>
                                    <path d="M115.6333,71.2141 C115.3793,71.4041 114.5773,72.0171 113.2683,72.3341 C112.4753,72.5261 110.3323,72.3971 110.3323,72.3971 L109.2043,72.2841 C109.4473,72.6331 109.6993,72.9731 109.9503,73.2921 C110.4173,73.3161 110.9373,73.3361 111.1773,73.3261 C111.7043,73.3051 112.9713,73.2451 113.2883,73.1151 C113.7533,72.9251 115.0213,72.4401 115.3793,72.2711 C115.5803,72.1761 116.0523,71.9761 116.4303,71.8181 C116.2773,71.5501 116.1133,71.2821 115.9453,71.0281 C115.8353,71.0831 115.7223,71.1481 115.6333,71.2141" id="Fill-70" fill="#FF6C6C"></path>
                                    <path d="M115.3794,73.3684 C115.7444,73.2184 116.3684,72.8204 116.8164,72.5234 C116.7384,72.3744 116.6564,72.2214 116.5694,72.0634 C116.2174,72.2014 115.7924,72.3704 115.6964,72.4184 C115.5274,72.5034 113.5214,73.3474 113.1834,73.4534 C112.9574,73.5234 112.0644,73.6004 111.5154,73.6004 C111.3524,73.6004 110.7364,73.5844 110.1714,73.5684 C110.3774,73.8224 110.5804,74.0614 110.7754,74.2804 C111.4044,74.2804 112.3394,74.2694 112.8034,74.2134 C113.6694,74.1074 114.8284,73.5974 115.3794,73.3684" id="Fill-72" fill="#FF6C6C"></path>
                                    <path d="M112.9937,70.6448 C112.5927,70.7288 110.5217,70.6018 109.9947,70.4328 C109.7277,70.3478 108.6167,69.9488 108.0327,69.7478 C108.1357,70.3318 108.3267,70.9278 108.6637,71.4678 C108.7737,71.6438 108.8897,71.8198 109.0067,71.9938 C109.9327,72.0548 111.6417,72.1228 111.9367,72.1228 C112.6767,72.1228 113.9787,71.7438 114.3657,71.5738 C114.7747,71.3938 115.4827,70.9758 115.7837,70.7948 C115.5897,70.5218 115.3907,70.2728 115.1927,70.0748 C114.9987,70.1028 114.8227,70.1288 114.7887,70.1378 C114.7037,70.1588 113.3947,70.5598 112.9937,70.6448" id="Fill-74" fill="#FF6C6C"></path>
                                    <path d="M108.5161,67.3284 C108.4211,67.2854 108.2451,67.2024 108.0631,67.1164 C108.0281,67.3014 107.9921,67.5454 107.9661,67.8284 C108.4511,68.1064 108.8371,68.3554 109.8461,68.4274 C109.8461,68.4274 110.7751,68.4624 111.3671,68.4054 C111.6441,68.3794 111.8591,68.3494 112.0301,68.3164 C111.6801,68.1144 111.3821,67.9224 111.1981,67.7514 C111.1401,67.6974 111.0811,67.6544 111.0241,67.6114 C110.7661,67.6744 110.4151,67.7404 110.0581,67.7514 C109.5721,67.7654 109.0231,67.5604 108.5161,67.3284" id="Fill-76" fill="#FF6C6C"></path>
                                    <path d="M112.7466,82.2522 C112.6706,82.1802 112.2546,81.9362 111.9586,81.7882 C111.6626,81.6402 110.5296,81.4642 110.1006,81.4362 C109.7066,81.4102 108.8756,81.4572 108.5586,81.4572 C108.5486,81.4572 108.5376,81.4582 108.5276,81.4582 C108.4276,81.9492 108.3816,82.4262 108.4046,82.8592 C108.6616,82.7642 108.9686,82.6682 109.1986,82.6332 C109.7126,82.5552 110.5646,82.4362 111.0286,82.4362 C111.4906,82.4362 112.0086,82.5522 112.2896,82.7562 C112.4346,82.5792 112.5936,82.4152 112.7706,82.2792 C112.7636,82.2722 112.7556,82.2602 112.7466,82.2522" id="Fill-78" fill="#FF6C6C"></path>
                                    <path d="M116.7739,79.176 C116.6469,79.092 114.8309,78.099 114.4929,77.909 C114.1549,77.719 112.6129,77.149 112.0639,77.022 C111.8899,76.982 111.3129,76.907 110.8379,76.849 C110.6659,77.002 110.4989,77.165 110.3529,77.339 C110.1869,77.538 110.0039,77.809 109.8199,78.124 C110.3149,78.14 111.0229,78.142 111.2959,78.155 C112.1979,78.199 113.3709,78.709 113.6059,78.831 C113.9579,79.014 115.0559,79.619 115.3089,79.775 C115.4429,79.857 116.2609,80.363 116.7539,80.692 C116.7599,80.686 116.7679,80.681 116.7739,80.676 C116.9999,80.449 117.3339,80.105 117.6359,79.751 C117.3089,79.533 116.8529,79.23 116.7739,79.176" id="Fill-80" fill="#FF6C6C"></path>
                                    <path d="M110.522,85.8714 L110.67,85.9244 C110.75,85.7064 110.829,85.4934 110.904,85.2984 C110.691,85.2594 110.347,85.2534 110.1,85.3014 C109.994,85.3214 109.388,85.5394 108.922,85.7094 C108.997,85.9204 109.074,86.1104 109.154,86.2884 C109.331,86.2024 109.504,86.1224 109.593,86.0964 C109.804,86.0324 110.248,85.8504 110.522,85.8714" id="Fill-82" fill="#FF6C6C"></path>
                                    <path d="M110.5366,84.9983 C110.6086,84.9983 110.8016,85.0403 110.9856,85.0893 C111.0876,84.8343 111.1786,84.6263 111.2406,84.5193 C111.3076,84.4043 111.3906,84.2373 111.4856,84.0483 L110.8596,83.8713 C110.2556,83.8433 109.5996,83.9563 109.3186,84.0553 C109.1156,84.1263 108.8256,84.2333 108.5816,84.3353 C108.6586,84.7833 108.7456,85.1523 108.8426,85.4663 C109.1646,85.3463 109.5296,85.2023 109.6776,85.1523 C109.9316,85.0683 110.3886,84.9983 110.5366,84.9983" id="Fill-84" fill="#FF6C6C"></path>
                                    <path d="M110.5366,86.1243 C110.4096,86.1173 110.1636,86.1593 109.9176,86.2653 C109.8036,86.3133 109.5306,86.4253 109.2696,86.5313 C109.6046,87.1923 110.0576,87.6863 110.0576,87.6863 C110.0576,87.6863 110.3096,86.9313 110.5906,86.1473 C110.5726,86.1413 110.5496,86.1253 110.5366,86.1243" id="Fill-86" fill="#FF6C6C"></path>
                                    <path d="M110.5015,68.7434 C110.1005,68.7864 109.0315,68.6344 108.8325,68.5744 C108.6275,68.5134 108.2635,68.3414 107.9415,68.1814 C107.9245,68.5414 107.9295,68.9434 107.9775,69.3634 C108.9195,69.7214 110.4115,70.2514 111.0925,70.3064 C112.1275,70.3904 113.1195,70.3484 113.6265,70.1584 C113.9515,70.0364 114.5335,69.9074 114.9125,69.8294 C114.8425,69.7764 114.7725,69.7294 114.7035,69.6934 C114.0095,69.3344 113.1695,68.9344 112.4615,68.5564 C111.8315,68.6794 110.8055,68.7124 110.5015,68.7434" id="Fill-88" fill="#FF6C6C"></path>
                                    <path d="M109.4028,67.4134 C109.8988,67.4814 110.3458,67.4624 110.6948,67.4144 C110.2828,67.2144 109.8948,67.1474 109.5928,66.6954 C109.1708,66.0614 108.7908,64.8794 108.2838,65.0064 C108.2838,65.0064 108.1568,66.8644 108.1568,66.7374 C108.1568,66.7184 108.1388,66.7724 108.1148,66.8744 C108.6008,67.1074 109.2318,67.3904 109.4028,67.4134" id="Fill-90" fill="#FF6C6C"></path>
                                    <path d="M117.1675,77.7757 C116.9145,77.6387 115.7805,77.0857 115.2315,76.8957 C114.6835,76.7057 113.9435,76.5367 113.5495,76.4797 C112.7045,76.3597 112.0575,76.3677 111.7895,76.3677 C111.7575,76.3677 111.6195,76.3617 111.4605,76.3547 C111.3335,76.4477 111.2005,76.5467 111.0685,76.6537 C111.4085,76.7027 111.8035,76.7577 111.8955,76.7687 C113.1195,76.9167 114.7035,77.6977 114.9575,77.8247 C115.1625,77.9267 117.0225,79.0087 117.8615,79.4757 C118.1315,79.1327 118.3365,78.8087 118.3365,78.6057 C118.3365,78.5447 118.2885,78.4547 118.2095,78.3457 C117.8545,78.1507 117.3415,77.8697 117.1675,77.7757" id="Fill-92" fill="#FF6C6C"></path>
                                    <path d="M116.0552,73.3684 C115.8662,73.4954 114.4292,74.1714 113.7332,74.3614 C113.3322,74.4704 111.7682,74.5724 111.4302,74.5724 C111.3392,74.5724 111.1982,74.5704 111.0402,74.5684 C111.4332,74.9854 111.7772,75.2994 112.0192,75.4554 C112.4492,75.4514 112.9502,75.4464 113.0572,75.4384 C114.2182,75.3534 115.6332,74.8054 115.6332,74.8054 L116.9432,74.3404 L117.5622,74.3114 L117.7592,74.0024 C117.7592,74.0024 117.2552,73.3894 116.9542,72.7914 C116.6062,73.0144 116.1662,73.2954 116.0552,73.3684" id="Fill-94" fill="#FF6C6C"></path>
                                    <path d="M114.9995,76.5501 C115.5205,76.6981 117.0055,77.3601 117.4705,77.6351 C117.4945,77.6491 118.3495,77.7001 118.4635,77.7761 C117.6995,77.0311 117.5055,75.5791 117.5055,75.5791 L117.3645,74.4251 C116.9145,74.6331 115.8565,75.1141 115.6965,75.1631 C115.4225,75.2481 113.6895,75.7971 112.6975,75.7341 C112.5685,75.7261 112.4345,75.7221 112.3015,75.7211 C112.2155,75.8161 112.0275,75.9501 111.7885,76.1191 C112.0215,76.1281 112.2575,76.1351 112.3815,76.1351 C112.8665,76.1351 114.3625,76.3701 114.9995,76.5501" id="Fill-96" fill="#FF6C6C"></path>
                                    <path d="M113.2261,81.3303 C113.0511,81.1883 111.8731,80.4923 111.4521,80.3163 C111.1241,80.1813 110.1991,79.7883 109.8681,79.6833 C109.7531,79.6463 109.4141,79.6313 109.0931,79.6243 C108.8931,80.1193 108.7191,80.6433 108.5951,81.1603 C108.9251,81.1333 109.2791,81.1103 109.5081,81.1193 C110.0581,81.1403 110.8881,81.1963 111.4941,81.3373 C111.9841,81.4513 112.6181,81.8233 112.9771,82.1473 C113.0181,82.1233 113.0561,82.0913 113.0991,82.0693 C113.2921,81.9733 113.5291,81.8803 113.7871,81.7913 C113.6191,81.6523 113.4161,81.4853 113.2261,81.3303" id="Fill-98" fill="#FF6C6C"></path>
                                    <path d="M115.7808,80.4221 C115.5798,80.2791 114.4358,79.5921 113.9718,79.3101 C113.5958,79.0821 112.4018,78.5991 111.8878,78.4931 C110.9838,78.3081 110.0028,78.3641 109.6638,78.4011 C109.5048,78.6951 109.3478,79.0221 109.2008,79.3641 C109.4448,79.3591 109.7148,79.3681 109.9308,79.4231 C110.4428,79.5511 112.1408,80.3381 112.2678,80.4221 C112.3938,80.5061 113.5648,81.2421 114.1068,81.6851 C114.9368,81.4181 115.8968,81.1711 116.4428,80.8951 C116.2408,80.7491 115.9958,80.5741 115.7808,80.4221" id="Fill-100" fill="#FF6C6C"></path>
                                    <path d="M111.9448,82.802 C111.6278,82.633 110.7058,82.675 110.3958,82.682 C110.2158,82.686 109.1568,82.901 108.7908,82.998 C108.7188,83.018 108.5808,83.058 108.4218,83.104 C108.4568,83.464 108.4958,83.785 108.5398,84.074 C108.6438,84.027 108.7548,83.982 108.8678,83.942 C109.3188,83.787 109.4308,83.702 109.9528,83.612 C110.4728,83.52 111.0288,83.632 111.2188,83.632 C111.2998,83.632 111.4568,83.706 111.6178,83.796 C111.7628,83.519 111.9348,83.216 112.1458,82.931 C112.0888,82.888 112.0218,82.843 111.9448,82.802" id="Fill-102" fill="#FF6C6C"></path>
                                    <path d="M120.4312,82.6214 L123.3342,80.7884 L122.6592,80.5914 L122.3492,80.4224 L120.0162,82.5074 C120.1822,82.5524 120.3282,82.5924 120.4312,82.6214" id="Fill-104" fill="#FF6C6C"></path>
                                    <path d="M127.1919,82.5344 L123.9009,84.7084 L124.8829,85.2794 L124.9569,85.3524 C125.9159,84.6544 127.8439,83.2854 128.4599,82.8444 L127.1919,82.5344 Z" id="Fill-106" fill="#FF6C6C"></path>
                                    <path d="M125.2065,85.6028 L125.6215,86.0178 C126.9375,85.0398 129.7965,82.9508 129.7545,83.0128 L128.9945,82.7588 L125.2065,85.6028 Z" id="Fill-108" fill="#FF6C6C"></path>
                                    <polygon id="Fill-110" fill="#FF6C6C" points="124.6011 81.2385 123.5871 80.9575 120.8951 82.8655 121.3921 83.1815"></polygon>
                                    <path d="M125.9058,86.3469 L126.7008,87.5229 L130.2048,84.8429 L131.7248,83.0969 L132.2318,82.4209 L130.1768,82.7589 L129.8948,83.2389 C129.8948,83.2389 127.2368,85.2919 125.9058,86.3469" id="Fill-112" fill="#FF6C6C"></path>
                                    <path d="M132.5698,82.6184 L131.0218,84.5614 C131.0218,84.5614 128.7978,86.4754 128.7128,86.5044 C128.6538,86.5234 127.5878,87.3444 126.9528,87.8344 C127.2628,88.1744 127.9138,88.8484 128.1348,88.7854 C128.4308,88.7004 130.2478,87.3484 130.7548,86.7164 C131.2608,86.0824 132.9508,84.3504 133.0768,84.1804 C133.2038,84.0124 134.3158,82.5344 134.3158,82.5344 L132.5698,82.6184 Z" id="Fill-114" fill="#FF6C6C"></path>
                                    <path d="M119.1392,82.2805 C119.2642,82.3085 119.4632,82.3595 119.6722,82.4155 L122.0112,80.2245 L120.7722,79.6055 L118.8852,81.7315 C118.8852,81.7315 118.7582,82.1965 119.1392,82.2805" id="Fill-116" fill="#FF6C6C"></path>
                                    <polygon id="Fill-118" fill="#FF6C6C" points="126.939 82.3089 125.925 81.9709 122.874 84.1109 123.64 84.5559"></polygon>
                                    <path d="M125.6147,81.802 L124.8267,81.436 C124.1757,81.818 122.5857,82.945 121.7857,83.434 L122.4597,83.864 L125.6147,81.802 Z" id="Fill-120" fill="#FF6C6C"></path>
                                    <path d="M141.979,76.6214 C141.979,76.6214 141.472,72.1434 137.755,69.6094 C134.039,67.0754 131.504,66.1454 127.196,67.3284 C122.888,68.5114 121.368,69.3554 120.1,70.7924 C118.833,72.2274 115.876,76.1144 115.876,76.1144 C115.876,76.1144 119.255,78.9014 120.1,79.4084 C120.945,79.9154 126.267,83.2104 129.224,83.2944 C132.18,83.3794 136.32,82.7034 137.755,81.6894 C139.192,80.6764 140.543,78.9864 140.543,78.9864 L137.08,78.4794 L141.979,76.6214 Z" id="Fill-122" fill="#FF6C6C"></path>
                                    <path d="M137.4702,72.3128 C137.4702,72.3128 136.1182,71.7208 135.3582,73.0728 C134.5982,74.4248 134.6822,74.9318 135.3582,75.1848 C136.0332,75.4388 137.9772,75.2698 138.5682,74.1708 C139.1592,73.0728 138.0022,72.4908 137.4702,72.3128" id="Fill-124" fill="#FFFFFF"></path>
                                    <path d="M136.9507,74.2561 C136.9507,74.6021 136.6697,74.8831 136.3237,74.8831 C135.9767,74.8831 135.6957,74.6021 135.6957,74.2561 C135.6957,73.9091 135.9767,73.6281 136.3237,73.6281 C136.6697,73.6281 136.9507,73.9091 136.9507,74.2561" id="Fill-126" fill="#1A1A1A"></path>
                                </g>
                            </svg>
