<svg xmlns="http://www.w3.org/2000/svg" xmlns:xlink="http://www.w3.org/1999/xlink" width="151" height="150" viewBox="0 0 151 150">
                                <defs>
                                    <path id="a" d="M0 .951H150.05V151H0z"></path>
                                </defs>
                                <g fill="none" fill-rule="evenodd">
                                    <g transform="translate(0 -.951)">
                                        <path fill="#F2F2F2" d="M149.66 68.402c4.183 41.22-25.843 78.026-67.062 82.21C41.378 154.793 4.571 124.767.39 83.547-3.794 42.33 26.231 5.522 67.451 1.34c41.22-4.182 78.026 25.843 82.21 67.063"></path>
                                    </g>
                                    <path fill="#EB8D1B" d="M100.198 20.484s.249-1.91-1.091-3.564c-1.34-1.655-2.069-1.758-2.069-1.758l-.212 3.97s-2.182.043-3.293.255c-1.112.211-3.733 1.198-3.733 1.198s-2.618-2.34-4.099-3.16c-1.481-.819-2.41-.735-2.41-.735s-.094 2.523.026 3.676c.12 1.154.9 4.303.9 4.303s-1.761 1.274-2.61 2.515c-.847 1.241-3.099 5.53-3.099 5.53s-.828 1.521-.762 2.142c.064.621-1.959 1.013-1.959 1.013s-3.999 1.225-4.928 1.771c-.93.546-2.654 2.073-2.654 2.073s-5.203.005-9.225.158c-4.022.151-10.015 2.034-15.113 3.914-5.097 1.88-13.012 6.834-16.29 10.677-3.276 3.841-7.208 9.995-7.934 12.494-.724 2.498-2.332 10.293-2.424 13.712-.09 3.42-.276 9.36 1.61 11.944 1.886 2.584 4.316 6.098 6.123 7.075 1.807.978 6.703-.253 7.483-.514.782-.26 19.354-4.537 19.354-4.537s1.137-2.004 1.164-1.737c.028.267.663 1.187.663 1.187l.602-.243.351-.933.901.892.86-.359s-.032-1.163-1.297-2.107c-1.266-.945-1.727-1.076-3.662-.694-1.934.382-13.25 3.678-13.25 3.678l1.491-2.666s4.133-2.727 4.779-3.422c.645-.695 4.51-4.06 5.846-6.713 1.338-2.652 2.922-3.805 2.597-6.91-.325-3.107-.898-6.008-2.009-6.34-1.11-.333 7.875-.196 8.142-.224.266-.028 11.76-.783 11.76-.783l1.745 10.674s2 7.956 2.126 8.302c.126.346 1.463 3.705 1.463 3.705l-.09 3.42 6.543-.058.563-1.494.657 1.994.94-.457-.154-2.316 1.065 1.593.77-.35s-.452-1.747-.526-2.457c-.073-.71-2.685-.796-2.951-.768-.266.028-2.504.082-2.504.082s-.36-8.575-.19-10.387c.17-1.813.874-8.795.969-9.613.093-.817.73-3.306.73-3.306s1.916 5.452 2.028 6.517c.11 1.066 2.525 8.708 2.894 9.657.37.948 2.271 5.415 4.213 6.827 1.944 1.411 3.502 2.594 4.114 2.44.612-.154 2.326-.064 2.326-.064l.64-1.592.78 1.443.88-.18.15-1.99 1.371 1.112.86-.36s-1.058-2.832-1.704-2.899c-.647-.068-.33.601-2.231.44-1.901-.16-4.902-2.268-5.444-4.005-.541-1.739-1.726-4.486-1.934-7.335-.208-2.85-1.261-7.764-1.362-8.74-.103-.976-1.769-4.032-1.769-4.032s3.623-3.969 4.503-7.56c.88-3.59 2.852-11.334 2.852-11.334s.651-4.914.713-5.189c.06-.275 3.031-1.879 3.784-2.406.752-.528 2.48-.313 2.48-.313s2.93-.442 3.69-.88c.761-.439 1.529.155 1.529.155s1.374-.593 1.523-.877c.15-.285.767-2.952.767-2.952l-.255-1.588-5.188-4.123.053-2.07-3.948-3.444z"></path>
                                    <path fill="#FFF" d="M109.934 30.717l-2.925.46s-1.632-.1-2.422-1.841c-.791-1.741-2.765-3.832-3.142-4.197-.376-.366-2.644-2.022-3.452-2.004-.81.017-3.374.69-4.173 1.45-.8.759-3.227 2.094-3.674 3.628-.448 1.533-.484 3.767-.43 4.3.057.536.67 3.174.67 3.174s-1.273 2.025-1.812 2.69c-.538.664-3.327 5.01-4.126 7.053-.8 2.043-2.083 6.569-2.025 7.779.06 1.21.027 8.703.5 9.947.475 1.246.09 1.935 1.367 2.087 1.279.152 2.909-1.647 3.406-2.177 1.604-1.718 3.476-3.56 4.755-7.554 1.18-3.692 2.52-9.253 2.642-10.685.12-1.431.67-5.844.67-5.844l3.814-2.12 2.488-.488c.274-.004 1.817-.067 2.865-.244.192-.032 1.917.149 2.077.116.652-.134 1.64-1.083 1.728-1.313.34-.907 1.199-4.217 1.199-4.217"></path>
                                    <path fill="#8A5210" d="M63.584 46.38c-.953-.03-2.079.022-2.609.815-.214.32-.287.71-.424 1.072-.624 1.649-2.428 2.452-3.946 3.348-.419.249-.836.523-1.14.904-.318.395-.495.88-.667 1.357l-.693 1.922c.216.17.55.043.725-.17.175-.213.252-.487.397-.723.402-.656 1.226-.881 1.954-1.133 3.252-1.125 5.953-4 6.433-7.408M64.528 53.773c-.38-.364-.987-.372-1.49-.215-.502.157-.951.45-1.447.632-.452.165-.941.235-1.361.47-.56.313-.935.89-1.124 1.505-.189.613-.21 1.264-.203 1.907.01.889.07 1.777.184 2.66a.525.525 0 0 0 .084.27c.13.164.413.112.547-.047.136-.161.165-.383.19-.593l.121-1.096c.052-.457.106-.926.311-1.34.296-.6.871-1.007 1.422-1.388.48-.33.957-.662 1.437-.993.315-.218.638-.445.858-.759.22-.315.32-.742.151-1.087M60.99 65.312c-.359-.1-.468-.562-.763-.791-.18-.14-.418-.182-.618-.292-.295-.162-.492-.465-.78-.638-.34-.202-.759-.202-1.154-.195-.025.469.004.94.085 1.402.013.077.03.158.077.219.093.12.273.135.385.237.093.083.13.217.228.294.113.09.274.078.42.064.617-.067 1.236-.137 1.854-.21M51.15 57.291c0-.288.39-.36.644-.498.328-.179.483-.58.467-.954-.016-.373-.173-.725-.34-1.059-.11-.225-.296-.485-.543-.44-.241.043-.328.332-.443.547-.24.446-.738.671-1.157.956-.234.16-.474.413-.398.685.084.3.468.371.778.401.309.03.695.15.723.46M50.292 62.498c-.183.024-.307.192-.399.352a4.35 4.35 0 0 0-.536 1.54c-.025.176-.024.391.124.49.094.063.217.056.33.048l.903-.076c.302-.024.614-.052.882-.196.266-.144.478-.437.43-.737a.248.248 0 0 0-.057-.134c-.063-.069-.166-.074-.259-.078-.335-.015-.676-.088-.95-.277-.278-.19-.478-.51-.458-.845M63.09 40.833c-.186-.006-.24-.264-.399-.359-.096-.059-.217-.049-.33-.037-.278.031-.557.06-.835.09-.126.014-.256.03-.365.094-.11.067-.187.18-.28.271-.198.193-.474.288-.68.47-.209.183-.328.533-.13.726.14.136.36.125.551.105l1.381-.138c.25-.026.506-.053.733-.158.23-.104.43-.303.466-.552.03-.187-.054-.398-.224-.479M27.605 61.273c.41.051.892.077 1.162-.234.228-.26.203-.648.304-.979.093-.303.292-.56.487-.81l1.026-1.31c.144-.184.292-.377.35-.604.043-.16.038-.33.032-.495l-.045-1.316c-.413.611-.825 1.224-1.238 1.834-.845 1.253-1.7 2.523-2.2 3.947M34.643 60.032l-.142-1.3-1.43 1.706c-.247.295-.498.596-.64.953-.197.504-.158 1.075-.331 1.588-.234.692-.823 1.204-1.136 1.865-.607 1.282-.062 2.783-.048 4.202.003.307-.018.622.068.917.08.281.254.524.404.775a5.46 5.46 0 0 1 .693 3.683c-.07.41-.156.913.168 1.174.655-.614.788-1.588.855-2.483.177-2.327.177-4.668.002-6.995-.074-.984-.18-1.985.023-2.95.243-1.154.903-2.168 1.57-3.137M41.717 58.076l-.094-.687c-.513.005-.914.445-1.174.888-.259.443-.466.945-.88 1.25-.248.18-.55.274-.807.441-.75.486-.976 1.47-1.064 2.36-.088.89-.127 1.851-.681 2.553-.17.216-.384.397-.534.628-.234.358-.292.8-.306 1.228-.036 1.12.195 2.25.011 3.354-.098.584-.31 1.178-.162 1.752.081.312.261.587.424.865a8.408 8.408 0 0 1 1.089 3.253c.029.242.049.494.171.706.122.211.382.366.611.282.131-.048.227-.162.301-.28.431-.693.322-1.585.112-2.373-.21-.787-.509-1.584-.408-2.393.074-.578.348-1.12.382-1.702.043-.734-.298-1.428-.489-2.138-.476-1.758-.031-3.62.413-5.386.077-.307.156-.619.319-.888.179-.296.448-.524.697-.764a7.936 7.936 0 0 0 1.968-3.069M47.355 59.516c.062-.121.127-.25.12-.386-.004-.136-.11-.28-.245-.274-.175.006-.254.214-.301.382a3.787 3.787 0 0 1-1.97 2.34c-.427.206-.936.367-1.144.793-.125.258-.11.562-.18.84-.16.625-.723 1.045-1.165 1.516-.442.47-.79 1.197-.438 1.738.312.07.599-.204.745-.49.145-.285.225-.615.454-.84.43-.423 1.268-.358 1.518-.907.094-.207.069-.447.108-.672.129-.75.897-1.18 1.396-1.752.552-.633.786-1.473 1.004-2.283M41.175 47.223c-.807.38-1.177 1.295-1.706 2.012-1.304 1.77-3.626 2.37-5.553 3.428-.037.02-.076.043-.098.079-.106.164.189.285.38.252 1.206-.203 2.275-.87 3.308-1.523.497-.314.996-.63 1.446-1.01a6.454 6.454 0 0 0 2.044-3.184M23.877 71.64c.241.02.422-.208.554-.411.238-.365.475-.731.714-1.096.141-.218.284-.437.378-.68.207-.535.158-1.13.105-1.702l-.12-1.335c-.018-.184-.04-.384-.17-.518l-.785 1.793c-.473 1.08-.95 2.18-1.096 3.35-.022.186-.03.395.095.534.125.138.421.094.426-.091M43.946 72.104c.59-.578.933-1.398.931-2.225 0-.181-.026-.382-.16-.505-.13-.12-.323-.13-.5-.133-.297-.006-.593-.012-.89-.02-.166-.002-.343-.004-.486.078-.145.08-.235.23-.318.373l-.608 1.046c-.073.126-.15.26-.145.407.006.214.186.389.386.467.199.077.418.082.63.106.352.04.7.135 1.023.285M51.46 69.995a.63.63 0 0 0-.738.262c-.12.201-.116.45-.108.684l.067 1.847c.002.07.01.148.065.188.045.032.105.028.158.022.256-.028.51-.068.762-.12.14-.029.283-.064.39-.157.136-.122.181-.319.186-.503.023-.783-.519-1.497-.499-2.279a.202.202 0 0 0-.19.084M48.648 73.904c-.168-.568-1.017-.638-1.481-.27-.464.368-.652.972-.864 1.525-.277.722-.65 1.431-1.24 1.93-.43.363-.951.596-1.454.848a18.962 18.962 0 0 0-4.09 2.761c.355.017.699-.105 1.033-.224 1.262-.45 2.525-.9 3.786-1.352.999-.357 2.014-.722 2.867-1.352.853-.63 1.537-1.574 1.596-2.633.03-.543-.104-1.087-.331-1.582M45.92 83.437a5.7 5.7 0 0 1 2.326-.875c.107-.016.217-.028.312-.08.198-.107.278-.356.271-.581-.017-.587-.519-1.09-1.093-1.215-.573-.124-1.182.078-1.649.433-.145.109-.282.238-.352.405-.078.188-.06.402-.029.603.06.376.161.746.305 1.097M41.609 84.478a2.436 2.436 0 0 0-1.544-.733c-.184-.015-.381-.006-.533.097-.194.133-.27.383-.427.559-.144.16-.35.25-.53.37-.18.123-.346.307-.337.522.015.365.517.516.85.368.333-.15.55-.467.825-.708a2.1 2.1 0 0 1 1.26-.518c.11-.006.26-.122.166-.178M31.832 82.396a4.33 4.33 0 0 0 3.106-1.42c.342-.38.627-.888.505-1.386-.05-.21-.17-.395-.287-.576a.398.398 0 0 0-.133-.146c-.086-.048-.193-.028-.289-.003a4.62 4.62 0 0 0-1.539.726c-.15.109-.298.229-.475.28-.125.038-.26.04-.38.088-.354.144-.433.598-.46.978-.04.52-.079 1.038-.117 1.558M22.784 81.5c-.026.164-.05.34.02.49.071.151.28.246.41.144.067-.055.094-.144.118-.228l.28-.992c.132-.475.267-.957.261-1.449a2.605 2.605 0 0 0-.559-1.574 16.731 16.731 0 0 0-.635 3.663M23.814 89.729c.228.006.409.18.596.312.185.13.457.22.628.07.116-.102.134-.272.147-.426.05-.602.137-1.202.257-1.795.027-.135.059-.274.144-.382.164-.203.499-.263.567-.514.042-.158-.051-.327-.183-.422-.132-.096-.296-.134-.455-.17-.484-.111-.97-.22-1.453-.33.11 1.224.068 2.463-.126 3.677M76.36 44.3a3.4 3.4 0 0 0 1.606-.167c.184-.065.378-.164.447-.346.04-.106.029-.224.017-.338l-.158-1.558c-.015-.143-.035-.297-.137-.398-.239-.235-.659.029-.973-.088-.16-.06-.269-.21-.412-.304-.142-.095-.38-.103-.445.056a.366.366 0 0 0-.017.132l-.046 2.657c-.002.113 0 .239.078.322.078.083.257.06.265-.053M80.818 38.466a2.704 2.704 0 0 1 1.33-.047c.09.02.205.035.255-.042a.204.204 0 0 0 .023-.112c0-.751-.622-1.335-1.196-1.82a7.902 7.902 0 0 0-.503 2.139M74.475 57.5c.074.052.176.023.26-.006l1.51-.528c.086-.031.18-.067.23-.144.052-.082.04-.187.027-.283a15.176 15.176 0 0 0-.32-1.624c-.055-.223-.141-.473-.353-.557-.111-.043-.233-.032-.351-.019l-1.028.104c-.082.008-.172.02-.23.079-.06.064-.066.162-.067.249-.01.955.084 1.91.279 2.844.019-.065.036-.132.054-.197M78.167 52.571l.804-.078c.107-.01.231-.03.29-.122.066-.109.003-.249-.062-.36-.19-.334-.382-.667-.573-1-.05-.087-.165-.186-.234-.112a.16.16 0 0 0-.034.08l-.345 1.536M76.296 82.7c.038.325.435.53.746.427.312-.103.507-.438.52-.765.01-.328-.135-.643-.329-.908-.195-.264-.439-.486-.662-.727a9.869 9.869 0 0 1-.313 2.043M78.247 87.634c.234.135.554.049.734-.152.181-.202.24-.49.216-.76a1.478 1.478 0 0 0-.373-.852c.005.66-.813 1.2-.617 1.83M75.38 73.005c.201-.268.481-.476.797-.591.112-.168.057-.406-.072-.561-.13-.156-.32-.247-.503-.334a5.382 5.382 0 0 0-.394 1.559M53 43.446c.232.385.851.307 1.17-.009.317-.316.442-.77.642-1.173a3.29 3.29 0 0 1 1.228-1.334c.252-.153.564-.333.56-.627-.8-.01-1.73.041-2.199.69-.138.192-.219.42-.298.642l-.416 1.17c-.102.288-.336.643-.62.531"></path>
                                    <path fill="#B87024" d="M87.7 63.073c-.644.886-1.576 2.314-3.406 2.178-1.829-.138-2.407.583-2.407.583s2.423 6.195 2.526 8.45c.081 1.786 3.151 9.98 3.292 9.181.14-.8 2.705-5.06 3.132-5.724.403-.627-1.372-10.156-1.37-10.637.001-.479-1.768-4.03-1.768-4.03"></path>
                                    <path fill="#C6C6C6" d="M97.371 26.87c.65-.165 1.312-.286 1.98-.362.243-.028.495-.049.73.022.227.07.42.22.604.37.62.508 1.207 1.056 1.754 1.64-1.398.127-2.93.222-4.079-.588-.38-.269-.692-.62-1-.97"></path>
                                    <path fill="#47979E" d="M100.813 27.419c.054.508-.291.96-.77 1.01-.476.05-.907-.322-.96-.829-.053-.507.292-.959.769-1.009.478-.051.908.32.96.828"></path>
                                    <path fill="#352618" d="M109.28 30.121s-1.874.504-2.27 1.057c-.119.163-.04.556-.008.627.258.563.57.312 1.133.805.587.52.5.604.5.604s.757-1.085.935-1.368c.199-.315 1.066-1.175-.29-1.725"></path>
                                    <path fill="#5B544F" d="M108.217 32.715c.135.85.334 2.03-.431 2.653-.735.598-1.546-.843-1.958-1.338-.206-.248-.57.094-.365.34.63.758 1.381 2.26 2.524 1.476 1.056-.727.892-2.142.717-3.247-.05-.318-.537-.2-.487.116M100.96 29.371c-1.859 1.76 4.204 3.033 4.98 3.161.253.041.265-.359.014-.4-.582-.096-5.858-1.392-4.72-2.468.186-.177-.087-.47-.274-.293"></path>
                                    <path fill="#5B544F" d="M99.963 30.754c-1.787 2.102 5.091 2.338 5.771 2.403.256.026.27-.375.014-.399l-2.582-.249c-.356-.035-3.84-.392-2.93-1.462.165-.194-.106-.489-.273-.293"></path>
                                    <path fill="#B87024" d="M25.485 99.595c-2.084-.854-3.84-3.381-4.056-5.334-.063-.566.475-1.74 1.46-2.1 1.497-.545 2.114-1.361 3.087-2.622.553-.716 1.637-1.707 1.818-2.593.18-.887.425-1.82 1.084-2.443.657-.623 1.855-.753 2.407-.034.44.576.296 1.394.476 2.097.259 1.013 1.3 1.767 2.345 1.696.597-.04 1.158-.315 1.755-.37.597-.052 1.313.242 1.395.835.063.467-.291.878-.633 1.202-2.47 2.343-5.757 3.987-7.33 7.008-.346.663-.6 1.38-1.043 1.983-.442.604-1.14 1.093-1.884 1.024-.745-.07-1.4-.9-1.09-1.58"></path>
                                    <path fill="#8A5210" d="M26.552 99.549c.021-1.934 1.113-3.724 2.521-5.05 1.408-1.323 3.123-2.264 4.78-3.261a70.789 70.789 0 0 0 7.16-4.93c1.326-1.038 2.649-2.145 4.232-2.723 2.425-.885 5.14-.411 7.578.435 2.439.846 4.756 2.052 7.263 2.667 2.508.614 5.352.55 7.435-.973.108.922-.363 1.843-1.051 2.466-.689.622-1.57.987-2.457 1.262a15.898 15.898 0 0 1-9.184.044c-2.6-.776-5.154-2.241-7.841-1.86-1.056.149-2.053.58-2.981 1.108a15.18 15.18 0 0 0-4.87 4.407c-.983 1.388-1.749 2.962-3.007 4.106-2.016 1.834-4.908 2.247-7.613 2.577-.416.05-.851.1-1.244-.044-.394-.143-.727-.544-.646-.956"></path>
                                    <path fill="#5B544F" d="M99.665 32.4c-.724.744.355 1.288.996 1.479 1.585.476 3.263.148 4.824-.25.25-.064.16-.454-.092-.39-.856.219-1.722.419-2.608.465a6.867 6.867 0 0 1-1.138-.028c-.197-.023-2.242-.437-1.71-.985.18-.184-.092-.477-.272-.291M109.704 32.644c.71-.143 1.425-.272 2.133-.428.432-.095.912-.2 1.266-.48.437-.348.542-.995.003-1.3-.223-.125-.438.213-.214.339.758.427-.558.902-.7.944-.265.079-.539.126-.809.18-.59.12-1.182.237-1.772.355-.253.05-.16.44.093.39M109.762 33.438c.396-.04 4.827-.528 3.874-1.544-.177-.186-.47.086-.293.273.148.16-1.766.61-1.853.625-.604.114-1.21.195-1.821.258-.255.026-.16.414.093.389"></path>
                                    <path fill="#5B544F" d="M109.774 34.105c.959-.188 4.108.778 4.175-.976.01-.256-.39-.271-.4-.014-.046 1.24-3.172.465-3.868.6-.253.05-.16.44.093.39"></path>
                                    <path fill="#E5D9CB" d="M94.894 23.91c-1.648.637-4.831 3.134-5.015 5.1-.172 1.835-.161 3.113.033 4.961.17 1.636.44.748.343 1.424-.145 1.01-1.121 2.12-1.74 2.908-2.835 3.606-4.007 6.71-5.175 10.081-1.644 4.746-.983 8.278-.823 11.67 1.04-1.17 1.664-6.322 2.199-7.824 1.084-3.039 2.168-5.969 4.18-8.42 1.019-1.239 2.37-2.163 3.18-3.564.596-1.032-1.356-4.382-.192-4.573 1.627-.268 4.032 2 4.104.814.088-1.44-3.068-3.306-3.445-3.658-2.912-2.712 2.376-7.31 5.872-9.677-1.872-.064-3.067.543-4.712 1.467"></path>
                                    <path fill="#B87024" d="M37.932 94.201c-.76 1.45-1.022 1.813-2.12 3.027-.546.606-1.941 1.555-2.73 1.765 1.815-.426 5.046-1.247 6.86-1.672 1-.234 2.01-.473 2.935-.917.63-.302 1.21-.695 1.79-1.087l1.374-.93c.718-.487.934-.689 1.766-1.516.094-.094.415-.508.497-.613.56-.725-1.2-.518-1.357-.475-3.045.833-5.085 1.492-7.928 2.275M80.774 29.411c.495 2.411-.976 4.744-2.376 6.77-1.168 1.685-2.348 3.387-3.851 4.785-.878.817-1.9 1.575-2.338 2.692-.225.573-.276 1.197-.425 1.795-.447 1.78-1.73 3.214-2.976 4.562-.131.141-.271.29-.455.345-.521.163-.938-.454-1.081-.98-.42-1.56-.21-3.21.015-4.81.134-.96.272-1.934.138-2.893-.05-.356-.134-.725-.024-1.066.112-.345.403-.596.682-.828 1.628-1.359 3.309-2.748 5.326-3.4 1.414-.458 3.054-.597 4.052-1.698.336-.37.567-.82.793-1.264l2.215-4.343"></path>
                                    <path fill="#CBC971" d="M13.467 107.948c-1.034-5.715 3.227-3.335 3.845-4.619.618-1.285 2.828-3.926 4.59-4.179 1.761-.253 6.077 2.777 7.175 3.194 1.099.415 2.32-.033 3.523-.617 1.203-.584 3.952-1.828 4.717-2.342 1.667-1.122 6.131-1.584 6.876-1.143.745.441 2.797 3.63-1.242 8.068-4.038 4.44-28.451 7.354-29.484 1.638"></path>
                                    <path fill="#AAAD63" d="M36.743 102.969c1.807 1.945-9.79 3.615-11.745 3.615s-8.517-1.172-4.273-1.983c4.244-.812 14.53-3.236 16.018-1.632"></path>
                                    <path fill="#858726" d="M20.245 105.707c.024.147 1.46.351 1.46.351s-1.195-5.105-1.784-6.442c-.588-1.336-2.73-5.03-2.977-5.167-.247-.138.663 2.508.718 2.7.055.192 2.354 7.176 2.583 8.558M23.44 105.772s1.548-.026 1.466-.315c-.082-.288-1.626-7.161-2.112-9.044-.485-1.885-2.977-5.168-3.278-5.498-.302-.33 1.784 6.078 1.935 6.605.15.529 1.81 7.99 1.989 8.252M26.448 104.862l.665-.397s-.448-5.94-.866-7.949c-.416-2.008-1.175-4.488-1.99-4.982-.816-.493-2.488-.536-2.488-.536s1.692 2.111 2.062 3.044c.369.931 1.846 6.112 1.974 7.113.13 1 .643 3.707.643 3.707M28.113 104.335l.755-.63s.6-8.625.588-9.399c-.014-.775.146-6.941.146-6.941s-1.335 4.364-1.44 5.131c-.195 1.41-.578 7.741-.573 7.995.016 1.028.373 4.043.524 3.844M30.385 104.032l.493-.45s.717-6.585.725-7.106c.007-.52.819-7.495.778-7.639-.041-.144-1.576 4.624-1.708 5.012-.207.61-.588 5.524-.621 5.921-.088 1.048.333 4.262.333 4.262M32.974 103.179s1.549-9.097 1.62-9.404c.156-.674.387-4.83.387-4.83s-1.902 4.837-2.06 5.513c-.34 1.46-.537 5.974-.537 5.974l.59 2.747zM34.314 103.346l.72-.205s.449-5.886.449-6.248c0-.363.146-4.762.18-4.461.035.302-.93 3.12-1.016 4.076-.131 1.443-.333 6.838-.333 6.838"></path>
                                    <path fill="#E5E5E5" d="M43.367 121.693c.144-.222.542-1.109 1.18-1.104.706.006.838.38.723.952-.114.571-.038 1.218-.647 1.598-.609.381-1.027.23-1.256-.076-.229-.304-.273-.949 0-1.37M48.544 121.084c.106.19.381.609.19 1.104-.189.496-.722 1.599-1.255 1.828-.534.228-1.332.034-1.547-.341-.247-.431-.415-1.123.367-2.02.758-.87 1.208-.935 1.408-.952.2-.015.684.11.837.381M49.725 123.33c.366-.014.788.438.8.8.02.666-.343 1.218-.724 1.675-.381.457-1.142.914-1.713.647-.571-.267-.876-1.028-.381-1.637.496-.609.703-.699 1.075-1.066.274-.27.645-.407.943-.419M45.341 124.477c-.308-.071-.905-.33-1.605-.282-.436.029-1.175.402-1.663 1-.433.533-.952 2.323-1.142 3.123-.191.8-.533 3.008.038 3.616.571.609 1.637.229 2.513-.305.875-.532 2.893-1.98 3.311-2.968.419-.991.411-1.796.038-2.018-.51-.305-.734-.41-.658-1.363.029-.372-.536-.734-.832-.803"></path>
                                    <path fill="#D8D8D8" d="M57.892 124.022c.038-.343.174-1.559-.457-1.903-.461-.251-.793-.132-1.142.076-.372.224-.838 1.028-.761 1.714.076.684.266 1.217.723 1.56.457.343.913.19 1.18-.227.267-.42.457-1.22.457-1.22M60.138 121.51c-.38-.082-.886.263-1.065.609-.333.64-.686 1.142-.534 1.98.153.838.619 1.209 1.066 1.142.607-.091 1.219-.114 1.485-1.028s.152-1.408-.038-1.865c-.19-.457-.471-.741-.914-.838M62.803 124.137c-.164-.164-.647-.457-1.028.152-.381.61-.99 1.256-.837 1.827.152.572.688.905 1.027.876.276-.023.648-.304.914-1.104.267-.8.229-1.446-.076-1.751M58.501 126.002c-.412-.006-.457.457-.8.533-.343.076-1.21.084-1.463.196-.426.191-.669.261-.973 1.593-.305 1.333-.19 3.084-.038 3.693s.367 2.252.8 2.36c.734.185 2.174-.899 3.007-1.789.906-.969 1.76-2.107 2.018-3.235.154-.678-.457-1.562-.8-2.056-.343-.495-1.024-1.284-1.75-1.295"></path>
                                    <path fill="#D1D1D1" d="M73.3 108.248c.162-.209.633-1.06 1.269-1 .703.063.802.448.64 1.008-.161.558-.139 1.21-.778 1.54-.639.327-1.043.14-1.245-.182-.202-.323-.194-.97.114-1.366M78.51 108.073c.091.2.329.64.098 1.116-.232.478-.855 1.533-1.405 1.716-.55.184-1.331-.077-1.513-.469-.21-.449-.32-1.153.535-1.98.828-.805 1.282-.832 1.482-.832.201.001.673.166.803.45M79.498 110.41c.366.017.75.503.73.864-.035.665-.443 1.185-.86 1.61-.418.422-1.215.814-1.762.501-.546-.314-.787-1.098-.243-1.663.545-.566.76-.638 1.16-.973.296-.246.677-.352.975-.339M75.034 111.187c-.3-.097-.875-.404-1.576-.416-.437-.007-1.205.303-1.74.859-.477.494-1.143 2.235-1.4 3.016-.256.78-.782 2.952-.263 3.607.517.655 1.612.365 2.53-.093.916-.458 3.047-1.732 3.547-2.683.5-.951.56-1.755.207-2.008-.484-.345-.699-.468-.543-1.413.06-.367-.473-.775-.762-.87"></path>
                                    <path fill="#C6C6C6" d="M85.684 115.516c.095-.331.432-1.508-.132-1.953-.412-.325-.76-.264-1.14-.115-.403.157-.997.873-1.036 1.56-.04.69.059 1.246.453 1.66.392.415.869.34 1.2-.027.334-.368.655-1.125.655-1.125M88.319 113.414c-.36-.145-.917.111-1.152.423-.436.576-.868 1.011-.857 1.862.01.852.407 1.296.86 1.305.614.012 1.22.091 1.635-.766.416-.856.386-1.363.275-1.845-.112-.482-.34-.809-.761-.979M90.507 116.45c-.135-.189-.562-.559-1.039-.022-.478.537-1.187 1.073-1.132 1.662.055.588.528 1.006.867 1.035.277.023.69-.193 1.086-.936.396-.744.467-1.388.218-1.739M85.953 117.57c-.404-.075-.526.373-.877.391-.35.018-1.207-.12-1.476-.05-.453.115-.703.143-1.225 1.406-.524 1.263-.704 3.01-.655 3.635.047.626-.015 2.281.392 2.461.694.304 2.295-.524 3.265-1.262 1.055-.803 2.088-1.783 2.53-2.853.266-.64-.189-1.615-.444-2.16-.255-.545-.795-1.436-1.51-1.569"></path>
                                    <path fill="#BCBCBC" d="M100.33 101.49c.16-.21.632-1.062 1.267-1.002.703.064.802.45.641 1.01-.162.558-.139 1.21-.778 1.538-.639.328-1.044.141-1.246-.18-.202-.324-.193-.97.115-1.367M105.538 101.316c.091.197.33.638.1 1.114-.233.478-.856 1.533-1.407 1.716-.549.184-1.33-.076-1.512-.469-.21-.449-.32-1.153.534-1.98.828-.805 1.282-.832 1.483-.832.2.002.672.166.802.45M106.528 103.651c.364.017.748.503.728.864-.034.665-.442 1.185-.86 1.61-.418.422-1.215.814-1.761.501-.547-.314-.787-1.098-.243-1.663.544-.566.76-.638 1.16-.973.296-.246.677-.352.975-.339M102.063 104.428c-.301-.097-.874-.404-1.576-.415-.437-.008-1.204.302-1.74.858-.476.494-1.143 2.235-1.4 3.016-.256.78-.781 2.952-.263 3.607.518.655 1.612.365 2.529-.093.917-.458 3.049-1.732 3.549-2.683.5-.951.559-1.755.206-2.007-.484-.346-.7-.47-.542-1.414.06-.367-.473-.775-.763-.87"></path>
                                    <path fill="#ADADAD" d="M113.554 101.603c.095-.331.432-1.508-.132-1.953-.412-.325-.76-.264-1.14-.115-.403.157-.997.873-1.036 1.56-.04.69.059 1.246.452 1.66.393.414.869.34 1.202-.027.333-.368.654-1.125.654-1.125M116.189 99.501c-.361-.145-.917.111-1.153.423-.436.576-.867 1.011-.857 1.862.01.852.407 1.296.86 1.305.614.012 1.22.091 1.636-.766.415-.856.386-1.363.275-1.845-.112-.482-.341-.81-.761-.979M118.376 102.537c-.134-.189-.562-.559-1.039-.022-.477.537-1.186 1.073-1.13 1.662.054.588.526 1.006.866 1.035.277.023.69-.193 1.085-.936.397-.744.468-1.388.218-1.739M113.823 103.656c-.405-.075-.527.374-.878.392-.35.017-1.207-.12-1.475-.05-.453.115-.703.143-1.226 1.406-.524 1.263-.703 3.01-.655 3.635.048.626-.015 2.281.393 2.461.694.304 2.295-.524 3.265-1.262 1.055-.803 2.088-1.783 2.53-2.853.266-.64-.189-1.615-.444-2.16-.255-.546-.795-1.436-1.51-1.569"></path>
                                    <path fill="#999" d="M117.512 77.713c.162-.21.633-1.061 1.269-1.001.703.064.802.449.64 1.009-.161.558-.138 1.21-.777 1.539-.64.328-1.044.14-1.246-.181-.202-.323-.193-.97.114-1.366M122.722 77.54c.09.197.329.638.098 1.114-.231.478-.854 1.533-1.405 1.716-.55.184-1.33-.077-1.512-.469-.21-.449-.32-1.153.534-1.98.828-.805 1.282-.832 1.483-.832.2.001.672.166.802.45M123.711 79.875c.365.017.75.503.73.864-.036.665-.444 1.185-.86 1.609-.419.423-1.216.815-1.763.502-.546-.314-.786-1.098-.242-1.663.544-.566.76-.638 1.16-.973.296-.246.677-.352.975-.339M119.246 80.651c-.3-.097-.874-.404-1.576-.416-.437-.007-1.204.303-1.74.86-.476.493-1.143 2.234-1.399 3.015-.257.78-.783 2.952-.264 3.607.518.655 1.612.365 2.53-.093.916-.458 3.048-1.732 3.548-2.683.5-.95.558-1.755.206-2.008-.484-.345-.699-.468-.542-1.413.06-.367-.473-.775-.763-.869"></path>
                                    <path fill="#828282" d="M135.77 68.69c.095-.33.432-1.507-.132-1.951-.412-.327-.76-.266-1.14-.117-.403.157-.997.874-1.036 1.561-.04.69.059 1.245.452 1.66.393.414.869.34 1.202-.028.333-.367.654-1.124.654-1.124M138.405 66.59c-.362-.146-.918.11-1.154.422-.436.576-.867 1.012-.857 1.862.01.852.407 1.296.862 1.305.613.012 1.219.09 1.635-.766.415-.855.386-1.363.275-1.844-.112-.483-.341-.81-.761-.98M140.592 69.625c-.134-.188-.562-.559-1.039-.021-.477.536-1.186 1.072-1.131 1.661.055.589.527 1.006.867 1.035.277.023.689-.193 1.085-.936.397-.744.467-1.387.218-1.739M136.04 70.744c-.406-.074-.528.374-.879.392-.35.018-1.207-.12-1.475-.05-.453.115-.703.144-1.226 1.407-.524 1.263-.703 3.008-.655 3.634.048.626-.015 2.281.393 2.461.694.304 2.295-.524 3.265-1.26 1.055-.805 2.088-1.785 2.53-2.855.266-.64-.189-1.615-.444-2.16-.255-.545-.795-1.436-1.51-1.569"></path>
                                    <path fill="#707070" d="M129.251 48.69c.074-.255.201-1.22.814-1.396.678-.197.912.125.966.705.054.578.313 1.176-.162 1.715-.474.54-.919.514-1.225.288-.306-.227-.534-.832-.393-1.313M134.036 46.622c.157.151.54.475.5 1.003-.04.53-.235 1.74-.68 2.11-.446.372-1.267.415-1.58.117-.36-.34-.719-.957-.227-2.04.476-1.05.89-1.242 1.076-1.315.187-.072.686-.09.911.125M135.812 48.436c.346-.118.88.194.994.537.21.632.022 1.266-.213 1.812-.233.547-.832 1.203-1.455 1.11-.624-.091-1.134-.732-.834-1.458.3-.726.473-.871.724-1.33.185-.337.5-.574.784-.671M131.94 50.79c-.315.02-.962-.056-1.62.19-.408.153-1.01.721-1.305 1.435-.263.635-.246 2.498-.2 3.318.047.821.352 3.035 1.073 3.454.722.42 1.634-.25 2.32-1.01.686-.763 2.205-2.727 2.323-3.795.117-1.069-.121-1.838-.542-1.945-.576-.145-.821-.18-1.022-1.117-.078-.364-.723-.549-1.027-.53"></path>
                                    <path fill="#CBC876" d="M99.23 67.904c-.634-3.505 1.979-2.045 2.358-2.833.379-.788 1.734-2.407 2.814-2.563 1.08-.155 3.727 1.704 4.4 1.958.674.255 1.423-.019 2.16-.377.739-.358 2.424-1.12 2.893-1.436 1.022-.688 3.76-.972 4.217-.7.456.27 1.715 2.223-.761 4.946-2.477 2.723-17.447 4.51-18.081 1.005"></path>
                                    <path fill="#858726" d="M103.237 65.862c.007.112 1.069.372 1.069.372s-.517-3.919-.86-4.965c-.341-1.046-1.674-3.976-1.85-4.097-.174-.123.313 1.93.338 2.078.029.148 1.234 5.558 1.303 6.612M105.627 66.148s1.164.096 1.124-.126c-.04-.224-.687-5.494-.91-6.943-.226-1.45-1.85-4.098-2.052-4.367-.202-.27.887 4.692.96 5.1.073.406.765 6.127.878 6.337M107.952 65.69l.527-.248s.106-4.49-.057-6.027c-.163-1.538-.548-3.454-1.123-3.886-.575-.432-1.826-.587-1.826-.587s1.112 1.71 1.32 2.435c.208.727.93 4.723.953 5.484.022.76.206 2.828.206 2.828M109.24 65.418l.612-.416s1.093-6.426 1.141-7.008c.047-.581.627-5.195.627-5.195s-1.326 3.175-1.464 3.742c-.25 1.043-1.009 5.764-1.024 5.955-.064.772-.02 3.06.108 2.922M110.967 65.36l.404-.303s1.027-4.884 1.072-5.275c.044-.39 1.171-5.562 1.152-5.672-.021-.11-1.526 3.351-1.654 3.633-.201.44-.852 4.1-.907 4.395-.144.78-.067 3.222-.067 3.222M112.973 64.912s1.838-6.709 1.914-6.934c.168-.494.649-3.594.649-3.594s-1.786 3.487-1.954 3.983c-.363 1.07-.847 4.441-.847 4.441l.238 2.104zM113.966 65.137l.555-.1s.774-4.381.801-4.654c.028-.272.464-3.56.467-3.332.004.229-.929 2.273-1.065 2.982-.205 1.073-.758 5.104-.758 5.104"></path>
                                    <path fill="#AAAD63" d="M115.027 65.208c1.275.934-6.908 1.735-8.287 1.735-1.38 0-6.01-.562-3.016-.952 2.995-.389 10.252-1.553 11.303-.783"></path>
                                </g>
                            </svg>
