<svg width="150px" height="150px" viewBox="0 0 150 150" version="1.1" xmlns="http://www.w3.org/2000/svg" xmlns:xlink="http://www.w3.org/1999/xlink">
                                <!-- Generator: Sketch 50.2 (55047) - http://www.bohemiancoding.com/sketch -->
                                <title>tiger icon_new</title>
                                <desc>Created with Sketch.</desc>
                                <defs>
                                    <polygon id="path-1" points="0.0002 0 150 0 150 149.9999 0.0002 149.9999"></polygon>
                                </defs>
                                <g id="tiger-icon_new" stroke="none" stroke-width="1" fill="none" fill-rule="evenodd">
                                    <g id="Group-3">
                                        <mask id="mask-2" fill="white">
                                            <use xlink:href="#path-1"></use>
                                        </mask>
                                        <g id="Clip-2"></g>
                                        <path d="M150.0002,74.9999 C150.0002,116.4209 116.4212,149.9999 75.0002,149.9999 C33.5782,149.9999 0.0002,116.4209 0.0002,74.9999 C0.0002,33.5789 33.5782,-0.0001 75.0002,-0.0001 C116.4212,-0.0001 150.0002,33.5789 150.0002,74.9999" id="Fill-1" fill="#F2F2F2" mask="url(#mask-2)"></path>
                                    </g>
                                    <path d="M73.013,30.5321 C72.787,31.8251 72.794,33.1591 73.033,34.4501 C73.088,34.7511 73.229,35.1161 73.534,35.1351 C73.827,35.1531 74.015,34.8331 74.115,34.5561 C74.509,33.4641 74.673,32.2891 74.593,31.1301 C74.57,30.7901 74.519,30.4361 74.318,30.1621 C74.116,29.8881 73.719,29.7301 73.423,29.8971 C72.929,30.1761 73.142,30.9521 72.869,31.4491" id="Fill-4" fill="#6B2D1A"></path>
                                    <path d="M81.4426,30.559 C80.1086,30.196 78.6696,30.225 77.3506,30.642 C77.1066,30.719 76.8556,30.816 76.6866,31.008 C76.5166,31.2 76.4586,31.513 76.6206,31.71 C76.7806,31.905 77.0696,31.915 77.3206,31.909 C78.7916,31.874 80.2626,31.839 81.7336,31.804 C81.9196,31.799 82.1186,31.79 82.2696,31.681 C82.4816,31.528 82.5236,31.211 82.4216,30.971 C82.3176,30.73 82.1006,30.557 81.8726,30.429" id="Fill-6" fill="#6B2D1A"></path>
                                    <path d="M80.844,33.3842 L78.354,33.2872 C78.059,33.2762 77.753,33.2662 77.477,33.3732 C77.201,33.4802 76.96,33.7362 76.968,34.0312 C76.976,34.3612 77.285,34.6152 77.606,34.6942 C77.925,34.7722 78.26,34.7202 78.589,34.7062 C79.129,34.6842 79.672,34.7652 80.181,34.9452 C80.893,35.1962 81.542,35.6362 82.286,35.7612 C82.372,35.7752 82.466,35.7842 82.542,35.7402 C82.651,35.6782 82.679,35.5342 82.678,35.4092 C82.675,34.9582 82.44,34.5362 82.138,34.2012" id="Fill-8" fill="#6B2D1A"></path>
                                    <path d="M68.8059,30.8105 C67.6599,30.8855 66.5429,31.1855 65.4409,31.5055 C65.1699,31.5835 64.8919,31.6675 64.6749,31.8475 C64.4589,32.0265 64.3179,32.3285 64.4099,32.5945 C64.4939,32.8385 64.7519,32.9895 65.0089,33.0225 C65.2669,33.0555 65.5249,32.9925 65.7769,32.9295 C66.6989,32.7005 67.6199,32.4715 68.5419,32.2415 C68.8659,32.1615 69.1979,32.0765 69.4649,31.8775 C69.7319,31.6785 69.9199,31.3335 69.8339,31.0125 C69.7559,30.7155 69.4659,30.5125 69.1659,30.4465" id="Fill-10" fill="#6B2D1A"></path>
                                    <path d="M69.2415,33.6591 C68.6055,33.8591 67.9705,34.0581 67.3355,34.2591 C66.4955,34.5221 65.6115,34.8151 65.0355,35.4801 C64.8575,35.6851 64.7105,35.9701 64.8155,36.2201 C64.9695,36.5821 65.4845,36.5681 65.8655,36.4691 C66.9405,36.1891 67.9685,35.7281 68.8925,35.1131 C69.1435,34.9461 69.3935,34.7611 69.5505,34.5021 C69.7065,34.2441 69.7485,33.8961 69.5785,33.6471" id="Fill-12" fill="#6B2D1A"></path>
                                    <path d="M61.3528,39.9032 C62.8008,39.8732 64.6118,39.8422 66.3008,40.7482 C67.7108,41.5042 69.2448,43.9792 69.4388,44.3682 C69.4548,44.3992 67.1428,44.7752 65.8688,44.3292 C64.3728,43.8052 64.1938,43.8852 62.6938,42.4212 C61.7288,41.4782 61.3468,39.8842 61.3528,39.9032" id="Fill-14" fill="#FFFFFF"></path>
                                    <path d="M63.5081,42.4662 C63.3181,41.5002 63.8661,40.5782 64.7351,40.4072 C65.6021,40.2372 66.4591,40.8812 66.6501,41.8472 C66.8401,42.8142 66.2911,43.7352 65.4231,43.9062 C64.5561,44.0772 63.6981,43.4322 63.5081,42.4662" id="Fill-16" fill="#6BC4C9"></path>
                                    <path d="M65.8958,41.4042 C65.8788,41.1012 65.6248,40.8682 65.3268,40.8852 C65.0288,40.9022 64.7998,41.1612 64.8168,41.4642 C64.8338,41.7672 65.0888,42.0002 65.3868,41.9832 C65.6848,41.9662 65.9128,41.7082 65.8958,41.4042" id="Fill-18" fill="#222D2D"></path>
                                    <path d="M88.4475,39.6317 C86.9995,39.6017 85.1895,39.5707 83.4995,40.4767 C82.0895,41.2317 80.5555,43.7077 80.3615,44.0967 C80.3465,44.1277 82.6585,44.5037 83.9315,44.0577 C85.4275,43.5337 85.6075,43.6137 87.1065,42.1497 C88.0725,41.2067 88.4545,39.6127 88.4475,39.6317" id="Fill-20" fill="#FFFFFF"></path>
                                    <path d="M86.2923,42.1947 C86.4823,41.2287 85.9343,40.3067 85.0663,40.1357 C84.1983,39.9657 83.3413,40.6097 83.1503,41.5757 C82.9603,42.5427 83.5103,43.4637 84.3773,43.6347 C85.2443,43.8057 86.1033,43.1607 86.2923,42.1947" id="Fill-22" fill="#6BC4C9"></path>
                                    <path d="M83.9046,41.1327 C83.9216,40.8297 84.1766,40.5967 84.4746,40.6137 C84.7726,40.6307 85.0006,40.8897 84.9836,41.1927 C84.9666,41.4957 84.7116,41.7287 84.4136,41.7117 C84.1156,41.6947 83.8876,41.4357 83.9046,41.1327" id="Fill-24" fill="#222D2D"></path>
                                    <path d="M69.3899,70.9203 C71.8579,71.2673 74.3349,71.4223 76.8259,71.3043 C78.0069,71.2483 79.7869,71.4693 80.4809,70.3413 C80.6759,70.0233 80.4589,69.5833 80.0759,69.5743 C77.8179,69.5263 75.5599,69.4793 73.3019,69.4303 C71.8429,69.3993 70.1789,69.0583 68.8729,69.8403 C68.5489,70.0363 68.5039,70.6803 68.9609,70.7583 C72.3789,71.3453 75.7039,70.3743 79.1309,70.4933 C79.0979,70.1653 79.0649,69.8363 79.0329,69.5073 C77.2909,69.7313 75.5539,69.7853 73.8059,69.6053 C72.6209,69.4833 71.5269,69.1713 70.3399,69.3433 C69.9859,69.3953 69.8159,69.9323 70.0909,70.1713 C70.9369,70.9063 71.7329,70.9323 72.8469,70.9043 C74.8329,70.8553 76.8199,70.7613 78.8049,70.6903 C78.8169,70.3573 78.8279,70.0243 78.8399,69.6913 C75.8149,69.9303 72.8139,69.8993 69.7939,69.5953 C69.7829,69.9283 69.7709,70.2613 69.7599,70.5953 C73.0999,70.7263 76.6839,71.2583 79.9369,70.2913 C80.4809,70.1293 80.4079,69.3573 79.8379,69.3053 C77.4809,69.0923 75.1609,69.3103 72.8199,69.5803 C72.1819,69.6533 72.4179,70.6263 73.0509,70.5533 C75.3229,70.2923 77.5239,70.0983 79.8029,70.3043 C79.7709,69.9763 79.7379,69.6473 79.7039,69.3183 C76.5629,70.2523 73.0309,69.7223 69.7939,69.5953 C69.1459,69.5703 69.1239,70.5313 69.7599,70.5953 C72.7789,70.8983 75.7809,70.9293 78.8049,70.6903 C79.4329,70.6403 79.4939,69.6673 78.8399,69.6913 C77.5159,69.7383 76.1929,69.7863 74.8689,69.8333 C73.7159,69.8753 71.7809,70.3223 70.8229,69.4893 C70.7389,69.7653 70.6559,70.0413 70.5729,70.3163 C72.1079,70.0943 73.7539,70.6563 75.3029,70.7093 C76.6309,70.7543 77.9489,70.6493 79.2639,70.4803 C79.8329,70.4073 79.7149,69.5133 79.1649,69.4943 C75.8489,69.3783 72.5639,70.3713 69.2609,69.8043 C69.2889,70.1093 69.3189,70.4163 69.3479,70.7213 C70.7619,69.8733 73.3789,70.4323 74.9609,70.4663 C76.6539,70.5023 78.3469,70.5383 80.0399,70.5743 C79.9059,70.3183 79.7699,70.0633 79.6349,69.8073 C79.0399,70.7743 75.4749,70.3603 74.3749,70.3413 C72.7139,70.3113 71.0689,70.1523 69.4249,69.9203 C68.7879,69.8313 68.7579,70.8313 69.3899,70.9203" id="Fill-26" fill="#F4F4F4"></path>
                                    <path d="M79.0764,69.8837 C78.2494,70.0417 77.4474,70.0987 76.6064,70.0677 C76.5954,70.4007 76.5834,70.7347 76.5714,71.0677 C77.6954,71.0117 78.7674,70.8837 79.8714,70.6657 C80.5194,70.5377 80.2594,69.6297 79.6384,69.6937 C76.7604,69.9887 73.8744,69.9877 71.0004,69.6237 C70.0674,69.5057 68.9124,69.0957 68.4974,70.1667 C68.3724,70.4877 68.6554,70.7857 68.9564,70.8157 C71.6934,71.0867 74.4314,71.1317 77.1744,70.8847 C78.1314,70.7987 79.9724,71.0377 80.4294,69.9637 C80.5574,69.6607 80.2684,69.3217 79.9704,69.3137 C77.0274,69.2437 74.0854,69.1737 71.1424,69.1027 C70.1594,69.0787 68.4974,68.8027 68.5114,70.1977 C68.5164,70.8397 69.5164,70.8777 69.5104,70.2327 C69.5084,69.9827 79.0904,70.2937 79.9344,70.3137 C79.7814,70.0967 79.6284,69.8807 79.4744,69.6637 C79.3044,70.0667 75.0684,70.0297 74.3334,70.0467 C72.5454,70.0847 70.7704,69.9927 68.9914,69.8167 C69.1444,70.0327 69.2984,70.2497 69.4514,70.4657 C69.4884,70.3707 74.2014,70.8947 74.7224,70.9067 C76.4444,70.9447 78.1584,70.8417 79.8714,70.6657 C79.7944,70.3417 79.7174,70.0177 79.6384,69.6937 C78.6324,69.8917 77.6324,70.0177 76.6064,70.0677 C75.9724,70.0987 75.9184,71.0427 76.5714,71.0677 C77.5154,71.1027 78.3814,71.0337 79.3074,70.8567 C79.9404,70.7367 79.7084,69.7637 79.0764,69.8837" id="Fill-28" fill="#F4F4F4"></path>
                                    <polygon id="Fill-30" fill="#1C3040" points="62.4221 68.0683 45.6501 76.4273 30.6331 117.0953 36.2641 123.6643 51.2801 123.9773 44.0851 115.8433 47.2131 113.3413 53.4701 122.4133 96.0151 124.2903 102.5841 111.7773 105.4001 117.7213 99.7691 124.6033 112.5951 126.1673 118.5381 117.0953 107.5901 78.6173 83.6811 68.4473"></polygon>
                                    <polygon id="Fill-32" fill="#2F5F94" points="64.7473 69.7592 55.6593 77.3652 65.0453 88.3152 69.1113 87.6892 68.8183 70.1802"></polygon>
                                    <polygon id="Fill-34" fill="#2F5F94" points="83.3089 68.7411 93.1409 76.7201 85.2999 88.8231 78.9079 86.8291"></polygon>
                                    <path d="M64.7473,69.7592 C64.7473,69.7592 68.9943,87.7092 69.1113,87.6892 C70.4913,87.4592 78.1353,87.1012 79.3763,86.9462 C79.8463,86.8872 83.9513,68.9972 83.9513,68.9972 L80.0433,70.1802 L64.7473,69.7592 Z" id="Fill-36" fill="#E0E0E2"></path>
                                    <path d="M75.094,75.3617 C75.094,75.7017 74.819,75.9777 74.479,75.9777 C74.138,75.9777 73.863,75.7017 73.863,75.3617 C73.863,75.0217 74.138,74.7457 74.479,74.7457 C74.819,74.7457 75.094,75.0217 75.094,75.3617" id="Fill-38" fill="#0C002E"></path>
                                    <path d="M75.1526,79.5556 C75.1526,79.8476 74.9166,80.0836 74.6256,80.0836 C74.3336,80.0836 74.0966,79.8476 74.0966,79.5556 C74.0966,79.2636 74.3336,79.0276 74.6256,79.0276 C74.9166,79.0276 75.1526,79.2636 75.1526,79.5556" id="Fill-40" fill="#0C002E"></path>
                                    <path d="M75.2708,83.2509 C75.2708,83.5429 75.0348,83.7789 74.7428,83.7789 C74.4518,83.7789 74.2138,83.5429 74.2138,83.2509 C74.2138,82.9589 74.4518,82.7229 74.7428,82.7229 C75.0348,82.7229 75.2708,82.9589 75.2708,83.2509" id="Fill-42" fill="#0C002E"></path>
                                    <path d="M100.0237,118.4594 L49.5307,118.4594 C47.3457,118.4594 45.5587,116.6724 45.5587,114.4874 L45.5587,84.8084 C45.5587,82.6234 47.3457,80.8364 49.5307,80.8364 L100.0237,80.8364 C102.2087,80.8364 103.9957,82.6234 103.9957,84.8084 L103.9957,114.4874 C103.9957,116.6724 102.2087,118.4594 100.0237,118.4594" id="Fill-44" fill="#BFBFBF"></path>
                                    <path d="M79.2268,101.1469 C79.2268,103.8709 77.0188,106.0789 74.2948,106.0789 C71.5718,106.0789 69.3638,103.8709 69.3638,101.1469 C69.3638,98.4229 71.5718,96.2149 74.2948,96.2149 C77.0188,96.2149 79.2268,98.4229 79.2268,101.1469" id="Fill-46" fill="#FFFFFF"></path>
                                    <path d="M73.8362,103.0492 C73.8362,102.8072 74.0002,102.6362 74.2292,102.6362 C74.4582,102.6362 74.6152,102.8072 74.6152,103.0492 C74.6152,103.2782 74.4652,103.4552 74.2232,103.4552 C73.9932,103.4552 73.8362,103.2782 73.8362,103.0492 Z M73.9812,102.1322 L73.9672,101.9622 C73.9282,101.6082 74.0462,101.2222 74.3732,100.8292 C74.6682,100.4832 74.8312,100.2272 74.8312,99.9322 C74.8312,99.5982 74.6222,99.3752 74.2092,99.3692 C73.9742,99.3692 73.7122,99.4482 73.5482,99.5722 L73.3912,99.1592 C73.6072,99.0022 73.9812,98.8982 74.3272,98.8982 C75.0802,98.8982 75.4212,99.3622 75.4212,99.8612 C75.4212,100.3052 75.1722,100.6262 74.8572,101.0002 C74.5692,101.3402 74.4652,101.6292 74.4842,101.9622 L74.4902,102.1322 L73.9812,102.1322 Z" id="Fill-48" fill="#777777"></path>
                                    <path d="M53.2815,44.7763 C53.2815,44.7763 50.7475,45.8023 50.3855,48.3973 C50.0225,50.9913 50.6265,55.0953 50.6265,56.3623 C50.6265,57.6303 47.4275,56.1813 47.4885,56.6043 C47.5485,57.0263 50.8675,63.1213 55.9365,66.0183 C61.0065,68.9143 64.7475,69.7593 64.7475,69.7593 C64.7475,69.7593 58.1085,62.8803 57.3855,61.1903 C56.6605,59.5003 54.2475,51.0523 54.2475,51.0523 L53.2815,44.7763 Z" id="Fill-50" fill="#FFFFFF"></path>
                                    <path d="M95.7942,43.5238 C95.7942,43.5238 98.0452,44.5328 98.3662,47.0848 C98.6892,49.6368 98.1522,53.6728 98.1522,54.9198 C98.1522,56.1658 100.9932,54.7408 100.9402,55.1568 C100.8862,55.5718 97.9382,61.5668 93.4362,64.4158 C88.9342,67.2648 85.6102,68.0958 85.6102,68.0958 C85.6102,68.0958 91.5062,61.3298 92.1492,59.6678 C92.7932,58.0058 94.9372,49.6958 94.9372,49.6958 L95.7942,43.5238 Z" id="Fill-52" fill="#FFFFFF"></path>
                                    <path d="M75.6848,25.5409 C77.8578,25.6619 64.2188,25.2989 58.1848,31.0929 C52.1498,36.8859 52.5258,40.1279 51.9828,42.9349 C51.3248,46.3349 52.5118,51.6099 52.5118,51.6099 C52.5118,51.6099 53.7028,59.0469 56.8568,63.0759 C59.1738,66.0359 61.7588,68.6419 64.7018,69.7139 C67.3978,70.6959 72.0638,71.4039 75.5638,70.9209 C79.0638,70.4379 85.3868,69.3279 88.1168,67.4209 C91.8108,64.8399 95.0698,62.3959 97.0468,55.2309 C98.4198,50.2569 99.5948,43.9299 98.1328,39.6619 C96.9458,36.1949 93.0648,29.6449 88.3578,27.9549 C83.6508,26.2649 75.6848,25.5409 75.6848,25.5409" id="Fill-54" fill="#EB8D1B"></path>
                                    <path d="M61.8352,30.7304 C61.8352,30.7304 62.4392,27.2304 59.9042,24.2134 C57.3692,21.1954 52.4212,19.6264 52.4212,19.6264 C52.4212,19.6264 51.5202,23.5644 52.0602,27.4724 C52.3452,29.5374 54.4732,33.5064 56.5242,34.1094 C58.5762,34.7134 61.8352,30.7304 61.8352,30.7304" id="Fill-56" fill="#EB8D1B"></path>
                                    <path d="M91.7669,31.0927 C91.7669,31.0927 92.9299,28.3807 93.8189,27.2307 C95.8839,24.5587 100.8189,23.1267 100.8189,23.1267 C100.8189,23.1267 101.6769,28.1797 100.9399,30.4887 C100.6599,31.3647 99.3709,33.3857 99.3709,33.3857 C99.3709,33.3857 96.8359,36.6447 96.2329,36.7647 C95.6289,36.8857 91.7669,31.0927 91.7669,31.0927" id="Fill-58" fill="#EB8D1B"></path>
                                    <path d="M71.5344,43.266 C71.3494,42.967 68.9464,39.754 67.3704,38.801 C65.0774,37.412 60.5824,37.895 59.4504,38.092 C58.4824,38.259 58.0934,38.635 57.8664,39.313 C57.6334,40.013 58.0324,41.652 59.6774,43.342 C61.1974,44.904 63.9914,46.645 66.7074,46.706 C68.5174,46.746 71.2934,45.921 71.7754,45.559 C72.2594,45.197 72.3194,44.534 71.5344,43.266" id="Fill-60" fill="#8A5210"></path>
                                    <path d="M78.2757,42.8437 C78.4617,42.5447 80.1337,40.0827 82.2157,38.8157 C84.6507,37.3337 89.6917,37.0077 90.5867,37.4127 C91.5847,37.8647 91.7307,38.5047 91.8557,39.1327 C91.9917,39.8117 91.7657,41.4857 90.3447,43.2057 C88.9567,44.8867 85.7007,46.2837 83.1037,46.2837 C81.2927,46.2837 78.5167,45.4987 78.0347,45.1367 C77.5517,44.7747 77.4917,44.1117 78.2757,42.8437" id="Fill-62" fill="#8A5210"></path>
                                    <path d="M76.9221,40.265 L72.8181,40.024 L70.1631,53.3 C70.1631,53.3 79.8181,52.334 80.4221,52.938 C81.0261,53.541 76.9221,40.265 76.9221,40.265" id="Fill-64" fill="#FFAF83"></path>
                                    <path d="M73.4817,57.8861 C73.3007,57.9471 72.2147,59.1531 72.2147,59.5761 C72.2147,59.9981 71.0687,62.7141 70.5857,62.8341 C70.1027,62.9551 67.3867,62.8951 67.2067,63.0761 C67.0247,63.2571 66.5427,64.2221 66.9047,64.8261 C67.2667,65.4291 67.9907,65.6711 68.7757,65.6711 C69.5597,65.6711 71.2497,65.4901 71.6717,65.4291 C72.0937,65.3691 74.3867,65.4291 74.3867,65.4291 C74.3867,65.4291 77.0427,65.3691 77.5257,65.4291 C78.0077,65.4901 78.9137,65.6101 78.9137,65.6101 C78.9137,65.6101 80.7847,65.9121 81.0257,65.4901 C81.2667,65.0671 81.5687,64.4641 81.3277,63.9211 C81.0857,63.3781 80.5427,63.7401 79.6977,63.1361 C78.8527,62.5321 77.7067,61.3861 77.4647,60.4811 C77.2237,59.5761 76.6207,58.7911 76.6207,58.1881 C76.6207,57.5841 75.4737,56.9211 75.1717,56.8601 C74.8707,56.8001 73.4817,57.8861 73.4817,57.8861" id="Fill-66" fill="#8A5210"></path>
                                    <path d="M77.8079,62.1454 L67.2039,63.0064 C67.2039,63.0064 62.6629,66.2574 62.4219,68.0684 L62.7239,68.6714 C63.3649,69.0664 64.0219,69.3974 64.6999,69.6444 C67.3949,70.6264 72.0619,71.3344 75.5619,70.8514 C79.0619,70.3684 85.0959,69.4834 87.8259,67.5764 L83.2399,62.7494 L77.8079,62.1454 Z" id="Fill-68" fill="#8A5210"></path>
                                    <path d="M73.1799,58.289 C73.1799,61.122 71.0159,63.419 68.3459,63.419 C65.6749,63.419 63.5109,61.122 63.5109,58.289 C63.5109,55.456 65.6749,53.159 68.3459,53.159 C71.0159,53.159 73.1799,55.456 73.1799,58.289" id="Fill-70" fill="#FFFFFF"></path>
                                    <path d="M85.6116,59.1337 C85.6116,61.9667 83.4476,64.2637 80.7766,64.2637 C78.1066,64.2637 75.9426,61.9667 75.9426,59.1337 C75.9426,56.3007 78.1066,54.0037 80.7766,54.0037 C83.4476,54.0037 85.6116,56.3007 85.6116,59.1337" id="Fill-72" fill="#FFFFFF"></path>
                                    <path d="M83.6809,68.4477 C83.6809,70.6797 79.6129,72.4897 74.5949,72.4897 C69.5769,72.4897 65.5099,70.6797 65.5099,68.4477 C65.5099,66.2157 69.5769,64.4057 74.5949,64.4057 C79.6129,64.4057 83.6809,66.2157 83.6809,68.4477" id="Fill-74" fill="#FFFFFF"></path>
                                    <path d="M69.801,52.6361 C70.374,52.3951 74.572,52.0251 75.865,52.0931 C77.585,52.1831 80.166,52.2501 80.814,52.9981 C81.206,53.4501 80.935,54.0841 80.211,54.2651 C79.487,54.4471 77.978,54.1151 77.344,55.8951 C76.978,56.9251 76.59,58.2781 75.926,58.5801 C75.222,58.9001 73.663,59.0731 72.999,58.0371 C72.335,57.0011 72.426,55.8951 71.974,54.9901 C71.521,54.0841 70.887,54.9291 69.53,54.3251 C68.933,54.0601 68.8,53.0571 69.801,52.6361" id="Fill-76" fill="#0C0706"></path>
                                    <path d="M69.7122,61.12 C69.2002,62.008 67.4982,61.984 65.9112,61.068 C64.3242,60.152 63.4532,58.689 63.9652,57.802 C64.4782,56.914 66.1802,56.938 67.7672,57.854 C69.3542,58.77 70.2252,60.232 69.7122,61.12" id="Fill-78" fill="#F4F4F4"></path>
                                    <path d="M66.6282,60.2231 C65.6732,61.5311 64.7572,62.8641 63.8802,64.2241 C63.7052,64.4951 64.1282,64.7621 64.3032,64.4921 C65.1802,63.1311 66.0962,61.7981 67.0502,60.4901 C67.2402,60.2301 66.8162,59.9641 66.6282,60.2231" id="Fill-80" fill="#494847"></path>
                                    <path d="M79.2366,62.0155 C79.7496,62.9035 81.4516,62.8795 83.0386,61.9635 C84.6256,61.0475 85.4966,59.5855 84.9836,58.6975 C84.4716,57.8095 82.7696,57.8335 81.1826,58.7495 C79.5956,59.6655 78.7246,61.1285 79.2366,62.0155" id="Fill-82" fill="#F4F4F4"></path>
                                    <path d="M83.053,59.789 C84.631,60.218 86.162,60.763 87.657,61.425 C87.951,61.556 88.098,61.077 87.807,60.948 C86.313,60.285 84.781,59.741 83.203,59.312 C82.893,59.227 82.742,59.705 83.053,59.789" id="Fill-84" fill="#494847"></path>
                                    <path d="M82.5559,60.4491 C83.7249,61.7511 85.0059,62.9321 86.3929,63.9991 C86.6489,64.1951 86.9129,63.7711 86.6599,63.5761 C85.3069,62.5351 84.0629,61.3781 82.9219,60.1081 C82.7059,59.8681 82.3409,60.2101 82.5559,60.4491" id="Fill-86" fill="#494847"></path>
                                    <path d="M81.6448,61.1464 C82.6888,62.8834 83.8118,64.5664 85.0098,66.2004 C85.2008,66.4604 85.5638,66.1164 85.3748,65.8594 C84.2028,64.2594 83.1068,62.6094 82.0838,60.9094 C81.9188,60.6344 81.4778,60.8694 81.6448,61.1464" id="Fill-88" fill="#494847"></path>
                                    <path d="M65.4114,58.2685 C63.8864,59.1095 62.3534,59.9355 60.8124,60.7455 C60.5274,60.8945 60.7644,61.3355 61.0494,61.1855 C62.5914,60.3755 64.1234,59.5495 65.6474,58.7085 C65.9304,58.5535 65.6934,58.1125 65.4114,58.2685" id="Fill-90" fill="#494847"></path>
                                    <path d="M65.259,59.5815 C64.174,60.8475 63.005,62.0305 61.752,63.1305 C61.509,63.3425 61.851,63.7075 62.093,63.4965 C63.346,62.3965 64.515,61.2135 65.6,59.9475 C65.808,59.7055 65.469,59.3375 65.259,59.5815" id="Fill-92" fill="#494847"></path>
                                    <path d="M93.6643,46.2348 C93.1613,47.7628 92.1013,49.1008 90.7273,49.9388 C90.3053,50.1968 89.8553,50.4078 89.4073,50.6188 C88.8343,50.8878 88.2623,51.1578 87.6883,51.4268 C87.4313,51.5478 87.1443,51.7008 87.0693,51.9758 C86.9683,52.3478 87.3223,52.6968 87.6853,52.8268 C88.7313,53.2018 89.8503,52.5538 90.7293,51.8758 C91.9883,50.9048 93.2063,49.7278 93.6243,48.1928 C93.7983,47.5518 93.8233,46.8818 93.8473,46.2178" id="Fill-94" fill="#8A5210"></path>
                                    <path d="M91.9036,53.3954 C90.5356,53.7914 89.2636,54.5224 88.2336,55.5064 C87.9716,55.7564 87.7066,56.1054 87.8326,56.4444 C88.8856,56.6864 90.0476,56.4014 90.8696,55.6994" id="Fill-96" fill="#8A5210"></path>
                                    <path d="M56.8118,47.1147 C56.7558,47.0447 56.6318,47.0817 56.5908,47.1607 C56.5488,47.2397 56.5648,47.3357 56.5828,47.4237 C56.7148,48.0657 56.9308,48.6897 57.2218,49.2767 C57.5018,49.8407 57.8568,50.3747 58.3238,50.7977 C59.1498,51.5447 60.2558,51.8847 61.3238,52.2037 C61.7208,52.3227 62.1838,52.4327 62.5258,52.1967 C62.9648,51.8927 62.8978,51.1767 62.5348,50.7837 C62.1718,50.3917 61.6278,50.2367 61.1168,50.0827 C59.8368,49.6997 58.5308,49.1917 57.6428,48.1927" id="Fill-98" fill="#8A5210"></path>
                                    <path d="M57.1575,53.809 C57.3445,54.36 57.5445,54.928 57.9395,55.355 C58.0925,55.519 58.2705,55.658 58.4475,55.796 C58.7575,56.037 59.0675,56.278 59.3775,56.519 C59.6135,56.703 59.8565,56.89 60.1415,56.98 C60.4275,57.07 60.7685,57.043 60.9845,56.835 C61.2895,56.542 61.2185,56.014 60.9615,55.678 C60.7045,55.342 60.3155,55.142 59.9605,54.912 C59.3065,54.487 58.7445,53.939 58.1185,53.475 C57.9905,53.38 57.8555,53.287 57.7015,53.25 C57.5465,53.213 57.3655,53.245 57.2625,53.367 C57.1795,53.465 57.1625,53.603 57.1595,53.732 C57.1505,54.07 57.2175,54.409 57.3505,54.719" id="Fill-100" fill="#8A5210"></path>
                                    <path d="M66.3616,58.1879 C66.3616,58.3549 66.2256,58.4899 66.0596,58.4899 C65.8926,58.4899 65.7576,58.3549 65.7576,58.1879 C65.7576,58.0209 65.8926,57.8859 66.0596,57.8859 C66.2256,57.8859 66.3616,58.0209 66.3616,58.1879" id="Fill-102" fill="#161C1C"></path>
                                    <path d="M67.0852,59.455 C67.0852,59.622 66.9502,59.757 66.7832,59.757 C66.6172,59.757 66.4812,59.622 66.4812,59.455 C66.4812,59.288 66.6172,59.153 66.7832,59.153 C66.9502,59.153 67.0852,59.288 67.0852,59.455" id="Fill-104" fill="#161C1C"></path>
                                    <path d="M68.1721,58.7914 C68.1721,58.9584 68.0361,59.0934 67.8701,59.0934 C67.7031,59.0934 67.5681,58.9584 67.5681,58.7914 C67.5681,58.6244 67.7031,58.4894 67.8701,58.4894 C68.0361,58.4894 68.1721,58.6244 68.1721,58.7914" id="Fill-106" fill="#161C1C"></path>
                                    <path d="M68.4133,60.9638 C68.4133,61.1308 68.2773,61.2658 68.1113,61.2658 C67.9443,61.2658 67.8093,61.1308 67.8093,60.9638 C67.8093,60.7968 67.9443,60.6618 68.1113,60.6618 C68.2773,60.6618 68.4133,60.7968 68.4133,60.9638" id="Fill-108" fill="#161C1C"></path>
                                    <path d="M82.6546,58.7914 C82.6546,58.9584 82.5196,59.0934 82.3526,59.0934 C82.1866,59.0934 82.0506,58.9584 82.0506,58.7914 C82.0506,58.6244 82.1866,58.4894 82.3526,58.4894 C82.5196,58.4894 82.6546,58.6244 82.6546,58.7914" id="Fill-110" fill="#161C1C"></path>
                                    <path d="M81.4475,59.5761 C81.4475,59.7431 81.3125,59.8771 81.1455,59.8771 C80.9795,59.8771 80.8435,59.7431 80.8435,59.5761 C80.8435,59.4091 80.9795,59.2741 81.1455,59.2741 C81.3125,59.2741 81.4475,59.4091 81.4475,59.5761" id="Fill-112" fill="#161C1C"></path>
                                    <path d="M81.3274,60.9638 C81.3274,61.1308 81.1914,61.2658 81.0254,61.2658 C80.8584,61.2658 80.7234,61.1308 80.7234,60.9638 C80.7234,60.7968 80.8584,60.6618 81.0254,60.6618 C81.1914,60.6618 81.3274,60.7968 81.3274,60.9638" id="Fill-114" fill="#161C1C"></path>
                                    <path d="M81.4475,62.2914 C81.4475,62.4584 81.3125,62.5934 81.1455,62.5934 C80.9795,62.5934 80.8435,62.4584 80.8435,62.2914 C80.8435,62.1244 80.9795,61.9894 81.1455,61.9894 C81.3125,61.9894 81.4475,62.1244 81.4475,62.2914" id="Fill-116" fill="#161C1C"></path>
                                    <polygon id="Fill-118" fill="#1C3040" points="56.8635 33.4784 62.8995 18.8164 86.7975 18.5754 93.6565 33.7214"></polygon>
                                    <path d="M48.6584,35.0224 C48.6584,33.2794 56.8194,33.2544 57.4594,33.1474 C59.0474,32.8824 97.1404,33.2464 96.2364,33.2134 C94.3844,33.1474 102.2594,33.6104 102.4784,34.8464 C102.7214,36.0594 97.1194,36.6984 95.5754,36.8534 C94.6744,36.9434 56.1794,36.9874 56.9524,36.9634 C58.3864,36.9194 48.6584,36.6544 48.6584,35.0224" id="Fill-120" fill="#1C3040"></path>
                                    <path d="M60.0159,37.9589 C60.0159,37.9589 71.4669,40.8339 72.7969,41.6159 C73.7019,42.1479 72.5039,44.7539 71.9989,45.4629 C70.8419,47.0909 66.6669,48.6949 63.8809,47.7169 C56.9419,45.2809 58.7979,40.5219 58.7979,40.5219 L60.0159,37.9589 Z" id="Fill-122" fill="#0C0706"></path>
                                    <path d="M90.0374,37.8026 C90.0374,37.8026 78.2714,40.9906 77.2564,41.4596 C76.3464,41.8806 77.3514,44.3946 78.0544,45.3066 C79.3664,47.0126 83.4624,48.4596 86.2484,47.4816 C93.1874,45.0466 91.2554,40.3656 91.2554,40.3656 L90.0374,37.8026 Z" id="Fill-124" fill="#0C0706"></path>
                                    <polygon id="Fill-126" fill="#0C0706" points="60.0491 38.058 56.8431 35.946 55.2001 36.298 59.2671 40.365"></polygon>
                                    <polygon id="Fill-128" fill="#0C0706" points="89.6507 38.058 93.5217 35.673 94.7737 35.985 90.7067 40.052"></polygon>
                                    <polygon id="Fill-130" fill="#0C0706" points="72.093 42.4604 78.194 42.3884 78.155 43.8914 72.132 43.9624"></polygon>
                                    <path d="M134.8254,120.2235 L15.2114,120.2235 C15.6314,120.7905 16.0604,121.3505 16.4964,121.9065 C16.5594,121.9845 16.6194,122.0645 16.6824,122.1425 C16.9114,122.4315 17.1464,122.7145 17.3794,122.9995 C31.1374,139.4965 51.8404,149.9995 75.0004,149.9995 C99.4334,149.9995 121.1324,138.3095 134.8254,120.2235" id="Fill-132" fill="#FF6C6C"></path>
                                    <path d="M17.594,123.2475 L131.912,123.8165 C133.377,122.1095 134.766,120.3365 136.075,118.5015 L13.924,118.5015 C15.088,120.1325 16.308,121.7175 17.594,123.2475" id="Fill-134" fill="#EA4B4B"></path>
                                    <path d="M25.9924,131.747 L123.7204,131.997 C124.7414,131.122 125.7374,130.221 126.7104,129.294 L23.2894,129.294 C24.1704,130.134 25.0714,130.951 25.9924,131.747" id="Fill-136" fill="#EA4B4B"></path>
                                </g>
                            </svg>
