<svg xmlns:xlink="http://www.w3.org/1999/xlink" width="172" height="161" viewBox="0 0 172 161" xmlns="http://www.w3.org/2000/svg"><g fill="none" fill-rule="evenodd"><path d="M172 88.5c0 40.04-32.46 72.5-72.5 72.5S27 128.54 27 88.5 59.46 16 99.5 16 172 48.46 172 88.5" fill="#36ACB8"></path><path d="M82.129 18.556h25.264a2.505 2.505 0 012.501 2.508v21.649a2.505 2.505 0 01-2.501 2.508h-30.85a2.505 2.505 0 01-2.502-2.508v-6.77H51.28v37.046l14.395 25.975h13.952a2.5 2.5 0 012.11 1.162l21.596 34.02a2.512 2.512 0 01-.767 3.462 2.498 2.498 0 01-3.454-.77L78.254 103.98H64.203a2.5 2.5 0 01-2.187-1.29L47.754 76.956l-9.452 4.738-5.797 11.622a2.501 2.501 0 01-2.238 1.387H19.473L7.825 118.057a2.499 2.499 0 01-3.357 1.122 2.51 2.51 0 01-1.119-3.365l12.34-24.74a2.501 2.501 0 012.238-1.387h10.794L34.2 78.703a2.505 2.505 0 011.119-1.122l10.957-5.492V2.508A2.505 2.505 0 0148.778 0a2.505 2.505 0 012.502 2.508v6.77h28.347a2.505 2.505 0 012.502 2.508v6.77zm0 5.016v9.863a2.505 2.505 0 01-2.502 2.508h-.582v4.262h25.846V23.572H82.129zm-5.535 7.355h.531V14.294H51.28v16.633h25.212a2.545 2.545 0 01.102 0zm26.649 87.49a2.498 2.498 0 01-3.497.543 2.512 2.512 0 01-.542-3.505L112.742 96.9a2.498 2.498 0 013.372-.63l9.991 6.44c.388.25.7.602.9 1.02l6.64 13.791h7.683a2.5 2.5 0 012.093 1.133l6.17 9.434a2.512 2.512 0 01-.721 3.473 2.498 2.498 0 01-3.464-.722l-5.429-8.302h-7.903c-.96 0-1.836-.55-2.254-1.418l-7.014-14.573-7.416-4.779-12.147 16.65zM27.182 34.018a2.505 2.505 0 012.502 2.508 2.505 2.505 0 01-2.502 2.508c-5.706 0-9.838 3.065-9.838 6.77 0 3.344-5.004 3.344-5.004 0 0-3.705-4.132-6.77-9.838-6.77A2.505 2.505 0 010 36.527a2.505 2.505 0 012.502-2.508c5.145 0 9.678 1.94 12.34 5.08 2.662-3.14 7.195-5.08 12.34-5.08zm86.381 34.02a2.505 2.505 0 012.502 2.507 2.505 2.505 0 01-2.502 2.508c-5.707 0-9.838 3.065-9.838 6.77 0 3.345-5.004 3.345-5.004 0 0-3.704-4.132-6.77-9.838-6.77a2.505 2.505 0 01-2.502-2.508 2.505 2.505 0 012.502-2.508c5.145 0 9.678 1.94 12.34 5.081 2.662-3.14 7.195-5.08 12.34-5.08z" fill="#010000" fill-rule="nonzero"></path></g></svg>