<svg xmlns:xlink="http://www.w3.org/1999/xlink" width="172" height="161" viewBox="0 0 172 161" xmlns="http://www.w3.org/2000/svg"><g fill="none" fill-rule="evenodd"><path d="M171.453 87.75c0 40.155-32.552 72.707-72.707 72.707-40.155 0-72.707-32.552-72.707-72.707 0-40.155 32.552-72.707 72.707-72.707 40.155 0 72.707 32.552 72.707 72.707" fill="#00C8AB"></path><path d="M104.506 138.085l-2.148-12.062 14.097-7.46 11.501 11.001-1.385 2.822 6.663 1.58 1.836-6.974 5.543-8.315-8.156-11.606-1.946 3.963-22.813-3.146-4.013-22.547 8.498-4.497-15.002-17.841-20.648 23.65 6.374 11.222-12.298 13.557-8.874-4.05-14.687 17.18 12.121 9.698 12.973-9.728 10.538 14.049 10.833 5.417 10.993-5.913zm3.245 3.932l-14.154 7.613-14.209-7.105-8.246-10.993-12.072 9.052-19.18-15.344 17.113-20.018-3.07-1.402 1.983-18.24 17.92-3.674.08.14L97.252 55.32l19.452 23.133 7.324-3.875 16.592 15.87-5.65 11.505 11.702 16.65-6.98 10.47-2.865 10.884-12.516-2.967-3.363 6.85-13.197-1.822zm12.933-8.986l.038-.077 1.132-2.307-6.249-5.977-7.685 4.066 1.507 8.465 8.625 1.19 2.632-5.36zm-3.46-49.198l-7.977 4.222 2.736 15.377 15.632 2.155 6.903-14.057-11.34-10.847-5.889 3.116a2.485 2.485 0 01-.064.034zM62.054 102.03l.086.04 7.222 3.296 7.41-8.17-5.443-9.583a2.48 2.48 0 01-.039-.068l-.006-.011-10.79 2.212-1.199 11.025 2.759 1.26zm3.93-44.33c1.248-8.006-2.646-17.356-10.393-21.714-9.866-5.552-31.257-3.247-49.983 2.717 1.818 8.944 7.197 19.566 14.623 26.684 10.444 10.009 24.033 12.97 40.845 6.664a2.5 2.5 0 011.756 4.682c-18.635 6.988-34.245 3.587-46.06-7.736C7.92 60.515 1.802 47.743.299 37.358L0 35.295l1.976-.665c20.503-6.894 44.155-9.704 56.066-3.002 10.523 5.92 15.272 18.982 12.293 29.54a74.035 74.035 0 015.89 5.621 2.5 2.5 0 11-3.649 3.419C65.4 62.548 56.133 56.368 46.35 52.2c-8.068-3.436-15.794-5.11-19.474-4.553a2.5 2.5 0 11-.749-4.943c4.782-.724 13.338 1.13 22.182 4.896 6.201 2.64 12.207 6.043 17.674 10.099zM49.073 21.942a2.5 2.5 0 11-4.952-.69c1.2-8.603 4.793-15.57 10.222-20.32L55.41 0l1.347.434c9.856 3.176 18.926 11.04 24.322 21.509 6.1 11.835 7.191 26.068 2.334 41.117a2.5 2.5 0 11-4.759-1.536c4.452-13.792 3.467-26.647-2.02-37.29C72.093 15.42 64.65 8.707 56.592 5.67c-3.921 3.904-6.56 9.42-7.517 16.271z" fill="#010000" fill-rule="nonzero"></path></g></svg>