<svg xmlns:xlink="http://www.w3.org/1999/xlink" width="172" height="161" viewBox="0 0 172 161" xmlns="http://www.w3.org/2000/svg"><g fill="none" fill-rule="evenodd"><path d="M171.78 87.937c0 40.155-32.551 72.707-72.706 72.707s-72.707-32.552-72.707-72.707c0-40.155 32.552-72.707 72.707-72.707 40.155 0 72.707 32.552 72.707 72.707" fill="#FFC20C"></path><path d="M60.084 102.925a2.72 2.72 0 01-.552 1.049 66.36 66.36 0 00-3.21 7.239 2.748 2.748 0 01-3.531 1.615 2.74 2.74 0 01-1.618-3.524 71.516 71.516 0 012.964-6.832c-5.404-7.413-5.767-18.86.419-26.812l.07-.086c5.065-5.992 12.945-10.13 22.958-12.847 7.113-1.93 14.375-2.957 22.58-3.56l2.279-.167.572 2.21c2.144 8.275.812 19.586-4.226 28.566-6.461 11.518-18.187 18.569-34.974 19.222a2.737 2.737 0 11-.213-5.47c14.9-.579 24.89-6.586 30.412-16.43 3.888-6.93 5.223-15.573 4.163-22.281-18.063 1.566-32.008 5.623-39.333 14.247-3.993 5.17-4.285 12.449-1.666 17.87C64.65 84.55 75.13 74.99 83.648 73.067a2.74 2.74 0 111.212 5.347c-7.555 1.705-17.95 11.797-24.776 24.51zm-36.86 40.532c-.158-.466-.444-.863-.934-1.353-.995-.994-3.374-3.713-10.247-11.652-6.649-7.679-9.147-10.536-10.002-11.39-1.615-1.614-2.143-6.2-2.457-14.907-.193-5.34-.205-12.08-.085-14.192.005-.091.16-3.359.244-4.839.157-2.793.347-5.39.592-7.85.52-5.217 1.218-9.177 2.214-11.661l.534-1.333 1.421-.21c3.893-.575 8.719 2.046 11.55 6.59 2.685 4.31 2.682 8.734.5 15.819l2.957 9.345c2.41.125 4.914 1.24 7.063 3.39.409.408.755.765 1.136 1.169l.081.086a130.519 130.519 0 01.83.888c.369.394.69.734 1.061 1.123.994 1.04 2.227 2.298 3.906 3.978.153.153.358.245 1.09.45 2.274.636 3.382 1.144 4.898 2.66.273.273.855.847 1.922 1.895a11385.852 11385.852 0 003.135 3.081l.035.035a754.651 754.651 0 014.099 4.052c2.75 2.749 4.358 8.077 4.358 12.643v12.183h5.127v15.316a2.5 2.5 0 11-5 0v-10.316H22.366v10.316a2.5 2.5 0 11-5 0v-15.316h5.858zm5.1 0h19.8v-12.183c0-3.363-1.232-7.448-2.893-9.107-.88-.881-2.21-2.196-4.069-4.024l-.035-.034a3937.88 3937.88 0 00-3.134-3.08 417 417 0 01-1.952-1.925c-.756-.755-1.198-.958-2.71-1.381-1.501-.42-2.353-.805-3.278-1.73a251.742 251.742 0 01-3.986-4.059 140.112 140.112 0 01-1.528-1.623l-.388-.415-.076-.08a49.55 49.55 0 00-1.036-1.067c-1.115-1.115-2.263-1.724-3.326-1.895a2.489 2.489 0 01-1.032.634 2.49 2.49 0 01-1.615-.037 3.726 3.726 0 00-.46.392c-1.546 1.546-1.465 4.062.906 6.433.734.734 2.819 2.855 5.849 5.947l.02.02a8141.171 8141.171 0 015.565 5.686l.523.535a2.5 2.5 0 01-3.575 3.495l-.522-.534a9120.428 9120.428 0 00-5.562-5.682l-.02-.02a1256.403 1256.403 0 00-5.813-5.91c-4.275-4.275-4.458-9.954-.906-13.505a8.71 8.71 0 011.584-1.257l-3.347-10.575.244-.76c2.015-6.273 2.086-9.479.258-12.413-1.405-2.255-3.46-3.722-5.149-4.17-.534 2.052-.99 5.014-1.35 8.636-.237 2.38-.422 4.909-.576 7.636-.082 1.45-.237 4.721-.244 4.843-.11 1.932-.098 8.529.09 13.727.12 3.331.304 6.192.553 8.354.134 1.16.284 2.093.443 2.761.063.266.124.475.177.617 1.09 1.127 3.553 3.947 10.068 11.471 6.625 7.652 9.146 10.534 10.003 11.39 1.61 1.61 2.295 3.076 2.5 4.888zM117.658 17.73c.158.465.445.861.935 1.352.994.993 3.366 3.705 10.247 11.652 6.642 7.67 9.147 10.535 10.002 11.39 1.614 1.614 2.143 6.202 2.457 14.907.192 5.342.204 12.084.084 14.192-.005.076-.16 3.351-.244 4.838-.157 2.793-.347 5.39-.592 7.85-.52 5.218-1.218 9.178-2.214 11.662l-.535 1.333-1.42.21c-3.893.574-8.72-2.046-11.549-6.589-2.686-4.31-2.683-8.734-.5-15.82l-2.958-9.345c-2.41-.126-4.914-1.24-7.064-3.39a54.623 54.623 0 01-1.135-1.17l-.08-.085a131.737 131.737 0 01-.83-.888c-.368-.393-.69-.733-1.061-1.123a246.686 246.686 0 00-3.907-3.978c-.152-.153-.357-.245-1.089-.45-2.274-.636-3.382-1.144-4.899-2.66-.273-.274-.855-.848-1.921-1.895a11230.266 11230.266 0 00-3.136-3.081l-.035-.035a748.93 748.93 0 01-4.1-4.053c-2.748-2.748-4.356-8.076-4.356-12.642V17.73h-5.127V2.414a2.5 2.5 0 115 0V12.73h30.886V2.414a2.5 2.5 0 115 0V17.73h-5.859zm-5.1 0h-19.8v12.182c0 3.362 1.233 7.448 2.892 9.107.881.881 2.212 2.196 4.07 4.023l.035.035a3905.203 3905.203 0 003.134 3.08 413.71 413.71 0 011.953 1.925c.756.755 1.198.958 2.71 1.381 1.501.42 2.353.805 3.278 1.73a251.436 251.436 0 013.986 4.06c.386.403.72.757 1.098 1.162a501.554 501.554 0 00.894.956c.35.37.663.693 1.035 1.066 1.115 1.115 2.262 1.723 3.325 1.895a2.489 2.489 0 011.032-.634 2.49 2.49 0 011.617.036c.161-.116.314-.246.46-.391 1.546-1.546 1.465-4.062-.906-6.433-.734-.734-2.819-2.855-5.849-5.947l-.02-.02a8135.331 8135.331 0 01-5.566-5.686l-.522-.535a2.5 2.5 0 113.575-3.495l.522.534a9132.133 9132.133 0 005.562 5.682l.02.02c3.012 3.075 5.096 5.195 5.813 5.91 4.275 4.275 4.458 9.954.906 13.505a8.71 8.71 0 01-1.585 1.258l3.348 10.574-.244.76c-2.015 6.275-2.087 9.48-.258 12.413 1.404 2.255 3.458 3.721 5.148 4.169.534-2.052.99-5.013 1.35-8.636.238-2.38.423-4.91.576-7.635.082-1.457.238-4.736.244-4.844.11-1.928.099-8.526-.089-13.726-.12-3.331-.304-6.192-.554-8.355-.133-1.159-.283-2.093-.442-2.761a5.533 5.533 0 00-.178-.617c-1.09-1.127-3.559-3.953-10.067-11.47-6.632-7.66-9.147-10.535-10.003-11.39-1.61-1.61-2.296-3.077-2.5-4.888zm-19.737-7.69a2.5 2.5 0 110-5h5.126a2.5 2.5 0 110 5H92.82zM48.06 151.146a2.5 2.5 0 110 5h-5.126a2.5 2.5 0 110-5h5.127z" fill="#010000" fill-rule="nonzero"></path></g></svg>