<svg xmlns:xlink="http://www.w3.org/1999/xlink" width="172" height="161" viewBox="0 0 172 161" xmlns="http://www.w3.org/2000/svg"><g fill="none" fill-rule="evenodd"><path d="M171.821 87.684c0 40.155-32.553 72.707-72.707 72.707-40.155 0-72.707-32.552-72.707-72.707 0-40.155 32.552-72.707 72.707-72.707 40.154 0 72.707 32.552 72.707 72.707" fill="#F06868"></path><path d="M73.12 120.013c.093-15.948-.592-27.708-2.675-40.073-2.62-15.558-7.442-30.925-15.207-47.41-.58-1.229-.065-2.702 1.15-3.289a2.422 2.422 0 013.246 1.164c6.73 14.287 11.315 27.793 14.2 41.303 8.133-5.741 12.857-17.146 11.243-27.097-.9-5.553-3.518-10.311-7.912-14.911-3.43-3.59-6.771-6.196-14.669-11.787l-.076-.055C54.926 12.553 51.044 9.574 47.69 6.152c-8.64 10.616-13.368 23.143-12.402 34.41 1.187 13.833 10.664 25.247 29.293 32.693a2.458 2.458 0 011.369 3.193 2.45 2.45 0 01-3.187 1.371c-20.263-8.1-31.006-21.038-32.361-36.836-1.157-13.48 4.794-28.188 15.37-40.155a2.45 2.45 0 013.673.002c3.559 4.033 7.17 6.902 15.804 13.015l.077.055c8.16 5.777 11.658 8.505 15.381 12.402 5.038 5.275 8.138 10.908 9.21 17.52 2.025 12.488-4.25 26.667-15.06 33.07.135.739.265 1.478.39 2.218 2.196 13.041 2.875 25.375 2.734 42.27a901.077 901.077 0 01-.118 8.685c.05.163.098.326.145.49.185.637.1 1.288-.186 1.832l-.006.368c-.136 7.745-.183 11.328-.183 15.777 0 1.363-1.09 2.468-2.436 2.468-1.345 0-2.435-1.105-2.435-2.468 0-4.487.047-8.091.183-15.865l.032-1.784c-2.162-6.599-6.432-12.398-12.089-17.242a2.456 2.456 0 01-2.871-2.29c-6.485-4.822-14.41-8.53-22.904-10.937a2.458 2.458 0 011.335-4.729c8.364 2.37 16.234 5.921 22.9 10.547.52-6.035-2.934-14.208-8.974-18.592-8.197-5.948-29.662-8.157-44.995-6.513 2.177 9.647 7.3 21.1 13.98 28.673 9.752 11.059 21.873 13.663 36.955 5.208a2.45 2.45 0 013.338.945 2.46 2.46 0 01-.943 3.344c-17.177 9.628-31.8 6.486-43.026-6.243-7.937-9-13.714-22.676-15.646-33.609a2.456 2.456 0 012.067-2.86c16.557-2.374 41.168-.166 51.147 7.075 8.328 6.045 12.673 17.702 10.469 25.91 3.69 3.101 6.875 6.59 9.4 10.443zM141 47.259a2.455 2.455 0 01-2.451-2.456A2.455 2.455 0 01141 42.346h10.547c1.354 0 2.452 1.1 2.452 2.457a2.455 2.455 0 01-2.452 2.456H141zm0 15.85a2.455 2.455 0 01-2.451-2.457A2.455 2.455 0 01141 58.195h10.547c1.354 0 2.452 1.1 2.452 2.457a2.455 2.455 0 01-2.452 2.457H141zm0 15.85a2.455 2.455 0 01-2.451-2.457A2.455 2.455 0 01141 74.045h10.547c1.354 0 2.452 1.1 2.452 2.457a2.455 2.455 0 01-2.452 2.457H141zm0 15.85a2.455 2.455 0 01-2.451-2.457A2.455 2.455 0 01141 89.895h10.547c1.354 0 2.452 1.1 2.452 2.457a2.455 2.455 0 01-2.452 2.456H141zm-23.544-44.724a2.455 2.455 0 012.452-2.457c1.355 0 2.453 1.1 2.453 2.457v76.608a2.455 2.455 0 01-2.453 2.457 2.455 2.455 0 01-2.452-2.457V50.085zm-5.642 58.803c0 .803-.392 1.555-1.049 2.015a16.006 16.006 0 00-6.861 13.148c0 8.856 7.165 16.035 16.004 16.035 8.84 0 16.004-7.18 16.004-16.035 0-5.648-2.369-10.299-6.768-13.086a2.458 2.458 0 01-1.141-2.077V42.161c0-4.478-3.625-8.11-8.095-8.11-4.47 0-8.094 3.631-8.094 8.11v66.727zm-4.905-66.727c0-7.193 5.82-13.023 13-13.023 7.178 0 12.998 5.83 12.998 13.023v65.43c5.142 3.781 7.91 9.669 7.91 16.46 0 11.57-9.361 20.949-20.909 20.949C108.361 145 99 135.62 99 124.051a20.911 20.911 0 017.91-16.395V42.161z" fill="#010000" fill-rule="nonzero"></path></g></svg>