<svg xmlns:xlink="http://www.w3.org/1999/xlink" width="172" height="161" viewBox="0 0 172 161" xmlns="http://www.w3.org/2000/svg"><g fill="none" fill-rule="evenodd"><path d="M171.781 87.937c0 40.155-32.553 72.707-72.708 72.707-40.154 0-72.707-32.552-72.707-72.707 0-40.155 32.553-72.707 72.707-72.707 40.155 0 72.708 32.552 72.708 72.707" fill="#9AE6E8"></path><path d="M93.641 116.553c16.942-7.766 35.333-8.799 52.793-2.73a2.5 2.5 0 11-1.641 4.723c-15.328-5.328-31.398-4.77-46.436 1.408a116.62 116.62 0 0110.544 9.098c12.497-3.146 25.427-2.219 37.662 2.85a2.5 2.5 0 11-1.914 4.62c-10.291-4.264-21.08-5.336-31.625-3.27a133.52 133.52 0 019.041 10.746 2.5 2.5 0 11-3.987 3.017 127.177 127.177 0 00-10.841-12.573 2.5 2.5 0 01-2.045-2.024c-29.33-28.338-67.412-35.476-101.6-18.914a2.5 2.5 0 11-2.18-4.5c24.888-12.057 51.746-12.217 76.115-1.44 21.213-13.882 45.567-17.824 68.801-10.82a2.5 2.5 0 11-1.443 4.787c-20.853-6.286-42.66-3.171-62.03 8.584a103.396 103.396 0 0110.786 6.438zm3.523-61.074c1.602 1.429.778 4.079-1.351 4.347a141.84 141.84 0 00-1.962.269c-1.478.213-2.955.447-4.327.695-1.807.327-3.288.652-4.293.953-3.957 1.187-7.395 4.907-6.44 7.923l.237.745c.656 2.071-1.461 3.936-3.433 3.024-3.657-1.692-7.902.666-8.402 4.704l-1.705 12.166c-.305 2.181-3.078 2.93-4.44 1.199l-8.693-11.05a2.5 2.5 0 01-.147-.208c-2.097-3.31-6.767-3.72-9.409-.829l-.688.753c-1.466 1.604-4.14.703-4.335-1.461-.388-4.29-4.67-7.1-8.701-5.767l-9.937 3.556c-2.085.746-4.04-1.388-3.114-3.4a219.404 219.404 0 00.78-1.708c.585-1.292 1.17-2.6 1.715-3.84l.186-.425c.842-1.926 1.49-3.472 1.866-4.472 1.57-4.173-.556-8.514-4.605-9.406l-.764-.168c-2.123-.466-2.68-3.233-.904-4.485 3.522-2.481 3.814-7.594.6-10.46L7.071 31.16c-1.622-1.446-.754-4.13 1.407-4.353l11.275-1.161c4.216-.434 6.97-4.63 5.69-8.67l-.236-.745a2.5 2.5 0 013.434-3.026c3.907 1.809 8.482-.495 9.37-4.776l1.528-6.5c.456-1.94 2.887-2.592 4.253-1.141l5.498 5.838c3.301 3.533 9.349 3.657 12.306.42l.527-.576c1.465-1.605 4.14-.704 4.335 1.46.36 3.982 4.509 6.443 8.176 4.852l16.835-7.31c2.243-.973 4.405 1.52 3.126 3.603l-9.437 15.358c-2.191 3.566-.212 8.227 3.875 9.127 2.123.468 2.679 3.234.902 4.485-3.52 2.481-3.813 7.594-.598 10.46l7.826 6.974zM86.01 52.237c-4.56-4.064-5.082-10.714-1.83-15.393-4.758-3.173-6.521-9.757-3.283-15.028l5.282-8.596-9.554 4.148c-5.398 2.343-11.36-.055-13.916-4.84-5.191 3.139-12.627 2.27-17.066-2.481l-2.302-2.445-.449 1.906c-1.218 5.88-6.555 9.633-12.132 9.302.1 5.873-4.293 11.171-10.495 11.81l-5.634.58 3.592 3.201c4.485 3.998 5.064 10.497 1.987 15.163 4.982 2.79 7.227 9.034 5.04 14.849-.415 1.104-1.09 2.714-1.965 4.715-.094.217-.094.217-.19.433l-.109.249 4.46-1.596c5.69-1.88 11.594.849 14.106 5.823 4.886-2.942 11.505-1.654 14.805 3.419l4.993 6.346.885-6.317c.73-5.9 5.897-9.86 11.385-9.596.336-5.049 4.995-9.382 10.173-10.935 1.224-.367 2.864-.727 4.841-1.084.398-.072.804-.143 1.214-.212l-3.838-3.421zm-58.42-34.263v-2.5 2.5zm40.855 24.985c0-8.93-7.238-16.167-16.167-16.167-8.93 0-16.167 7.238-16.167 16.167 0 8.929 7.238 16.167 16.167 16.167 8.929 0 16.167-7.238 16.167-16.167zm5 0c0 11.69-9.477 21.167-21.167 21.167-11.69 0-21.167-9.477-21.167-21.167 0-11.69 9.476-21.167 21.167-21.167 11.69 0 21.167 9.476 21.167 21.167zM3.839 147.485a2.5 2.5 0 01-2.676-4.223c24.667-15.634 54.367-15.553 79.124.146a2.5 2.5 0 11-2.678 4.223c-23.126-14.666-50.741-14.741-73.77-.146zm-.128-17.547a2.5 2.5 0 11-2.42-4.375c33.858-18.734 71.323-12.114 100.713 18.207a2.5 2.5 0 01-3.59 3.48c-27.856-28.738-62.87-34.925-94.703-17.312z" fill="#010000" fill-rule="nonzero"></path></g></svg>