<svg xmlns="http://www.w3.org/2000/svg" xmlns:xlink="http://www.w3.org/1999/xlink" viewBox="0 0 230.23 193.39" width="363"  height="305" ><defs><style>.cls-1,.cls-2,.cls-6{fill:none;}.cls-1{clip-rule:evenodd;}.cls-3{clip-path:url(#clip-path);}.cls-4{clip-path:url(#clip-path-2);}.cls-5{fill:#d3da31;}.cls-6{stroke:#000;stroke-linecap:round;stroke-miterlimit:10;stroke-width:4px;}</style><clipPath id="clip-path"><path class="cls-1" d="M206.17,96.7a91.06,91.06,0,1,1-91-91.06,91.06,91.06,0,0,1,91,91.06"></path></clipPath><clipPath id="clip-path-2"><rect class="cls-2" x="-38.42" y="-3.5" width="300.97" height="208.01"></rect></clipPath></defs><title>Artboard 2</title><g id="Layer_5" data-name="Layer 5"><g class="cls-3"><g class="cls-4"><rect class="cls-5" x="20.25" y="1.83" width="189.73" height="189.73" fill="#D3DA31"></rect></g></g><path d="M116.61,159.63v-20a.5.5,0,0,0-.47-.5,35.17,35.17,0,0,1-32.88-35c0-17.42,12.39-34.25,23.32-49.11,3.81-5.17,7.4-10,10.3-14.68l1.49-2.39,1.49,2.39c2.91,4.64,6.49,9.52,10.29,14.68,10.94,14.86,23.33,31.7,23.33,49.11a35.17,35.17,0,0,1-32.88,35,.5.5,0,0,0-.47.5v20Zm3.72-51.69a.51.51,0,0,0-.2.4v26.71a.52.52,0,0,0,.16.37.53.53,0,0,0,.34.13h0A31.69,31.69,0,0,0,150,104.05c0-16.26-12-32.6-22.64-47-3.07-4.16-6-8.1-8.53-12a.51.51,0,0,0-.84,0c-2.55,3.83-5.44,7.75-8.5,11.91-10.64,14.45-22.67,30.8-22.67,47.06a31.69,31.69,0,0,0,29.29,31.5h0a.55.55,0,0,0,.34-.13.52.52,0,0,0,.16-.37V122.18a.51.51,0,0,0-.26-.44l-16.28-9.13,1.72-3.08,14.07,7.9a.54.54,0,0,0,.25.06.47.47,0,0,0,.25-.07.5.5,0,0,0,.25-.43V96a.49.49,0,0,0-.24-.42l-14.09-8.66,1.84-3,11.72,7.21a.54.54,0,0,0,.27.07.53.53,0,0,0,.24-.06.51.51,0,0,0,.26-.44V73.92a2.21,2.21,0,0,1,.52-1.43,1.55,1.55,0,0,1,1.17-.43,1.85,1.85,0,0,1,1.83,1.88v28.75a.5.5,0,0,0,.28.45.42.42,0,0,0,.22,0,.47.47,0,0,0,.3-.1l13-9.68L136,96.24Z"></path><path d="M118.37,38.81l1.07,1.71c2.92,4.67,6.51,9.55,10.31,14.72C140.64,70,153,86.8,153,104.05a34.67,34.67,0,0,1-32.41,34.54,1,1,0,0,0-.94,1v19.54h-2.52V139.59a1,1,0,0,0-.94-1,34.66,34.66,0,0,1-32.41-34.54C83.76,86.8,96.1,70,107,55.23c3.8-5.17,7.4-10,10.31-14.71l1.07-1.71m-2.26,97.24a1,1,0,0,0,.68-.27,1,1,0,0,0,.32-.73V122.18a1,1,0,0,0-.51-.87l-15.85-8.89,1.23-2.21,13.64,7.65a1,1,0,0,0,.49.13,1,1,0,0,0,1-1V96a1,1,0,0,0-.48-.85L103,86.71l1.33-2.15,11.29,7a1.1,1.1,0,0,0,.53.14,1,1,0,0,0,.48-.12,1,1,0,0,0,.52-.88V73.91a2,2,0,0,1,.18-.79,1,1,0,0,1,1-.56,1.33,1.33,0,0,1,1.33,1.36v28.77a1,1,0,0,0,.55.9,1.05,1.05,0,0,0,1-.09l12.56-9.39,1.51,2L120,107.54a1,1,0,0,0-.4.8v26.71a1,1,0,0,0,.32.73,1,1,0,0,0,.68.27h.07a32.2,32.2,0,0,0,29.76-32c0-16.42-12.08-32.84-22.74-47.32-3.07-4.16-6-8.09-8.52-11.93a1,1,0,0,0-1.66,0c-2.55,3.82-5.43,7.74-8.52,11.93C98.36,71.21,86.28,87.62,86.28,104.05a32.2,32.2,0,0,0,29.75,32h.08m2.26-99.13L116.45,40c-2.89,4.63-6.47,9.5-10.27,14.65-11,14.92-23.42,31.83-23.42,49.41a35.66,35.66,0,0,0,33.35,35.54v20.54h4.52V139.59A35.66,35.66,0,0,0,154,104.05c0-17.58-12.44-34.49-23.42-49.41-3.8-5.15-7.38-10-10.27-14.65l-1.92-3.07Zm-2.26,98.13a31.13,31.13,0,0,1-28.83-31c0-16.1,12-32.37,22.55-46.73,3-4.15,6-8.12,8.54-12,2.57,3.84,5.49,7.81,8.54,12,10.57,14.36,22.55,30.63,22.55,46.73a31.13,31.13,0,0,1-28.83,31V108.34l16.07-12L134,92.71l-13.36,10V73.92a2.38,2.38,0,0,0-2.33-2.36c-2.24,0-2.19,2.36-2.19,2.36V90.65L104,83.19,101.59,87,116.11,96v21l-14.51-8.14-2.21,4,16.72,9.38v12.87Z"></path><line class="cls-6" x1="8.35" y1="159.11" x2="221.89" y2="159.11" stroke="#000000" fill="none" stroke-width="4px"></line><path d="M221.87,112.69C221,88.25,198.58,76.44,197.63,76l-.86-.44-.85.44c-1,.49-23.4,12.3-24.24,36.74-.74,21.59,18.35,32.84,23.23,35.36v9.09h3.73v-9.09C203.51,145.53,222.6,134.28,221.87,112.69Zm-46.45.13a34.21,34.21,0,0,1,.43-4.38l19.06,15.11V131l-19.42-14.78A31.77,31.77,0,0,1,175.42,112.82Zm23.22,4.29,17.85-13.71a35.1,35.1,0,0,1,1.39,6.28l-19.24,14.48Zm0-4.71V106l14-10.9a38.85,38.85,0,0,1,2.48,4.66Zm0-31.46a50.21,50.21,0,0,1,4.79,3.62l-4.79,3.88Zm-3.73,25.76L180.66,95.55a41.54,41.54,0,0,1,3.11-4.44l11.14,8.82Zm0,4.74v7.34l-18.16-14.39a37.23,37.23,0,0,1,2.11-5.51Zm3.73,17.39,19.5-14.67a29.68,29.68,0,0,1-1.23,8.21l-18.27,14ZM210.5,92l-11.86,9.24v-8l7.57-6.13A46.81,46.81,0,0,1,210.5,92ZM194.91,80.94V95.16l-8.68-6.87A50.39,50.39,0,0,1,194.91,80.94Zm-18.5,40.68,18.5,14.07v8.11C190,141,179.67,133.76,176.41,121.62Zm22.23,22.17v-2.65l15.06-11.59C209.18,137,202.35,141.65,198.64,143.79Z"></path><path d="M69.09,115.89A30.37,30.37,0,1,0,36.85,146.2v10.92h3.74V146.2A30.4,30.4,0,0,0,69.09,115.89Zm-4.84-7.58L40.59,132v-15.8l18-18A26.63,26.63,0,0,1,64.25,108.31Zm-27.4,2.57L21.53,95.57a26.44,26.44,0,0,1,15.32-6.24Zm3.74-21.55a26.47,26.47,0,0,1,15.32,6.24L40.59,110.88ZM18.85,98.17l18,18V132L13.19,108.31A26.75,26.75,0,0,1,18.85,98.17Zm-6.77,17.72a28.19,28.19,0,0,1,.2-3.2l24.57,24.57v5.2A26.68,26.68,0,0,1,12.08,115.89Zm28.51,26.57v-5.2l24.57-24.57a28.19,28.19,0,0,1,.2,3.2A26.68,26.68,0,0,1,40.59,142.46Z"></path><path d="M101.89,87.19a2.26,2.26,0,0,1,2.36-3.84"></path><path d="M99.39,112.8a2.27,2.27,0,0,1,2.22-3.94"></path><path d="M134,92.73a2.27,2.27,0,0,1,2.71,3.62"></path></g></svg>