<svg xmlns:xlink="http://www.w3.org/1999/xlink" width="172" height="161" viewBox="0 0 172 161" xmlns="http://www.w3.org/2000/svg"><g fill="none" fill-rule="evenodd"><path d="M171.505 87.955c0 40.155-32.552 72.707-72.707 72.707-40.155 0-72.707-32.552-72.707-72.707 0-40.155 32.552-72.707 72.707-72.707 40.155 0 72.707 32.552 72.707 72.707" fill="#FF7950"></path><path d="M45.467 20.595c.84 0 1.464.687 1.5 1.5.036.81-.715 1.5-1.5 1.5h-5.023c-.841 0-1.464-.687-1.5-1.5-.037-.81.715-1.5 1.5-1.5h5.023zm73.384 116.866a324.846 324.846 0 01-14.763-23.803 955.274 955.274 0 00-4.887 22.942c.094.898.193 1.796.274 2.695.007.083-.005.162-.01.242h21.282a1.939 1.939 0 01-1.019-.778c-.193-.281-.38-.568-.574-.85a2.204 2.204 0 01-.303-.448zm-25.706-31.613a170.877 170.877 0 014.41 18.949 956.462 956.462 0 013.286-14.962c.103-.45.313-.78.582-1.013a325.708 325.708 0 01-4.924-9.478c-.483-.971-.392-2.127.598-2.765.837-.54 2.283-.37 2.765.598a325.1 325.1 0 0017.997 31.555c-.356-3.86-.71-7.72-1.068-11.58-.286-3.108-.53-6.224-.878-9.328-.31-2.758-.792-5.617-1.963-8.156-1.982-4.296-5.646-7.527-9.33-10.36a97.222 97.222 0 00-12.923-8.371c-4.518-2.447-9.209-4.39-13.992-6.246-4.478-1.737-8.93-3.695-12.41-7.107-1.826-1.791-3.283-3.831-4.47-6.023a2.128 2.128 0 01-.549 1.018 2.064 2.064 0 01-1.414.586h-3.349c-.542 0-1.023-.226-1.414-.586-.393-.36-.563-.897-.586-1.414-.022-.498.238-1.067.586-1.414a2.06 2.06 0 011.414-.586h3.35c.32 0 .616.087.89.227-2.139-4.793-3.187-10.151-3.927-15.274-1.35-9.35-2.115-19.01-6.364-27.576a2.488 2.488 0 01-1.246.485c-5.025.543-9.942 1.83-14.755 3.34a247.36 247.36 0 00-6.338 2.1c-1.834.632-3.77 1.164-5.44 2.176-1.242.752-2.587 2.12-2.363 3.718.04.287.146.533.295.775.071-.005.19 0 .262-.024 1.02-.353 2.31-.401 3.375-.487 7.665-.621 16.617 2.723 23.486-2.034 2.123-1.471 4.121 1.998 2.018 3.453-.519.36-1.055.679-1.604.964.57.295.994.854 1.002 1.685a832.53 832.53 0 006.438 95.923c1.537-8.216 3.882-16.257 7.075-24.01.413-1.002 1.312-1.712 2.46-1.397.164.046.323.127.476.223a128.296 128.296 0 0126.074-.19c1.001.096 1.856.737 1.976 1.759.212.216.387.49.492.847zm-37.427 33.689h39.798c-.016-.08-.034-.16-.04-.242-.02-.213-.047-.426-.066-.64-.33-.422-.502-.978-.37-1.637.042-.22.09-.44.134-.661a167.825 167.825 0 00-5.823-29.223 128.409 128.409 0 00-24.509.274c-3.818 9.685-6.428 19.844-7.608 30.19-.105.922-.629 1.722-1.516 1.939zm.262-123.832a20.668 20.668 0 00-2.476.049c.214.465.428.93.623 1.398 1.733-.307 3.463-.628 5.19-.97a19.691 19.691 0 00-1.754-.344l-.044-.006a20.956 20.956 0 00-1.539-.127zm82.634 108.63c2.466.734 1.41 4.593-1.064 3.858-6.83-2.03-9.659-8.967-11.428-15.223-1.296-4.58-3.158-11.503-8.022-13.524a21.926 21.926 0 011.016 3.26c1.195 5.353 1.357 10.989 1.86 16.436a92802 92802 0 011.527 16.58c.198.289.39.582.588.87.895 1.3-.015 2.604-1.19 2.945h11.193c2.578 0 2.573 4 0 4H12.536c-2.578 0-2.574-4 0-4H21.7v-9.722c0-1.072.84-1.87 1.862-1.98 2.465-1.742 4.226-4.46 4.63-7.48.086-.647.09-1.292.054-1.934H5.838c-2.578 0-2.573-4 0-4h21.403a11.549 11.549 0 00-2.504-3.521 1.9 1.9 0 01-.532-.851H1.932c-2.579 0-2.574-4 0-4h39.07c2.577 0 2.573 4 0 4H29.272a15.284 15.284 0 012.242 4.372h7.253c2.58 0 2.574 4 0 4h-6.54c.026.746.017 1.494-.076 2.24-.532 4.278-2.927 8.112-6.453 10.546v8.33h27.507c-.669-.19-1.275-.675-1.37-1.365a866.62 866.62 0 01-2.835-23.102 836.933 836.933 0 01-4.847-82.377 2.13 2.13 0 01.057-.506c-3.316.988-6.925 1.06-10.364.839-2.732-.176-5.459-.49-8.2-.492-1.336 0-2.683.057-3.999.295-1.172.212-2.272.53-3.43.088-2.04-.78-3.059-3.19-2.885-5.261.2-2.356 1.472-4.375 3.337-5.782 1.854-1.4 4.091-2.125 6.264-2.875 2.554-.881 5.111-1.756 7.691-2.56 1.29-.402 2.586-.782 3.888-1.135a1.992 1.992 0 01-.303-1.023V2c0-1.12.917-1.95 2-2 1.08-.047 2 .955 2 2v12.28c0 .036-.008.069-.01.104a75.787 75.787 0 014.612-.891 1.945 1.945 0 01-.23-.887V2.56c0-1.122.917-1.952 2-2 1.081-.05 2 .953 2 2v10.046c0 .149-.018.292-.048.43.141.017.278.049.41.102.628-.827 1.855-1.19 2.733-.554.381-.47.983-.765 1.601-.818 1.982-.17 3.963-.042 5.921.308 1.665.298 3.325.795 4.86 1.512.873.407 1.64 1.169 1.856 2.13.254 1.123-.19 2.235-1.089 2.93-1.302 1.005-3.116 1.132-4.682 1.44-1.539.303-3.08.586-4.625.862 2.575 8.022 3.19 16.542 4.602 24.916 1.424 8.45 4.084 17.209 11.891 21.839 4.266 2.529 9.111 3.928 13.65 5.877a98.46 98.46 0 0113.844 7.3c5.944 3.764 12.24 8.12 16.183 14.006 7.112.328 11.25 7.044 13.182 13.195 1.788 5.692 3.004 14.25 9.743 16.254zm-107.66-26.1c2.579 0 2.575 4 0 4H10.863c-2.578 0-2.574-4 0-4h20.093zm-2.232-8.373c1.121 0 1.952.917 2 2 .048 1.08-.954 2-2 2H15.885c-1.12 0-1.952-.916-2-2-.049-1.08.954-2 2-2h12.837zm35.46-15.042c.394.36.564.897.587 1.414.022.5-.24 1.067-.586 1.415a2.064 2.064 0 01-1.414.585h-3.35c-.541 0-1.022-.226-1.413-.585-.393-.36-.563-.897-.586-1.415-.022-.498.239-1.067.586-1.414a2.062 2.062 0 011.414-.586h3.349c.542 0 1.023.227 1.414.586zm13.396 5.023c.393.36.562.897.586 1.414.01.275-.047.532-.172.771a1.5 1.5 0 01-.414.643 1.503 1.503 0 01-.644.414 1.5 1.5 0 01-.77.172h-2.233c-.54 0-1.022-.226-1.414-.586-.393-.36-.563-.897-.586-1.414a1.51 1.51 0 01.172-.77c.081-.248.22-.463.414-.644.181-.195.395-.333.644-.414a1.51 1.51 0 01.77-.172h2.233c.541 0 1.023.227 1.414.586zm11.722 8.93c.393.361.562.897.585 1.415.01.275-.046.532-.172.771-.08.248-.218.461-.413.643a2.069 2.069 0 01-1.415.586h-2.79c-.542 0-1.023-.227-1.414-.586-.393-.36-.563-.897-.586-1.414a1.5 1.5 0 01.172-.77c.08-.249.219-.463.414-.645a2.064 2.064 0 011.414-.585h2.79c.542 0 1.023.227 1.415.585zm-20.094.559c.393.36.562.896.586 1.414.01.275-.047.532-.172.77a1.5 1.5 0 01-.414.644 2.062 2.062 0 01-1.414.586h-2.79c-.543 0-1.024-.226-1.415-.586-.393-.36-.563-.896-.586-1.414a1.51 1.51 0 01.172-.77c.081-.248.22-.463.414-.644a2.066 2.066 0 011.414-.586h2.791c.541 0 1.023.227 1.414.586z" fill="#000"></path></g></svg>