<svg xmlns="http://www.w3.org/2000/svg" width="90" height="90"><g fill="none" fill-rule="evenodd"><circle cx="45" cy="45" r="45" fill="#E2F6F7"/><path d="m53.448 27.314 1.194.66 1.177.67.905.531c10.12 6.016 15.726 11.942 13.407 15.778l-.061.152-.458 1.053-.59 1.29-.381.79c-.3.595-.512.92-.722 1.098-.611.515-1.412.87-2.372 1.074l.146.242.013.03.048.163.084.352.099.5c.104.585.167 1.127.167 1.593l-.012.333-.1 1.012-.063.478-.038.216-.097.434.044.184.099.5c.104.585.167 1.127.167 1.593l-.012.333-.1 1.012-.04.33-.061.364-.107.483c-.984 4.075-9.604 6.87-20.588 7.043l-.624.007-1.067-.001-1.206-.024c-10.576-.313-19.175-3.345-19.49-7.424l-.011-.336-.02-.176-.044-.231-.099-.457a4.86 4.86 0 0 1-.066-.435l-.015-.219-.02-.523c-.016-.51.045-1.11.149-1.67.042-.23.09-.435.134-.581l-.02-.458-.02-.176-.043-.231-.099-.457a4.86 4.86 0 0 1-.066-.435l-.015-.219-.02-.523c-.016-.51.045-1.11.149-1.67.028-.154.058-.296.089-.417l.066-.237C21 49.69 19.876 48.454 19.719 47.06l-.023-.335-.026-.175-.052-.23-.114-.452a4.4 4.4 0 0 1-.082-.433l-.022-.218-.04-.522a8.254 8.254 0 0 1 .146-1.995v-.245c.14-3.434 6.27-6.144 14.777-7.274-2.396-2.919-3.587-5.621-2.992-7.374.083-.242.33-.56.802-1.058l.188-.195.861-.86.687-.663.381-.351.346-.296.055-.043a1.6 1.6 0 0 1 .2-.132l.149-.075.102-.108c3.003-3.08 9.167-1.725 18.386 3.288zm10.408 31.644-.172.13c-3.14 2.264-9.549 3.721-17.186 3.962l-.768.02-.616.01-.826.005c-8.14 0-15.2-1.366-18.842-3.63l-.341-.222-.233-.163.045.228c.035.218.05.402.05.633 0 2.542 8.42 5.408 18.566 5.513l1.028.002c10.303-.07 18.454-2.646 19.117-5.392l.08-.356.051-.305.029-.234.018-.201zm0-4.75-.172.13c-3.14 2.264-9.549 3.721-17.186 3.962l-.768.02-.616.01-.826.005c-8.14 0-15.2-1.366-18.842-3.63l-.341-.222-.233-.163.045.228c.035.218.05.402.05.633 0 2.542 8.42 5.408 18.566 5.513l1.028.002c10.303-.07 18.454-2.646 19.117-5.392l.08-.356c.01-.052.02-.102.028-.152l.052-.387.018-.201zm-5.028-4.167c-3.66 1.975-9.584 3.326-16.476 3.676l-.624.029-1.066.036-1.206.018c-5.577.03-10.631-.715-14.231-2.021 1.431 2.193 9.132 4.3 18.457 4.386l.6.003.813-.005 1.155-.024 1.136-.045c9.188-.444 16.205-2.825 16.205-5.04a.396.396 0 0 1 0-.091l.014-.064.08-.285c-1.23.03-2.625-.113-4.144-.42l-.713-.153zm-37.082-4.12.049.202c.043.216.064.4.073.63.088 2.54 8.603 5.111 18.747 4.862l1.027-.034c5.6-.234 10.539-1.186 13.969-2.452l-.166-.055a45.049 45.049 0 0 1-2.407-.893l-.717-.296c-2.613.596-5.607 1.02-8.827 1.234l-.766.047-.616.031-.825.034c-6.568.23-12.462-.455-16.447-1.851-1.22-.423-2.262-.911-3.094-1.46zm12.278-18.045-.527.551-.192.212c-.483 2.354 4.959 8.841 12.55 13.497l.497.3.879.51c8.555 4.866 16.589 6.648 19.136 4.853l.156-.12c-.008.007-.006-.006.005-.033l.023-.054.306-.645c-3.93.695-10.417-1.277-17.566-5.224l-1.221-.69-.352-.204c-7.687-4.5-12.824-9.221-13.694-12.953zm2.548 9.796-.509-.511-.301.034c-7.849.907-13.68 3.148-14.07 5.158l.039.147.024.266c.146.892 1.407 1.76 3.462 2.48 3.329 1.154 8.693 1.928 14.764 1.825l1.15-.03 1.167-.05a60.205 60.205 0 0 0 6.58-.702l-.459-.234a62.596 62.596 0 0 1-1.694-.908l-.569-.32-.894-.518c-3.343-1.986-6.332-4.314-8.69-6.637zm-.065-12.019a1.742 1.742 0 0 0-.154.205c-.247 3.085 4.303 8.14 12.396 12.921l.56.327.694.396c4.276 2.402 8.88 4.124 12.81 4.954 2.215.468 3.87.425 4.761.03.284-.158.508-.357.667-.597 1.371-2.08-3.195-7.058-11.597-12.23l-.519-.316-1.045-.623-.942-.542c-9.455-5.38-15.538-6.9-17.63-4.525z" fill="#14A7AB"/></g></svg>