<svg xmlns="http://www.w3.org/2000/svg" width="90" height="90"><g fill="none" fill-rule="evenodd"><circle cx="45" cy="45" r="45" fill="#E2F6F7"/><path fill="#14A7AB" d="M56.905 40.956a2.5 2.5 0 0 1 2.5 2.5v17.272a2.5 2.5 0 0 1-2.5 2.5H33.269a2.5 2.5 0 0 1-2.5-2.5V43.456a2.5 2.5 0 0 1 2.5-2.5h23.636zM45.043 26.25a11.595 11.595 0 0 1 6.96 2.312c.885.658 1.677 1.44 2.352 2.319a12.191 12.191 0 0 1 1.845 3.42 12.36 12.36 0 0 1 .674 3.58 2.25 2.25 0 0 1-4.497.174 7.84 7.84 0 0 0-.427-2.276 7.702 7.702 0 0 0-1.163-2.157 7.56 7.56 0 0 0-1.47-1.45 7.221 7.221 0 0 0-1.753-.962 7.091 7.091 0 0 0-2.52-.46c-3.932 0-7.176 3.218-7.334 7.305a2.248 2.248 0 0 1-2.335 2.161 2.248 2.248 0 0 1-2.161-2.335c.25-6.473 5.45-11.631 11.83-11.631z"/><path fill="#C3EEEF" d="M45.299 47.291a2.864 2.864 0 0 1 1.348 5.392v3.35a1.377 1.377 0 0 1-2.751.001v-3.382a2.864 2.864 0 0 1 1.403-5.361z"/></g></svg>