<svg xmlns="http://www.w3.org/2000/svg" width="90" height="90"><g fill="none" fill-rule="evenodd"><circle cx="45" cy="45" r="45" fill="#E2F6F7"/><path d="m31.233 47.835 12.504 9.516v5.48l-.567-.334c-3.483-2.106-9.85-6.893-11.937-14.662zm25.209 5.366c-3.054 5.017-7.672 8.178-10.18 9.627v-1.794l10.18-7.833zm3.001-10.405a19.865 19.865 0 0 1-.828 5.545l-12.352 9.505v-5.132l13.18-9.918zm-28.587-3.868 12.881 10.216v5.033l-13.126-9.99a20.79 20.79 0 0 1-.05-2.301 23.35 23.35 0 0 1 .295-2.958zm27.473-3.41c.428 1.335.75 2.75.937 4.25l-13.003 9.784v-4.765l12.066-9.27zm-25.44-3.052 10.848 8.49v4.963l-12.271-9.732c.38-1.317.866-2.556 1.424-3.721zm22.822-2.564c.613.983 1.183 2.03 1.682 3.15l-11.13 8.55v-4.33l9.448-7.37zm-19.5-2.693 7.526 5.961v4.578l-9.63-7.538a28.286 28.286 0 0 1 2.104-3.001zm15.166-2.697c.976.97 1.965 2.07 2.9 3.304l-8.014 6.252v-5.412l5.114-4.144zm-7.64-4.176v9.611l-5.867-4.646a34.605 34.605 0 0 1 5.867-4.965zm2.526 5.069.001-5.073.705.483c.746.525 1.61 1.18 2.531 1.967l-3.236 2.623zm-.51-8.349-.753-.39-.848.442c-2.16 1.185-15.585 9.168-16.116 24.692-.499 14.595 12.407 22.204 15.701 23.904v6.15c-.003.992.412 1.485 1.246 1.48.833-.007 1.26-.5 1.28-1.48v-6.15l.533-.283c3.96-2.157 15.643-9.721 15.168-23.62-.54-15.775-14.392-23.763-16.212-24.745z" fill="#14A7AB"/></g></svg>