<svg xmlns="http://www.w3.org/2000/svg" width="90" height="90"><g fill="none" fill-rule="evenodd"><circle cx="45" cy="45" r="45" fill="#E2F6F7"/><path d="M45 25c-11.027 0-20 8.972-20 20s8.973 20 20 20 20-8.97 20-20c0-11.028-8.973-20-20-20zm18.27 20c0 .35-.03.692-.052 1.038-.128-.325-.323-.749-.37-.93-.067-.277-.48-1.242-.48-1.242s-.414-.55-.69-.688c-.274-.139-.481-.483-.964-.757-.483-.277-.687-.414-1.1-.414-.415 0-.825-.552-1.31-.827-.482-.274-.55-.137-.55-.137s.55.826.55 1.032c0 .206.619.55 1.241.412 0 0 .412.758.619.964.206.206-.07.414-.482.69-.413.273-.344.205-.553.411-.206.207-.894.554-1.101.69-.206.136-1.032.55-1.444.136-.202-.199-.14-.618-.276-.895-.138-.275-1.584-2.41-2.273-3.372-.12-.17-.413-.692-.618-.826-.206-.14.483-.14.483-.14s0-.483-.07-.826c-.07-.344.07-.825.07-.825s-.689.412-.898.55c-.205.138-.412-.274-.686-.62-.275-.343-.552-.758-.62-1.102-.069-.343.345-.482.345-.482l.618-.343s.758-.136 1.24-.069c.482.07 1.239.139 1.239.139s.206-.483-.07-.69c-.273-.205-.896-.55-1.17-.48-.275.067.136-.345.48-.62l-.763-.139s-.693.345-.9.414c-.207.068-.566.206-.842.55-.274.345.11.826-.165.965-.274.138-.46.206-.668.273-.206.07-.861 0-.861 0-.712 0-.256.65-.07.88l-.551-.672-.408-.963s-.588-.412-.863-.549c-.275-.138-1.124-.62-1.124-.62l.06.62.797.808.07.018.416.55-.916.07v-.545c-.864-.21-.638-.424-.736-.49-.204-.137-.683-.483-.683-.483s-.81.138-1.018.208c-.207.069-.265.275-.676.412-.415.138-.601.344-.738.55-.137.206-.586.826-.859 1.101-.276.277-.787.207-.993.207-.208 0-1.202-.276-1.202-.276V36.5s.134-.655.067-.861l.602-.102 1.007-.207.295-.208.423-.55s-.475-.345-.132-.826c.165-.232.76-.276 1.034-.482.274-.206.69-.344.69-.344s.484-.412.965-.895c0 0 .344-.208.757-.346 0 0 1.171 1.033 1.379 1.033.207 0 .964-.481.964-.481s.206-.618.138-.826c-.069-.206-.413-.895-.413-.895s-.206.345-.412.62c-.207.275-.345.62-.345.62s-.964-.067-1.032-.273c-.07-.207-.206-.548-.277-.752-.066-.208-.618-.2-1.029-.062-.415.138.067-.743.067-.743s.415-.52.689-.52c.273 0 .896-.352 1.168-.42.277-.07 1.106-.384 1.447-.384.345 0 .759.148.966.148h1.032l1.444-.116s1.241.46.826.736c0 0 .484.298.69.504.194.195.693-.18.98-.339 5.151 3.233 8.596 8.951 8.596 15.472zM30.42 34.226c0 .275-.376.342 0 1.033.48.895.067 1.309.067 1.309s-1.171.826-1.378.964c-.206.139-.756.895-.413.688.344-.206.756-.413.413.138-.344.552-.964 1.446-1.1 1.791-.138.346-.827 1.17-.827 1.584 0 .414-.275 1.241-.206 1.586.047.24-.106.947-.226 1.238a18.134 18.134 0 0 1 3.548-10.356c.07.007.121.025.121.025zm2.212-2.64a18.29 18.29 0 0 1 5.834-3.632c-.215.275-.474.558-.474.558s-.482-.002-1.378.964c-.894.964-.688.689-.894.963-.206.273-.138.344-.62.69-.48.343-.688.756-.688.756l-.758.276-.619-.276s-.553.208-.484-.069c.02-.073.05-.15.08-.23zm8.252 1.607-.274-.413.274-.62.664.266v-1.23l.634-.342.526.756.81.897-.537.412-1.435.275v-.73l-.662.729zm8.953 6.472c.161-.127.688.206.688.206s1.72.345 1.996.55c.276.208.758.347.896.554.138.206.618.826.686 1.032.07.206.415.966.484 1.24.07.275.276.964.482 1.308.206.346 1.378 1.86 1.79 2.548l1.242-.206s-.14.619-.277.826c-.137.206-.55.757-.756 1.032-.208.275-.482.689-.895 1.032-.412.343-.415.688-.62.964-.206.275-.483.895-.483.895s.139 1.378.206 1.653c.068.276-.481 1.032-.481 1.032l-.621.621-.83 1.1.068 1.032s-.627.484-.973.758c-.342.274-.288.481-.563.758-.274.274-1.351.757-1.627.826-.275.07-1.794.275-1.794.275v-.618l-.031-.689s-.209-.826-.416-1.101c-.208-.275-.118-.69-.462-1.033-.344-.345-.472-.619-.54-.828-.07-.206.074-.824.074-.824s.278-.758.415-1.033c.138-.276.002-.688-.137-.965-.138-.276-.204-.965-.204-1.17 0-.206-.554-.552-.76-.758-.206-.206-.137-.483-.137-.755 0-.278-.206-.897-.138-1.38.069-.48-.619-.138-1.032 0-.414.139-.688-.138-.688-.551 0-.414-.756-.068-1.24.206-.483.275-1.032.275-1.586.482-.549.207-.823-.206-.823-.206s-.484-.412-.826-.62c-.346-.205-.69-.618-.967-.962-.274-.346-.964-1.38-1.03-1.79-.07-.415 0-.692 0-1.173 0-.482 0-.757.068-1.101.069-.345.275-.758.482-1.103.206-.344.965-.757 1.17-.895.205-.137.688-.549.688-.826 0-.275.277-.412.412-.689.14-.275.621-.962 1.241-.687 0 0 .55-.068.755-.137.207-.07.757-.274 1.03-.412.275-.139.96-.204.96-.204s.543.216.75.216c.205 0 .877-.12.877-.12s.31.999.31 1.206c0 .208.207.412.553.55.34.14 1.925.486 2.614-.066zm7.918 13.497c0 .206-.069.758-.138 1.034-.072.275-.208.758-.275 1.03-.07.277-.414.827-.619.966-.206.138-.552.552-.756.62-.206.069-.346-.483-.277-.759.07-.275.414-1.031.414-1.031s.069-.413.137-.69c.07-.273.896-.618.896-.618l.552-1.033c-.003-.001.066.277.066.481zM27.2 49.06c.09.023.216.088.396.247.26.226.413.342.758.481.343.14.481.343.895.551.413.207.276.07.826.689.552.618.482.618.62.964.136.346.344.688.482.896.138.207.55.344.757.482.206.138.55.275.756.275.208 0 .828.62 1.172.688.345.07.345.76.345.76l-.345.962-.277 1.032.277.826s-.415.346-.687.346c-.254 0-.34.16-.619.084A18.263 18.263 0 0 1 27.2 49.06z" fill="#14A7AB"/></g></svg>